<?xml version="1.0" encoding="UTF-8"?>
<svg id="Layer_2" xmlns="http://www.w3.org/2000/svg" viewBox="0 0 112.61 126.82">
  <defs>
    <style>
      .cls-1 {
        fill: #dfe1ec;
      }

      .cls-2 {
        fill: #9c8371;
      }

      .cls-3 {
        fill: #937676;
      }

      .cls-4 {
        fill: #75777d;
      }
    </style>
  </defs>
  <g id="Vector_layer">
    <path class="cls-1" d="M80.77,102.57c-.06-.07-.11-.14-.17-.21-3.37,2.82-4.06-4.25-4.91-6.24-1.55-6.34-3.87-12.57-4.79-19.03-3.42-6.48-9.16-11.28-13.12-17.43-.91-1.25-1.8-2.52-2.64-3.82-.32-.49-.28-1.13-.02-1.65-.31-2.06,2.17-2.68,3.41-1.28.06-.09.13-.17.21-.25-.18-.41-.13-.92.12-1.29-.57-.93-1.11-1.88-1.74-2.77-.27-.37-.2-.89.17-1.17,1.21-.78,2.28,1.89,3.08,2.58-.02-.84,1.04-1.43,1.75-.95,1.61.89,2.25,2.74,3.2,4.22,1.78,2.68,3.5,5.4,5.38,8.01-.14-.74-.27-1.48-.4-2.23-.26-1.71,2.18-2.66,3.16-1.23,1.31,2.85,1.49,6.19,2.43,9.2-.34-2.63,3.18-3.49,3.73-.8.29,1.93.47,3.86.69,5.8.1.93.2,1.87.31,2.8.64.96,2.46,2.82.55,3.44.65,2.22,1.51,4.37,2.3,6.54,1.16.49,2.94,3.2,1.91,4.33.58,2.33,4.94,8.23.42,8.66-.16.42-.47.79-.87,1.01-.27.15-.57.23-.88.25.78,1.97-1.11,5.77-3.29,3.54Z"/>
    <path class="cls-1" d="M89.74,98.77c-.09-.35-.18-.71-.27-1.06-.28-.2-.5-.48-.64-.81-.36-.85-.73-1.7-1.09-2.56-.87.43-2.05,0-2.38-.93-.66-1.92-1.2-3.7-1.75-5.61-.66-2.44-1.22-4.91-1.43-7.43-.31-1.09.12-2.63,1.5-2.44,1.31-.66,2.67.34,3.08,1.59,2.48.35,2.64,4.69,3.36,6.63,1.02,3.92,1.93,7.88,2.88,11.82.49,2.12-2.69,2.92-3.25.8Z"/>
    <path class="cls-1" d="M81.87,115.89c-.44-.2-.74-.57-.87-1.04-.44-1.39-.99-2.75-1.5-4.12-.56-1.99-1.86-3.95-1.7-6.05-.19-1.17-.7-2.41-.33-3.58-2.91-7.27-5.23-14.8-6.41-22.55.05-1.23-.87-3.22.76-3.73.56-.14,1.22.15,1.47.68,1.13.84.86,2.57,1.35,3.79,2.08-.64,2.2,2.31,2.62,3.65.29,1.07.57,2.14.86,3.21,1.13-.25,1.77,1.11,1.98,2.03.54,1.59,1.15,3.16,1.75,4.73.98,2.43,1.91,4.94,3.43,7.02.18.7-.15,1.54-.9,1.71-1.68.25-2.18-2.39-2.9-3.52.67,2.34,1.33,4.69,1.87,7.06.06.27.03.54-.07.78.43,1.8,3.32,6.86.56,7.61.62,1.34-.5,2.95-1.98,2.33Z"/>
    <path class="cls-1" d="M79.75,110.55c-.51-1.26-1.02-2.53-1.53-3.79-1.02-.75-1.01-2.29-1.52-3.38-.74-2.17-1.45-4.28-2.15-6.45-.24-1.8-3.03-6.57-.15-7.01-.35-1.53-.66-3.08-.91-4.61-.11-.93-.72-2.32.45-2.81,1.9-.61,2.14,3.05,2.85,4.24,2.78,7.07,4.65,14.46,7.61,21.42,1.73.58.24,3.3-1.13,2.03-1.14-1.37-1.59-3.17-2.23-4.79.23.75.46,1.5.69,2.25.24.69.46,1.37.67,2.07,0,0,0,0,0,0,.4,1.64-1.98,2.41-2.63.84Z"/>
    <path class="cls-1" d="M86.71,117.92c-1.79-.18-2.32-2.07-2.67-3.55-1.68-5.1-3.11-10.46-2.96-15.87-.39-1.2-1.43-3.18.11-3.93.55-.26,1.2-.31,1.71.08.54-.07,1.14.15,1.45.61.1.15.2.3.29.46.15-.8.93-1.39,1.71-1.49.19-.81.96-1.37,1.77-1.41.07-.09.14-.17.22-.25.38-.37.85-.53,1.35-.64-.32-2.02.08-5.8,2.92-5.22.67-1.36,2.83-1.37,3.53,0,.5.92.79,1.93,1.04,2.94.14-.11.29-.2.47-.26.6-.23,1.22-.15,1.73.16.86-1.09,2.74-.78,3.22.53.39.89.55,1.85.64,2.81.38,2.82.76,5.64,1.13,8.45.36,2.71.73,5.43,1.04,8.14.21,1.7.57,4.47-1.85,4.54-.25.55-.76.98-1.35,1.12-.02,0-.03,0-.05.01-.59,1.23-1.73,2.66-3.26,1.98-1.14.94-2.83.26-3.74-.68-.95-.14-1.87-.75-2.36-1.58-.11.05-.24.1-.37.13-.14.03-.28.05-.42.05-.41.32-.93.49-1.47.38-.28-.06-.57-.09-.84-.18-.1.24-.19.48-.28.71-.12.34-.4.63-.74.81-.18.91-1.17,1.34-2.01,1.14,0,0,.01,0,.01,0Z"/>
    <path class="cls-1" d="M85.08,120.94c-.36-.11-.62-.33-.83-.63-.86-.16-1.28-1.03-1.59-1.77-.53-1.47-.85-3-1.26-4.5-.33-1.27-.64-2.54-.94-3.81-.36-1.34,1.13-2.57,2.38-1.93.68-.62,1.83-.59,2.43.12.6.74.66,1.5,1.07,2.23-.1-.6-1.15-8.27.19-6.91.52,2.64.68,5.35.95,8.02.5,2.32,1.06,4.64,1.77,6.9.07.34-.05.7-.38.87-1.49.71-2.32-3.43-2.97-4.4.2,1.75,2.59,6.16-.83,5.82Z"/>
    <path class="cls-1" d="M88.01,95.93c-.68-.85-1.02-1.89-1.49-2.88-.77.27-1.54-.14-1.87-.86-1.72-3.47-2.87-7.17-4.08-10.84-1.14-3.67-2.31-7.31-3.38-10.99-.54-1.81-1.09-3.63-1.62-5.44-.1-.34-.06-.7.08-1.02-.14-.76-.19-1.54-.26-2.31-.13-1.12.91-2.12,2.02-1.91,1.19.07,1.84,1.24,2.49,2.09.08-.81,1.08-1.86,1.81-1.1,3.31-2.41,4.37,3.36,5.25,5.5,1.83.74,2,3.19,2.69,4.82,1.14,3.44,2.18,6.92,3.14,10.41.83,2.95,1.63,5.91,2.32,8.9.47,1.76-1.51,3.38-3.12,2.51-.09.04-.19.08-.29.1-.39.09-.78.05-1.13-.09.49,1.18,1.17,2.81-.28,3.61-.75.41-1.8.23-2.29-.49Z"/>
    <path class="cls-1" d="M79.29,70.34c-1.56-1.25-2.69-3.04-4.06-4.51-1.02-.66-2.01-1.35-2.98-2.08-.52.08-1.06-.04-1.48-.39-.49-.41-.98-.82-1.47-1.23-1.02,1.02-2.29.12-3.23-.54,0,.15-.02.31-.06.46.83,1.54-.92,3.36-2.5,2.61-.4-.17-.79-.35-1.16-.57-5.31-3.69-10.5-7.6-15.42-11.81-5.52-4.67-11.8-8.4-17.74-12.51-.94,1-2.09-.12-2.87-.77-2.26-2.26-5.12-3.54-7.61-5.5-2.56-2.01-5.07-4.09-7.41-6.36-1.36-.83-2.61-1.83-3.55-3.13-.79-1.37-3.15-1.52-3.3-3.26.02-.47.42-.87.9-.85.35-.01.5.22.75.33.54.01,1.41-.3,1.5.51.05,0,.09,0,.14.02.15.03.28.06.4.12.07-.03.14-.05.21-.06,0-.29.11-.58.28-.81.17-.21.39-.35.63-.43-.8-.92-2.07-2.56-.81-3.6.7-.53,1.56-.2,2.07.42,0-1.07,1.34-1.68,2.16-1,.69.53,1.38,1.06,2.05,1.61-1.11-1.11-.96-3,.89-2.93-.38-.61-.66-1.35-.6-2.08-.58-.62-.25-1.73.6-1.94.97-.24,1.67.57,2.37,1.09,1.24.06,2.24,1.08,3.31,1.63,2.22,1.42,4.47,2.8,6.74,4.14-.96-.87-2.01-2.16-.84-3.33.63-.61,1.79-.66,2.4.04.38.42.83.78,1.26,1.14,2.85-.24,4.93,2.6,7.13,4.04,1.4.18,2.28,1.45,3.43,2.15,4.32,3.12,8.82,6.46,13.1,9.46,1.42.92,2.77,1.93,4.21,2.82,1.14.67,1.12,2.48-.09,3.07.87.83,1.86,1.33,1.84,2.56,3.73,2.6,7.07,5.75,10.29,8.88,2.75,2.25,5.2,4.83,7.42,7.6,1.6,2,4.12,3.65,5,6.08.43,1.56-1.18,2.83-2.66,2.46.56.59.72,1.48.46,2.24.74.86,1.96,1.64,1.71,2.94-.24,1.59-2.18,2.18-3.44,1.3Z"/>
    <path class="cls-1" d="M38.62,27.81c-1.01-.88-2.02-1.76-3.02-2.66-1.27-.11-2.05-1.4-2.99-2.13-1.84-1.53-3.7-3.04-5.48-4.63-.78.15-1.48-.32-2.09-.75-1.64-1.14-3.28-2.31-4.78-3.64.36,1.47.69,2.94.92,4.43.26,1.84-2.39,2.66-3.27,1.04-.51-.91-.77-1.94-1.19-2.89-.18.65-.73,1.16-1.43,1.23-.59.06-1.14-.2-1.49-.64-.17.89-.4,1.76-.69,2.62-.35,1.32-2.21,1.67-3.01.58-.5.98-.99,1.98-1.54,2.93-.82,1.54-3.32.73-3.09-.99-.08-.05-.16-.1-.23-.17-1.25.95-3.02-.63-2.16-1.97,1.7-2.98,3.62-5.82,4.81-9.05.87-2.1,2-4.06,3.03-6.09.85-1.33,1.42-4.17,3.54-3.37,1.14.5,1.18,1.85.57,2.79.05.06.09.13.13.21.04.08.09.17.13.25.27,0,.53.1.73.29.22.23.31.54.26.83.32.03.63.15.88.36.16.13.31.26.46.4,1.67-.07,2.86,1.59,4.13,2.47,2.68,2.15,5.29,4.39,7.91,6.62,1.49-.5,2.51,1.04,3.34,2.03,1.3,1.5,2.86,2.76,4.21,4.18,1.19,1.12,2.4,2.22,3.6,3.31.59.54.58,1.54.11,2.14-.54.67-1.62.83-2.28.26Z"/>
    <path class="cls-4" d="M27.75,10.95c-3.56-1.38-6.84-3.36-10.12-5.3-.67-.38-2.27-1.15-1.06-1.92.44-.11,1.11-.11,1.25.42,3.44,1.95,6.87,3.91,10.5,5.49.85.37.26,1.69-.58,1.31Z"/>
    <path class="cls-4" d="M35.64,18.48c-2.88-1.52-5.61-3.4-8.18-5.41-3.9-2.14-7.46-4.84-11.17-7.26-.71-.38-1.43-.73-2.18-1.02-.54-.13-.89-.72-.72-1.25-1.37-.88-1.68-2.27.23-2.58.26-.09.49-.07.68,0,1.42.75,3.02,1.08,4.58,1.46.62-.61,1.64-.43,2.33-.05.34-.44.97-.61,1.49-.37.04.02.07.04.11.05,1.03-1.68,6.39,2.77,7.79,3.47,1.75,1.21,3.7,2.2,5.34,3.55.75.74.38,2.14-.66,2.37.16.63-.16,1.34-.68,1.71,1.12.97,4.54,2.18,2.67,3.94.12.87-.8,1.69-1.63,1.38Z"/>
    <path class="cls-4" d="M53.56,28.14c-.61-.45-1.21-.9-1.81-1.35.06.99-1.18,1.71-2.01,1.15-.39-.27-.75-.51-1.12-.77.02.02.05.04.07.05-1.36-.98-2.59-1.82-4.09-2.49-4.87-2.6-9.41-5.79-13.89-9-1.11-.83-2.28-1.56-3.5-2.21-.42-.26-.61-.83-.39-1.28-.6-.62-4.95-3.72-2.89-4.22,1.37.74,2.67,1.75,4.16,2.33.66.42-.07,1.17-.62.68.14.11.27.21.41.31.87-.65,1.84.32,2.58.76,1.43.94,2.82,1.94,4.27,2.85-1.75-1.6-3.45-3.26-5.11-4.94-.45-.48-.5-1.23-.09-1.75.65-.83,1.71-.47,2.36.16.44-.11.92-.03,1.27.28.96.84,1.97,1.64,2.96,2.44,2.08.98,3.9,2.47,5.71,3.92,2.13,1.5,4.11,2.89,6.13,4.49,2.21,1.65,4.46,3.23,6.63,4.93.82.46,1.68,1.12,1.77,2.13.19,1.48-1.64,2.48-2.8,1.54Z"/>
    <path class="cls-4" d="M57.04,28.01c-.44-.31-.89-.63-1.33-.94-1.61,1.16-3.95-1.56-5.47-2.21-.27,2.76-3.46-.36-4.27-1.29-1.29-1.32-2.78-2.5-4.27-3.54-1.9-1.31-3.9-2.47-5.89-3.64-1.47-.87-2.95-1.76-4.31-2.8-.37-.28-.49-.82-.3-1.24.35-.82,1.34-.66,2.01-.35.53-3.2,4.73.13,6.36.73.51-.34,1.19-.37,1.74-.05,1.35.82,2.63,1.73,3.96,2.57,2.43,1.53,4.89,3.13,7.19,4.8.68.38,1.35.94,1.48,1.74,1.71,1.22,3.41,2.46,5.08,3.75.68.52.78,1.55.25,2.21-.52.68-1.54.78-2.21.25Z"/>
    <path class="cls-4" d="M67.69,41.99c-.57-.47-1.14-.94-1.7-1.43-.92.98-2,.01-2.79-.62-3.08-1.83-5.95-3.97-8.71-6.25-1.73-1.35-3.25-2.94-4.91-4.32-.79-.9-2.38-1.61-2.22-2.98-.89-.94-3.43-2.41-1.7-3.7.63-.41,1.31.02,1.83.39,1.59,1.11,3.11,2.32,4.61,3.55-.64-.72-1.73-1.18-2.08-2.08-.05-.34.2-.72.57-.68,0,0,0,0,0,0,.91.19,1.57,1.01,2.32,1.54.33-.29.84-.23,1.17.03,1.67,1.18,3.24,2.48,4.76,3.84,1.22,1.13,2.44,2.25,3.49,3.54.56.5.97,1.3.53,2.01,1.91,1.73,4.07,3.13,6,4.84.66.53,1.17,1.54.43,2.23-.43.41-1.12.45-1.59.08Z"/>
    <path class="cls-4" d="M88.39,59.89c-1.06-1.02-2.13-2.02-3.19-3.04.16,1.33-1.5,2.21-2.54,1.37-2.1-1.54-4.11-3.22-5.93-5.09-2.88-2.98-6.11-5.57-9.01-8.54-2.89-3.06-6-5.89-9.1-8.74-1.08-.95-3.09-2.29-1.69-3.83-2.12-1.77-4.28-3.48-6.51-5.09-.8-.66-2.39-1.05-2.03-2.38.47-1.42,2.06-.81,2.95-.17.74-3.06,4.18.42,5.39,1.46.32-.33.81-.51,1.26-.43,2.25-1.58,7.69,4.94,9.6,6.31,1.4,1.27,2.79,2.52,4.11,3.72,1.34-.51,2.16,1.09,2.97,1.89,1.6,1.87,3.04,3.85,4.89,5.47,2.03,2.19,4.24,4.25,6.1,6.59.53.69.4,1.76-.28,2.3,1.28,1.48,2.56,2.96,3.8,4.47.93.97,2.61,2.66,1.13,3.89-.59.45-1.4.35-1.93-.15Z"/>
    <path class="cls-4" d="M106.54,107.86c-.22-.07-.43-.14-.65-.21-.31-.1-.62-.19-.92-.29-.29.28-.72.32-1.11.38-1.29,1.54-3.4-.15-3.25-1.77,0,0,0,0,0,0-.58.13-1.15-.2-1.56-.6-.48.97-1.98,1.1-2.6.2-.47-.62-.48-1.42-.62-2.16-.39-3.51-1.1-6.98-1.73-10.45-.5-4.32-1.87-8.44-2.71-12.71-.38-2.03-1.14-3.98-1.73-5.96-1.53-4.12-4.07-7.89-5.76-11.97,0,0,0,.02.01.02,0,0,0,.01,0,.02-.73-1.57-1.39-3.17-2.06-4.76-.14-.35-.09-.75.11-1.05-.23-.95-2.84-5.84-.69-5.47-.71-1.23-1.13-2.61-1.64-3.93-.2-.46-.13-.98.13-1.41.58-.98,1.81-.75,2.61-.18,2.12,1.19,3.61,3.14,5.2,4.91,3.17,2.95,6.41,5.93,8.84,9.54,3.43,4.92,5.58,10.39,7.55,16.01,1.43.53.85,2.17,1.14,3.28,0-.03-.01-.07-.02-.1,1.02,5.26,2.38,10.45,3.29,15.71,1.09,2.94,2.06,5.92,2.71,8.99.41,1.37.32,3.35-1.4,3.68-.49,1.31-2.45,1.48-3.15.27ZM84.26,57.17s.02.04.03.05c.09-.38.33-.73.66-.94-1.08-1.23-2.06-2.53-2.9-3.95.62,1.66,1.29,3.31,2.21,4.83Z"/>
    <path class="cls-4" d="M83.66,115.33c.01-.54.47-.95,1-.95s.96.48.95,1c-.01.54-.47.95-1,.95s-.96-.48-.95-1Z"/>
    <path class="cls-4" d="M83.35,117.33c-.4-.12-.64-.55-.52-.95.11-.39.53-.62.92-.52,3.3-2.25,5.5-6.16,9.02-8.02.31-.71,1.37-.41,1.1.36-.15.34-.32.75-.71.82-1.33,1.86-3.33,3.09-4.82,4.81-1.15,1.16-2.35,2.27-3.7,3.2-.36.24-.84.41-1.28.3Z"/>
    <path class="cls-4" d="M91.32,110.1c-.08-.26.06-.51.24-.7.61-.67,1.36-1.22,1.93-1.93.72-.59,1.12-2.57,2.27-1.66.37.31.29.97-.09,1.28-1.07,1-2.18,1.98-3.29,2.94.07.69-1.03.77-1.06.07Z"/>
    <path class="cls-4" d="M108.16,109.69c-.97-.09-1.96-.15-2.93-.32-.7-.31-1.42-.55-2.15-.76-1.46.11-2.98.04-4.38-.41-1-.34-1.7-1.17-2.72-1.42-.57-.36-.11-1.22.49-1.19.24,0,.5.1.73.18.7.22,1.2.65,1.87.84,1.09.18,2.21.03,3.32.03,1.2-.26,2.39.34,3.49.77.69.07,1.37.14,2.03.37,1.85-1.08,2.28,2.38.21,1.91,0,0,.06.01.06.01Z"/>
    <path class="cls-2" d="M83.74,126.26c-1.18-.38-.8-1.84-.85-2.76-.65-.8.03-1.76.11-2.63.21-1.31-.19-3.24,1.18-3.99.3-.75,1.33-.66,1.9-1,.55-.27,1.09-.72,1.74-.64.18-.08.38-.13.57-.12.02,0,.04,0,.06,0,.76-.59,2.03-.29,2.23.71,0,0,0,0,0,0,.23,1.75-.08,3.55.34,5.29.08.52.23,1.02.32,1.54.14.86-.66,1.7-1.51,1.66-.69.7-2.07.5-2.43-.48-.34.13-.72.13-1.06-.02-.2-.09-.38-.23-.52-.4-.05.15-.13.29-.24.4,0,.06,0,.12,0,.17h0c0,.33-.17.65-.48.84.17.84-.5,1.66-1.37,1.42Z"/>
    <path class="cls-2" d="M91.26,124.86c-.28-.22-.45-.55-.48-.9-.62-.18-.98-.84-.84-1.45-.18-.17-.32-.39-.38-.64-.05-.22-.05-.45.01-.66-.25-.18-.45-.44-.52-.74-.08-.32-.02-.64.13-.92-.02-.04-.04-.08-.05-.11-.14-.35-.1-.75.08-1.08-1.73.71-2.2-1.58-.47-1.99-.15-.11-.19-.34-.11-.51-.57-.72.17-1.37.91-1.39,1.55-.59,3.19-.99,4.77-1.53,3.06-1.05,6.17-1.87,9.15-3.15,1.4-.38,2.98-1.57,4.42-.96,1.13-1.14,3.13.12,1.98,1.59.11,8.68,2.3,6.66-6.21,9.77-.53.82-1.05,1.64-2.12,1.59-1.02.45-2.01.98-3.06,1.35-2,.65-3.94,1.6-6.01,2-.43.03-.84,0-1.21-.28Z"/>
    <path class="cls-1" d="M103.04,109.61c-.97.21-1.96-.1-2.88-.27-.94-.02-1.91-.17-2.74-.62-.49-.19-1.36.22-1.46-.51-.13-.63.61-.71,1.06-.71.33-.1.83-.11,1.11.02.78.07,1.57.05,2.36.14.55.07,1.03.35,1.6.38.4.16.79-.08,1.19-.02.53.16,1,.2,1.53.14.74.05.93,1.04.27,1.36-.48.23-1.51.2-2.03.08Z"/>
    <path class="cls-1" d="M104.53,109.64c-.54-.63.4-1.2.92-1.4.82-.16,1.15,1.24.17,1.16-.28.31-.74.61-1.1.24Z"/>
    <path class="cls-1" d="M70.27,96.85c-1.36-2.54-1.89-5.48-2.92-8.18-.24-.98-.91-1.98-.7-3.01.23-.67,1.36-.66,1.45.08.86,2.84,1.99,5.59,2.84,8.43.45.55.53,1.37.66,2.06.1.71-.85,1.16-1.33.63Z"/>
    <path class="cls-1" d="M65.5,87.48s0,0,0,0c0,0,0,0,0,0Z"/>
    <path class="cls-1" d="M65.5,87.49s0,0,0,0c0,0,0,0,0,0Z"/>
    <path class="cls-1" d="M72.8,113.96c-1.08-.16-1.22-1.41-1.11-2.3.14-2.34.34-4.59.5-6.79-.03,0-.05,0-.08.01-.8.13-1.45-.64-1.38-1.38-.52-.16-.68-.74-.81-1.21-.86-2.7-1.62-5.37-2.66-8-.61-1.61-1.32-3.27-1.86-4.91.06-.05.11-.11.16-.18.21-.27.34-.64.39-.98.03-.22.05-.47.04-.7,0-.18-.03-.36-.05-.54.05-.09.09-.18.12-.28.05-.16.07-.33.07-.5,0-.22-.03-.42-.1-.61.56-1.81,3.61-2.48,5.1-1.46.54.47.44,1.27.73,1.87.31.12.55.39.64.71.37,1.79.69,3.68,1.29,5.39.68,2.19,1.45,4.32,2.04,6.53.18.67-.3,1.38-.98,1.48.04.08.08.16.12.25.55-.29,1.29.07,1.48.64,1.86,1.25-.12,2.75-1.55,3.13.38,2.08-.07,4.27-.27,6.37-.15,1.19-.02,3.44-1.64,3.44-.06,0-.11,0-.17,0ZM70.14,96.37c.07.16.14.32.21.48-.06-.2-.13-.39-.19-.59,0,.04-.01.08-.02.11Z"/>
    <path class="cls-1" d="M67.56,101.49c-.28-.21-.4-.55-.55-.85-.28-.18-.42-.55-.37-.87.23-2.23-.23-4.57.07-6.83.04-.8,1.19-1.06,1.48-.28.35,2.08-.16,4.33.48,6.38,2.39.04.51,3.76-1.12,2.45Z"/>
    <path class="cls-2" d="M82.27,126.5c-1.12-.55-1.48-2.02-2.19-2.98-1.5-2.73-3.19-5.4-4.24-8.34-.45-1.26,1.19-2.16,2-1.11,1.61,1.97,2.82,4.24,4.08,6.45.56,1.07,1.3,2.12,1.43,3.35.86,1.12.67,2.97-1.08,2.64Z"/>
    <path class="cls-2" d="M82.48,121.8c-.36-.53-.73-1.06-1.08-1.59-1.77,2.35-3.49-3.33-4.37-4.45-.01,0-.02,0-.03-.01-.63.7-1.72.12-1.69-.76-.44-.62-.28-1.69-.37-2.36.03-1.45-.18-2.92.57-4.19.14-1.1,0-2.31.43-3.34.88-.91,1.69.26,1.78,1.15.7,3.55,2.05,6.91,4.4,9.68.78-.08,1.48.64,2.13,1.03.76.76.42,2.11-.55,2.49.48.77,1.37,1.84.38,2.59-.49.36-1.25.28-1.61-.23Z"/>
    <path class="cls-3" d="M80.93,123.39c-.24-.45-.47-.9-.7-1.36-.3-.03-.59-.21-.75-.48-.57-.99-1.12-1.99-1.62-3.01-.17-.08-.34-.17-.46-.33-.55-1.02-1.01-2.13-1.72-3.05-1.2-.54-.12-2.07-.04-3.01.32-1.78.25-3.61.49-5.39-.1-.55-.17-1.42.42-1.71.64-.24.98.44.88.99.18.23.19.46.16.74-.07,1.87.92,3.63,1.62,5.32.22.03.43.13.58.31,1.09,1.42,1.86,3.06,2.8,4.58.82.79,1.85,2.68.28,3.25-.09.15-.23.28-.38.37-.05.03-.1.05-.15.07.12.26.23.52.34.78.13.31.07.65-.1.91.65,1.15-.99,2.18-1.68,1.04Z"/>
    <path class="cls-3" d="M81.38,126.13s-.03-.05-.05-.07c-.42-.14-.69-.57-.78-.99-.3-.57-.53-1.14-.73-1.75-.43-.39-.79-.99-.45-1.56.12-1.67,2.04-1.42,2.22.18.05-.06.12-.12.18-.17.11-.08.23-.15.36-.21-.01-.04-.02-.09-.03-.14-.26-.09-.47-.29-.59-.54-.82-.44-.62-1.72.27-1.95,0,0,0,0,0,0,.07-.67.7-1.02,1.1-1.48.61-.9,1.48-1.76,2.65-1.37,1.17-.46,2.3-1.05,3.58-1.11,1.58-.61,3.15-1.35,4.83-1.65,1.57-.19,3.27-.63,4.8-.59.68.33.61,1.26-.06,1.56.72-.11,1.8-.62,2.17.31,1.21,1.28-.56,1.83-1.57,2.15.04.04.08.07.12.12.82.02,1.66.73,1.4,1.6-.69,1.31-2.34,1.87-3.59,2.53.67,2.01-2.58,1.51-3.68,1.95-3.57.89-6.95,2.1-10.47,3.03-.28.65-1.28.77-1.7.17Z"/>
    <path class="cls-3" d="M91.18,116.59c0-.53.44-.99.97-.99s.98.44.99.97c0,.53-.44.99-.97.99s-.98-.44-.99-.97Z"/>
    <path class="cls-3" d="M92.44,124.72c-.11-.02-.2-.04-.2-.06-1-.02-1.57-1.33-.73-1.95.25-.22.61-.25.93-.36.36-.27.81-.35,1.25-.35,1.07-.3,2.02-.96,3.05-1.38-.31-.4-.33-.94-.15-1.4-.2-.27-.31-.61-.26-.93.03-.2.09-.4.18-.58-.96-.36-.91-1.77.04-2.1,0-.27.1-.53.29-.75.09-.11.21-.19.33-.26-1.99.22-3.51,1.14-5.15,2.16-.1,1.65-2.47,1.25-2.41-.27.06-1.06,1.16-1.48,1.99-1.9.57-.31,1.12-.66,1.7-.94.39-.59,1.17-.72,1.79-.91,1.94-.55,3.89-1.06,5.8-1.72,1.27-.21,4.29-2.53,4.62-.25,3.61-1.14,4.79,1.45,1.05,2.76,0,0,0,.02,0,.02.08.23.05.47-.04.67.34.28.52.72.46,1.16,0,.04,0,.07-.01.11.73,1.38-.88,2.35-1.89,2.96.23,1.1-1.21,1.77-1.92,2.2-.81.34-1.53,1.16-2.46,1.09-.48.16-1,.34-1.5.19-1.9.69-3.67,1.79-5.57,2.38-.37.23-.76.5-1.21.41Z"/>
    <path class="cls-3" d="M104.73,119.2s0,0,0,0c0,0,0,0,0,0-.83.48-2.02.21-1.93-.93.32-1.27,2-1.39,2.99-1.94-1.25-.3-1.21-1.81-.38-2.53.37-.93,1.11-1.73,2.17-1.39.02-.6.12-1.19.22-1.78-.04,0-.08,0-.12.01-.09,0-.17,0-.26-.01-.32.2-.75.28-1.11.26-.62.21-1.21.62-1.9.69-.47.9-1.88.16-1.61-.75.21-.78,1.15-.73,1.78-.93,1.03-.39,1.97-1.42,3.13-1.2.08-.06.17-.11.28-.14.11-.03.22-.04.33-.03.39-.37,1-.47,1.48-.11.31.23.5.65.45,1.04.06,1.44-.43,2.83-.44,4.27-.19.94-.12,1.87-.09,2.8.27.86-.59,1.76-1.45,1.42-.71.31-1.46.56-2.1.99-.31.47-.99.7-1.43.26Z"/>
    <path class="cls-3" d="M4.95,37.57c-.72-2.08-1.04-4.39-1.01-6.59-.12-.66-.31-1.31-.4-1.97,0-.41.15-.86.05-1.25-.03-.97-.75-2.31.19-3.03.96-1.18,3.78.48,2.88,1.89.69,1.96.78,4.05.95,6.1,1.09.58.65,2.03-.38,2.41.33.89.75,2.39-.6,2.56-.39.61-1.39.54-1.68-.13Z"/>
    <path class="cls-3" d="M27.56,48.55c-1.23-.63-2.42-1.32-3.62-2.01-.19.98-1.37,1.41-2.18.88-1.59-1-3.15-2.07-4.72-3.11-1.46.97-12.1-5.99-12-7.8-.84-.67-1.21-2.14.03-2.59-.56-.6-1.11-1.21-1.69-1.8-.87-.93.4-2.43,1.46-1.75.3-.32.8-.48,1.22-.31.04.02.07.03.11.05-.37-.49-.92-1.04-.92-1.69-.79-.36-1.25-1.51-.57-2.19-.37-.85.79-1.67,1.47-1.02.81.76,1.57,1.58,2.57,2.1,1.31-.85,3.06,1,4.18,1.64.87.2,1.54.89,2.29,1.34.87.67,2.02,1.36,2.18,2.55,2.03,1.36,4.1,2.63,6.15,3.97.48.28.69.86.61,1.4,1.04.94,5.18,2.48,3.87,4.17.8.4,1.88.81,1.82,1.88.31.45.35,1.08.11,1.57-.15.3-.4.54-.7.69.88,1.07-.46,2.68-1.68,2.02Z"/>
    <path class="cls-3" d="M26.4,51.39s0,0,0,0c0,0,0,0,0,0,0,0,0,0,0,0,0,0,0,0-.01,0Z"/>
    <path class="cls-3" d="M27.78,52.41s0,0,0,0c0,0,0,0,.01,0,0,0,0,0-.01,0Z"/>
    <path class="cls-3" d="M27.86,52.47s0,0,0,0c0,0,0,0,0,0Z"/>
    <path class="cls-3" d="M27.87,52.47h-.02s0-.01,0-.01c0,0,0,0,0,0,0,0,.02.01.03.02h0Z"/>
    <path class="cls-3" d="M27.89,52.48s0,0,0,0c0,0,0,0,0,0,0,0,0,0,0,0Z"/>
    <path class="cls-3" d="M27.89,52.49s0,0,0,0c0,0,0,0,0,0Z"/>
    <path class="cls-3" d="M51.03,62.01c-1.65-.59-3.23-1.33-4.77-2.16-1.2.89-2.43-.3-3.45-.91-.71-.14-1.3-.66-1.95-.97-.47.58-1.23.41-1.76.01-.71-.41-1.3-.76-1.97-1.16-.08-.18-.19-.35-.33-.49-.21-.21-.45-.39-.7-.55-.27-.18-.56-.29-.87-.3-.27-.13-.55-.27-.82-.4-.33-.16-.66-.32-.99-.48-.55-.27-1.08-.56-1.66-.73-.29-.08-.59-.09-.86,0-.36-.17-.72-.32-1.11-.35-.12-.01-.25,0-.37.02-.51-.35-1.02-.69-1.52-1.04,0,0,0,0,0,0,0,0,0,0,0,0,0,0,0,0,0,0,.03.02.06.04.09.06-.03-.02-.07-.05-.1-.07-.03-.02-.05-.03-.07-.05,0,0-.02-.01-.03-.02l-.67-.46c-.22-.2-.46-.38-.7-.56,0,0,0,0,0,0,0,0,0,0,0,0,0,0,0,0,0,0-.7-.51-1.41-1.01-2.13-1.48,0,0,0,0,0,0-.14-.1-.29-.19-.43-.29-.28-.21-.56-.42-.84-.63,0,0,.02.02.03.02-.06-.04-.11-.08-.16-.12.02.01.03.03.05.04-.02-.02-.05-.04-.07-.05,0,0,.01,0,.02.01-.62-.47-1.24-.96-1.88-1.4-.3-.21-.68-.28-1.01-.16.01-.17.05-.33.12-.48-.79-.88-2.6-2.22-1.35-3.41.19-1.23,1.52-.47,2.06.08-.24-.84.06-1.94.99-2.17-.02-.02-.05-.05-.07-.07-.33-.36-.43-.85-.34-1.31-.21-.48-.16-1.04-.36-1.54-.21-1.7,1.68-2.28,2.82-1.2,4.3,1.47,7.41,5.44,11.07,7.89,4.06,2.77,8.37,5.11,12.41,7.92,1.23,1.1,4.09,2,3.36,4.05.94.8,2.21,1.2,2.96,2.2.39.54.35,1.26.06,1.82-.37.69-1.25,1-2.04,1-.23,0-.45-.03-.64-.07Z"/>
    <path class="cls-3" d="M55.06,71.13h0s0,0,0,0c0,0,0,0,0,0Z"/>
    <path class="cls-3" d="M55.12,71.21s0,0,0-.01c0,0,0,.01.01.02,0,0,0,0,0,0Z"/>
    <path class="cls-3" d="M55.13,71.22s0,0,0,0c0,0,0,0,0,0,0,0,0,0,0,0h0s0,0,0,0Z"/>
    <path class="cls-3" d="M55.13,71.22s0,0,0,0c0,0,0,0,0,0Z"/>
    <path class="cls-3" d="M55.13,71.23s0,0,0,0c0,0,0,0,0,0,0,0,0,0,0,0Z"/>
    <path class="cls-3" d="M55.13,71.23s0,0,0,0c0,0,0,0,0,0,0,0,0,0,0,0Z"/>
    <path class="cls-3" d="M55.08,71.15s0,0,0,0c0,0,0,.01.01.02,0,0,0,.01.01.02,0,0,0,0,0,0,0,0,0,.01.01.02,0,0,0,0,0,0,0,0,0,0,0,0,0,0,0,0,0,0,0,0,0,0,0,0h0s0,0,0,0c0,0,0,0,0,0,0,0,0,0,0,0h0s0,0,0,0c0,0,0,0,0,0,.02.02.03.04.04.05-.04-.05-.07-.09-.1-.13Z"/>
    <path class="cls-3" d="M63.75,77.02c-.62-.49-1.2-1.03-1.79-1.55-.01,0-.02-.02-.04-.03-1.12,2.1-2.89-.43-3.88-1.35-.24.16-.48.22-.73.22-.34-.42-.69-.84-1.04-1.25.03.04.06.07.09.11-.09-.11-.18-.22-.28-.33-.02-.1-.05-.2-.09-.3-.09-.21-.21-.39-.34-.57-.16-.23-.32-.45-.48-.68,0,.01.02.02.03.03-.02-.02-.03-.04-.05-.06,0-.01-.02-.02-.02-.03,0,0,0,0-.01-.01,0,0,0-.01-.01-.02,0,0,0,0,0-.01,0,0,0,0,0,.01,0,0,0,0,0,0,0,0,0,0,0,0,0,0,0,0,0,0,0-.01-.02-.02-.03-.03,0,.01.02.02.03.03,0,0,0-.01-.01-.02,0,0,0-.01-.01-.02,0,0,0,0,0,0,0,0,0,0,0,0,0,0,0,.01.01.02,0,0,0-.01-.01-.02,0,0,0,0,0-.02h0s-.03-.04-.04-.06c.02.02.03.05.04.07,0,0,.01.02.02.03,0,0,0,0,0,0-.22-.3-.45-.59-.69-.88l.11.13c-.3-.37-.61-.72-.93-1.08l.02.02c-.6-.68-1.24-1.38-1.97-1.93-.36-.27-.72-.53-1.1-.77-.29-.19-.62-.4-.96-.52-.6-.62-1.22-1.23-1.87-1.81-2.41-2.17-5.26-3.84-7.67-6.05-.58-.41-1.41-1.16-.8-1.9.31-.68,1.09-.68,1.62-.25-.2-2.58,3.2-.1,4.21.39.82.48,2.8,1.28,1.55,2.39.19.16.38.32.57.47.15.12.3.25.45.37.31-.34.8-.38,1.19-.15.05.03.09.06.13.09,1.25-.98,2.2.66,2.95,1.48.46-.15.99-.01,1.34.37.89.98,1.75,1.98,2.61,2.98,1.33,1.55,2.77,3.02,4.27,4.42,1.34,1.61,7.93,5.79,5.95,7.93-.31.36-.76.54-1.22.54-.39,0-.78-.13-1.09-.4Z"/>
    <path class="cls-3" d="M67.96,83.07c-.13-.12-.27-.25-.38-.4-.28-.33-.34-.81-.21-1.21-.52-1.35-2.42-2.57-1.79-4.19-.79-1.24-1.44-2.37-2.08-3.62-1.34-1.4-2.76-2.72-4.13-4.08-2.95-2.95-5.62-6.18-8.83-8.87-.87-.13-1.8-1.23-1.49-2.13-.64-.67-1.33-2.26-.18-2.75,1.09-.31,1.91.8,2.72,1.36,3.48,3.01,7.9,5.01,10.88,8.57.89,1.16,2.67,1.97,2.68,3.53.94,1.3,4.08,3.93,2.69,5.37.29.79.56,1.59.85,2.38.08.22.09.46.04.68.44.91,1.34,1.77,1.2,2.84,1.3,1.64-.12,3.84-1.96,2.51Z"/>
    <path class="cls-3" d="M61.87,79.9s0,0,0,0c0,0,0,0,0,0Z"/>
    <path class="cls-3" d="M61.88,79.9s0,0,0,0c0,0,0,0,0,0,0,0,0,0,0,0Z"/>
    <path class="cls-3" d="M65.44,84.44c-.11-.16-.25-.29-.38-.44-.14-.16-.26-.34-.39-.52-.48-.63-.97-1.27-1.45-1.9h0s0,0,0,.01c0,0,0-.01-.01-.02-.22-.4-.4-.81-.45-1.28-.01-.02-.02-.03-.04-.04-.19.07-.36.07-.53.04-.09-.11-.19-.22-.28-.34,0,0,.02.02.02.03l.07.08s-.05-.06-.07-.08h0s.02,0,.02.01c-.03-.03-.05-.06-.07-.09,0,0,0,0,0,0,0,0,0-.01-.01-.02,0,0,0,0,0,0-.79-.95-1.58-1.89-2.35-2.86l.09.12c-.29-.38-.59-.75-.88-1.13-.16-.21-.34-.41-.52-.61-.66-.87-1.29-1.75-1.71-2.71-.43-.79-1.41-1.58-1.03-2.55.3-.65,1.35-.38,1.29.33.45.66.94,1.3,1.4,1.95.28.39.56.78.84,1.17.25-1.04,1.38-.73,1.77.04.39-.2.9-.18,1.25.14.24.21.46.45.67.69,1.16-.43,1.8.95,2.48,1.63.92.18,1.3,1.18,1.84,1.84.49.91,1.55,1.98,1.04,3.05.51-.23,1.09-.06,1.52.27.57,0,1.15.31,1.39.84.51,1.05-.61,2.14-1.66,1.75-.62.65-1.59,1.29-2.43.56-.27.33-.59.68-1,.8-.13-.27-.27-.54-.43-.78Z"/>
    <path class="cls-3" d="M65.44,84.44c-.08-.12-.18-.22-.27-.33-.18-.48-.36-.96-.59-1.42-.23-.59-1.32-2.11.02-1.99.69.62.88,2.04,1.27,2.92.07.43.43.98.13,1.38-.05.05-.12.08-.19.08-.11-.22-.23-.44-.36-.64Z"/>
    <path class="cls-3" d="M36.71,24.37s-.09-.09-.12-.14c-.29.11-.59.06-.85-.11-.13-.08-.23-.19-.29-.32-.65.5-1.97.32-1.68-.73,1.32-2.35,2.97-4.67,4.74-6.69.22-2.14,2.89-.56,3.03.85,1.42.34.81,1.83,0,2.5-1.05,1.03-3.15,5.91-4.82,4.63Z"/>
    <path class="cls-3" d="M84.36,79.13c-1.1-.16-.92-1.63-1.43-2.38-.44-.93-.98-1.95-.78-3-.16-.98.12-3.08,1.55-2.39.06-.17.17-.31.31-.42-.14-1.02,1.38-1.44,1.8-.49.31-.07.65.02.89.23-.2-.79.67-1.52,1.41-1.2.56-.44,1.38-.16,1.67.46.03-.01.06-.02.09-.03.3-.1.6-.05.85.1.14-.11.32-.19.5-.23.4-.07.82.08,1.09.37,2.53-1.99,2.9,4.22,3.07,5.68.27,1.36-1.38,2.38-2.27,1.17-.16.01-.32-.01-.47-.06-.09.27-.26.51-.51.66-.24.15-.51.21-.79.16-.12.43-.54.76-.99.78-.23.01-.46-.05-.65-.17-.55.52-1.48.25-1.74-.44-.56.45-1.46.15-1.65-.54-.13.08-.29.13-.45.14-.08,0-.16,0-.23-.01-.04.03-.09.05-.14.06-.07.67-.24,1.63-1.13,1.57Z"/>
    <path d="M1.61,19.8c-.27-.34-.35-.79-.16-1.19.15-.3.46-.54.8-.59,2.69-5.15,4.97-10.52,7.57-15.72,0,0,0,0,0,0,.24-.61,1.19-.75,1.62-.22.24.28.29.62.19.97-.82,2.11-1.88,4.13-2.75,6.23-1.21,2.78-2.6,5.49-3.87,8.25-.45,1.34-1.84,3.76-3.41,2.26Z"/>
    <path d="M30.79,18.39c-2.86-2.49-5.84-4.82-8.72-7.29-3.53-2.24-7.35-4.02-9.85-7.51-.39-.49-.71-1.08-.5-1.71.01-.28.23-.53.55-.51.46.03.59.51.43.87,2.62,3.44,6.73,4.95,10.37,7.02,3.21,2.33,6.38,4.61,9.59,6.92.69.62,1.88,1.17,1.67,2.27-.51,1.84-2.64.85-3.59-.08,0,0,.04.03.04.03Z"/>
    <path d="M32.01,22.74c-.14-.41-.03-.88.3-1.17.63-.63,1.02-1.5,1.57-2.22,1.71-2.07,3.02-4.66,5.06-6.39.47-.35,1.21-.16,1.47.37.25.49.04,1.06-.4,1.32-.67.92-1.33,1.85-2.01,2.76-1.27,1.71-2.49,3.44-3.66,5.22-.46.94-1.92,1.23-2.34.09Z"/>
    <path d="M35.93,25.6c-1.26-.03-2.34-.78-3.25-1.59-.38-.25-.78-.56-.81-1.06-.07-1.14,1.66-1.85,2.21-.71.54.29,1.03.64,1.63.74.99-.08,2.09-.6,2.58.67.49,1.44-1.23,2.01-2.36,1.95Z"/>
    <path d="M37.64,24.79c-.85-.78.42-1.64.79-2.23,1.13-1.46,2.23-2.83,3.24-4.37-.82-.82-1.54-1.68-2.47-2.35-.59-.5-.25-1.55.53-1.58,0,0,0,0,0,0,1.5.18,2.82,1.42,3.87,2.45.63.75.29,2.1-.78,2.14-.78,1.46-1.8,2.78-2.74,4.14-.64.69-1.26,2.62-2.45,1.8Z"/>
    <path d="M17.08,2.86c-1.82-.14-3.6-.6-5.39-.95-.17.96-1.68.77-1.6-.2.06-.61,0-1.21.62-1.5,2.29-.54,4.61.43,6.92.29C19.67.47,21.69.1,23.74,0c.59-.03,1.13.35,1.25.94.13.62-.28,1.29-.92,1.41-2.31.37-4.66.65-7,.51Z"/>
    <path d="M93.03,56.48c-1.85-2.14-3.32-4.57-5.24-6.63-2.37-2.07-5.36-3.39-7.51-5.73-1.95-2.33-4.09-4.5-6.65-6.15-3.15-2.74-6.68-5.16-9.41-8.35-2.93-2.59-6.48-4.24-9.63-6.54-3.41-2.22-6.02-5.45-9.3-7.84-1.88-1.52-4.3-2-6.4-3.11-1.86-.81-3.4-2.13-4.88-3.49-2.49-2.02-5.2-3.81-8.05-5.29-.69-.43-1.95-.69-1.86-1.68.36-1.29,2.01-.28,2.76-.02,3.96,1.78,7.45,4.44,10.67,7.33,1.78,1.3,4.05,2.17,6.01,3.03,3.84,1.84,6.88,4.97,10.11,7.69,2.98,2.1,6.06,4.09,9.12,6.08,2.21,1.23,3.72,3.26,5.52,4.97,1.18.98,2.47,1.82,3.66,2.81,2.32,2.12,5.13,3.62,7.36,5.83,1.44,1.42,2.61,3.1,4.2,4.37,2.16,1.73,4.74,2.98,6.5,5.16,1.62,2.06,2.98,4.32,4.41,6.51.59.86-.69,1.9-1.39,1.07Z"/>
    <path d="M110.15,106.57c-1.26-2.49-1.41-5.53-1.89-8.19-.52-2.68-.85-5.41-1.22-8.1-1.14-5.93-3.07-11.79-4.41-17.65-.58-2.28-2.13-3.95-3.17-5.99-1.75-3.51-3.51-7.12-5.67-10.38-.34-.53-1.25-.69-1.08-1.4.15-.48.87-.5,1.05-.06.69.17,1.17.68,1.53,1.25,2.5,3.44,4.17,7.37,6.22,11.07,2.47,3.23,2.97,7.21,4.25,10.95,3.19,8.39,3.7,17.44,6.18,26.01.5.39.57,1.06.66,1.64.17,1.32-1.77,1.99-2.45.85Z"/>
    <path d="M81.71,78.95c-.97-1.43-.94-3.38-1.25-5.05,0-.58-.3-1.21,0-1.74.13-.98,1.59-1.2,2.01-.29.37.92.39,1.97.68,2.93.2.87.45,1.73.64,2.61.33.54.23,1.25-.25,1.67-.54.48-1.35.4-1.84-.12Z"/>
    <path d="M81.72,72.87c-1.09-.05-1.4-1.47-.6-2.12.38-.33.96-.34,1.44-.4,1.82-.23,3.61-.66,5.39-1.08,1.88-.4,3.72-.93,5.59-1.35.64-.14,1.29.29,1.42.92.14.67-.3,1.25-.93,1.42-3.78.94-7.61,1.86-11.48,2.3-.22.2-.52.32-.83.3Z"/>
    <path d="M94.22,75.33c-.47-1.55-.62-3.21-1.22-4.73-.29-.65-.8-1.37-.39-2.08.33-.86,1.64-.94,2.06-.15,1.27,1.84,1.6,4.11,2.07,6.25.12.64-.23,1.29-.85,1.51-.65.23-1.47-.12-1.67-.8Z"/>
    <path d="M82.11,79.76c-1.04-.19-1.2-1.66-.24-2.1.71-.34,1.51-.04,2.26-.13,2.9-.68,5.73-1.74,8.75-1.8,1.33.14,3.83-1.05,4.21.84.03,1.54-1.91,1.28-2.97,1.43-2.07.07-4.18.23-6.1.76-1.71.48-3.43,1.17-5.23.9-.21.11-.46.15-.7.1Z"/>
    <path d="M87.05,70.63c-1-.19-1.18-1.33-1.37-2-1.23-3.06-3.01-5.94-4.9-8.64-1.53-3.16-3.79-5.59-6.15-8.11-2.45-2.07-4.7-4.45-7.04-6.54-1.89-1.29-3.45-2.97-5.16-4.48-3.45-2.55-6.37-5.62-9.91-8.02-2.87-1.88-4.74-4.89-7.65-6.73-1.13-.8-2.3-1.56-3.33-2.47-.2.12-.45.14-.66.03-.32-.16-.44-.53-.34-.84-.63-.55-.36-1.72.56-1.67.74.12,1.27.73,1.87,1.12,3.51,2.23,6.51,5.11,9.39,8.02,3.09,1.98,5.79,4.44,8.54,6.84,2.2,1.55,4.14,3.43,6.13,5.23,1.33,1.02,2.69,1.93,3.84,3.15,3.41,3.2,6.81,6.19,9.74,9.8,1.93,2.95,3.74,6.11,5.36,9.26.85,1.31,4.3,5.99,1.08,6.04Z"/>
    <path d="M94.96,105.99c-.98-5.15-1.56-10.4-2.72-15.53-.69-3.88-2.23-7.7-2.7-11.57-.34-.99.41-3.1,1.65-2.11.53,4.96,2.59,9.73,3.43,14.69.98,4.62,1.65,9.31,2.25,13.99.1,1.06-1.45,1.5-1.9.53Z"/>
    <path d="M82.23,116.13c-.3-.43-.01-.96.43-1.14,4.59-3.22,8.91-6.86,12.94-10.73.5-.18.87.54.4.81-1.75,1.96-3.76,3.65-5.7,5.41-1.64,1.57-3.47,2.93-5.21,4.38-.81.45-1.95,2.28-2.86,1.28Z"/>
    <path d="M104.13,107.33c-2.69-.22-5.38-.81-8.04-.76-.16.95-1.51.71-1.66-.12-.13-.65.58-1.04,1.05-1.32,3.62-.61,7.52.62,11.17.47,1.72-.02,3.43-.32,5.15-.27.42.02.77.38.8.79.03.41-.26.84-.68.9-2.57.39-5.21.62-7.8.3Z"/>
    <path d="M66.21,71.31c-2.57-1.95-4.24-4.65-6.17-7.14-1.8-1.63-4.02-2.69-5.81-4.34-3.75-3.17-7.57-6.3-12.07-8.37-2.63-1.61-4.58-4.11-7.27-5.67-2.89-1.98-5.91-3.73-8.41-6.22-2.79-2.18-5.96-3.83-8.74-6.02-2.28-1.72-4.34-3.8-6.96-4.99-2.76-1.38-5.26-3.23-7.91-4.8-.92-.72-2.21-1.25-2.75-2.32-.72-1.78,2.12-2.75,2.59-.83,3.49,2.52,7.12,4.92,10.84,7.09,2.2,1.48,4.05,3.45,6.16,5.03,3.57,2.7,7.6,4.77,10.81,7.94,4.24,2.76,8.3,5.76,12.19,8.97,4.5,2.04,8.41,4.97,12.08,8.23,2.08,1.87,4.66,3.05,6.69,4.96,1.68,1.91,2.78,4.28,4.73,5.98.53.71,1.95,1.43,1.22,2.41-.31.35-.86.39-1.21.08Z"/>
    <path d="M80.96,116.51c-.41-.32-.45-.82-.54-1.3-.45-2.08-1.4-3.89-2.28-5.8-1.78-4.82-3.14-9.82-4.52-14.77-.69-5.09-2.98-9.71-4.16-14.66-.54-2.28-1.47-4.2-2.47-6.25-.53-1.27-.8-2.28-1.42-3.46-.08-1.3,1.83-1.6,1.86-.18.41.86.68,1.86,1.08,2.69,1.68,2.93,2.64,6.24,3.38,9.5.82,3.15,2.27,6.15,2.62,9.41.65,4.24,1.67,8.39,3.15,12.37.43,1.33.67,2.71,1.18,3.99,1.21,2.49,2.57,4.9,3.5,7.52.31.8-.75,1.53-1.39.94Z"/>
    <path d="M83.01,117.07c-.29-.04-.59-.07-.86-.18-.46-.19-.41-.92.05-1.07.51-.12,1.56-.06,1.54.68-.02.38-.38.62-.73.57Z"/>
    <path d="M83.34,117.27c.29-.84,1.42-1.15,2.05-1.7,3.28-3.07,6.82-5.89,10.15-8.87.32-.38.94.04.71.48-.97,1.28-2.35,2.17-3.53,3.25-3,2.22-5.62,4.92-8.75,6.93-.05.45-.76.3-.62-.14,0,0-.01.04-.01.04Z"/>
    <path d="M106.85,109.09c-3.46-.18-6.88-.86-10.28-1.45-.46,0-1.3-.19-.87-.8.13-.15.32-.1.49-.15.13-.06.28-.03.38.07,4.52.82,8.57.97,12.15,1.59.42-.06.49.53.08.57-.52.42-1.33.16-1.95.17Z"/>
    <path d="M108.39,108.51c-.38-.67.47-1.05.93-1.23.82-.26,1.79-1.29,2.63-1.05.78.56-.05,1.22-.64,1.46-.8.26-2.24,1.74-2.92.82Z"/>
    <path d="M85.29,116.21c-.42-.08-.38-.64-.09-.86.17-.12.39-.14.59-.2,6.69-2.18,13.54-3.85,20.17-6.18.57-.21.8.73.19.8-2.93,1.21-6,1.99-9.03,2.87-3.86.97-7.58,2.4-11.43,3.37-.07.14-.23.23-.39.2Z"/>
    <path d="M81.8,126.79c-.25-.12-.31-.48-.08-.65.04-.23.17-.44.42-.48.71-.1,1.41-.23,2.1-.4,2.25-.54,4.45-1.24,6.7-1.78.29-.06.59.12.66.41.07.3-.12.59-.41.67-.77.21-1.55.39-2.32.59-2.15.52-4.31,1.17-6.52,1.37-.04.24-.33.37-.54.27Z"/>
    <path d="M90.87,124.93c-.34-1.59.02-3.32-.13-4.96.1-1.95-.24-4.05.37-5.93.5-.73,1.5,0,1.15.74-.31,3.2.02,6.46-.54,9.64.31.54-.51,1-.85.5Z"/>
    <path d="M91.5,125.34c-.3-.14-.32-.58-.04-.73.21-.19.61-.15.85-.25,3.51-1.24,7.01-2.54,10.46-3.94.68-.09.71.81.09.94-3.57,1.43-7.17,2.85-10.87,3.88-.12.13-.32.18-.48.1Z"/>
    <path d="M103.3,121.14c-.24-.04-.41-.25-.4-.49.03-2.65.1-5.33.17-7.98.09-.97-.04-2.04.33-2.94.45-.51,1.14,0,1.08.6-.37,1.35.21,11.06-1.18,10.81Z"/>
    <path d="M103.44,120.04c-.37-.48.08-1.3.69-.98,1.96-.93,3.95-1.32,5.89-2.19.24-.11.54,0,.69.21.57,1.15-1.8,1.51-2.52,1.86-1.47.3-2.81,1.02-4.25,1.37-.2,0-.39-.11-.5-.27Z"/>
    <path d="M109.48,117.64c-.55-3.2.6-6.5.11-9.66,0-.3.22-.56.51-.63.47-.12.94.36.8.82.25,3.12-.48,6.23-.32,9.36.05.74-1.02.87-1.09.11Z"/>
    <path d="M81.84,126.4c-.28-3.16.27-6.45.74-9.54.14-.39.73-.48.96-.12.17,2.55-.63,5.2-.57,7.79-.16.7.4,2.01-.53,2.24-.25.03-.52-.13-.6-.37Z"/>
    <path d="M95.97,123.69c-.16,0-.32-.14-.33-.31-.21-2.57-.25-5.15-.25-7.73,0-.85-.07-1.73.05-2.57.02-.14.11-.26.23-.33.29-.16.67.08.66.41-.04,3.4.25,6.83,0,10.23-.02.17-.18.29-.35.29Z"/>
    <path d="M98.33,122.31c-.39-3.31.32-6.76.06-10.09-.33-.24-.18-.81.24-.84.44-.03.65.48.63.86.22,2.91.03,5.81-.15,8.7-.02.39-.12.78-.11,1.16.04.17-.06.34-.22.41-.18.07-.38-.03-.45-.2Z"/>
    <path d="M95.89,115.98c-.62-.29-.12-1.39.45-.88.81-.13,1.55-.5,2.33-.73.27-.09.57.03.67.3.21.79-.93.83-1.43,1.09-.64.16-1.39.56-2.02.22Z"/>
    <path d="M95.94,119.63c-.43-.12-.55-.74-.18-.99.32-.32.84-.17,1.24-.29.68-.07,1.77-.79,2.06.2.24,1.23-2.34,1-3.12,1.09Z"/>
    <path d="M3.87,36.09c-.45-4.19-1.13-8.83-.43-12.99.18-.58,1.1-.37.98.23,0,0,0,0,0,0-.26,4.13.23,8.36.84,12.43.23.89-1.18,1.24-1.4.33Z"/>
    <path d="M58.61,76.74c-3.29-3.12-4.87-7.68-8.75-10.16-3.6-2.64-7.07-5.43-10.8-7.87-4.39-2.24-8.14-4.04-12.54-6.53-3.95-2.68-8.17-5.8-12.23-8.21-3.31-1.8-6.97-3.4-9.12-6.64-.05.61-1.03.41-.84-.17.19-.55.15-1.56.96-1.44.78.35,1.28,1.36,1.94,1.88,2.51,2.31,5.57,3.5,8.46,5.15,3.69,2.32,7.33,4.78,10.76,7.45,3.64,2.2,7.27,4.38,11.13,6.15,3.11,1.62,5.84,3.88,8.49,6.15,3.86,2.82,7.99,5.37,10.27,9.73.98,1.3,2.05,2.5,3.09,3.75.2.24.2.58-.04.8-.22.21-.59.2-.8-.04Z"/>
    <path d="M66.25,85.29c-1.15-.55-.08-2.59.99-1.69,1.44-.3,2.91-.52,4.35-.87.46-.11.95.15,1.12.59.18.47-.06,1.08-.56,1.24-1.27.35-2.76.4-4.02.61-.62.07-1.27.35-1.88.11Z"/>
    <path d="M71.15,101.31c-.11-.05-.17-.16-.17-.27-1.15-.45-1.13-2.12-1.46-3.15-1.01-4.02-2.02-8.06-3.57-11.9-.19-.43.16-1.03.63-1.04.44-.01.57.64.1.69,1.77,3.72,2.9,7.72,3.87,11.7.32,1.1.21,2.49,1,3.3.17.28,0,.82-.39.67Z"/>
    <path d="M71.69,102.93c-.59-.05-.93-.71-.59-1.2.43-.57,1.4-.61,1.98-.83.64-.19,1.26-.44,1.91-.61.83-.21,1.29,1.01.52,1.4-.98.48-2.05.71-3.1.96-.17.23-.46.31-.73.28Z"/>
    <path d="M65.82,88.66c-1.12-.32-.22-1.78-.22-2.53.04-.41-.18-.87.24-1.15.8-.41,1.36.26,1.13,1.05-.16.75-.07,2.73-1.15,2.64Z"/>
    <path d="M70.48,104.94c-.19-.34-.48-.77-.57-1.14-.2-1.66-1.13-3.26-1.72-4.81-.74-2.89-1.8-5.68-2.48-8.57-.36-.55-.59-.9-.65-1.61-.12-.55.73-.69.8-.14.06.29.06.64.16.9.51.43.48,1.2.64,1.78,1.16,2.71,1.48,5.65,2.68,8.31.53,1.4,1.17,2.77,1.96,4.03.11.24.2.51.23.77.06.56-.67.9-1.05.47Z"/>
    <path d="M70.96,105.39c-.89-.24-.2-1.3-.13-1.9.19-.46.14-1.12.52-1.46.15-.11.38-.14.53.01.37.36,0,.91-.02,1.34-.26.63.07,2.02-.9,2.01Z"/>
    <path d="M71.52,104.99c-.81.14-.98-1.15-.16-1.22.99.2,1.92-.43,2.87-.69.52-.17,1.03-.37,1.57-.47.36-.06.7.22.79.56.18.86-.84.95-1.45,1.08-1.21.21-2.37.88-3.62.75Z"/>
    <path d="M70.55,113.88c-.22-2.8.1-5.64.22-8.45-.48-1.28,1.46-1.71,1.4-.22-.34,2.83-.31,5.76-.34,8.62,0,.78-1.22.83-1.29.05Z"/>
    <path d="M64.93,86.05c-1.68-3.4-4.19-6.38-6.15-9.57-.01-.17.15-.26.17-.42.14-.48.9-.26.76.22,2.1,2.75,4.65,5.47,5.9,8.73.14.38.5.85.05,1.17-.23.17-.56.1-.73-.12Z"/>
    <path d="M71.21,114.11c-.54-.16-.57-.93-.08-1.18.31-.19.7-.16,1.05-.17.29-.01.58-.02.88-.03.58-.01.88.8.44,1.17-.61.37-1.59.11-2.29.2Z"/>
    <path d="M74.32,115.48c-.3-.16-.31-.53-.32-.82.05-2,.36-4,.56-5.99,0,0,0,0,0,0,0,.01,0,.03,0,.04.15-1.45.24-2.9.39-4.34.09-.47.37-1,.86-1.14.7-.19,1.25.71.77,1.25-.53,2.94-.57,6.03-1.12,8.98-.22.68.03,2.46-1.13,2.01Z"/>
    <path d="M81.15,126.46c-.88-.84-1.2-2.85-2.04-3.93-1.39-2.4-2.93-4.63-4.01-7.17-.28-.07-.22-.39-.28-.59-.25-.43.28-.9.69-.62.73.72.94,1.86,1.52,2.72,1.67,2.86,3.67,5.61,4.44,8.88.38.22.1.85-.32.71Z"/>
    <path d="M73.6,114.39c-.5-.14-.99-.87-.35-1.16.29-.14.49.06.73.16.71.22.28,1.31-.38,1Z"/>
    <path d="M66.15,100.91c-.12-3.09-.37-6.18-.43-9.25-.58-.47.5-1.04.72-.41.32,3.19.53,6.43.41,9.64,0,.42-.66.45-.7.02Z"/>
    <path d="M68.99,101.69c-.46-.03-.84-.08-1.28-.1-.55,0-1.36,0-1.51-.66-.19-.63.61-1.16,1.12-.74.79.1,2.32-.31,2.41.81-.01.38-.35.71-.73.69Z"/>
  </g>
</svg>