<?xml version="1.0" encoding="UTF-8"?>
<svg id="Layer_2" xmlns="http://www.w3.org/2000/svg" viewBox="0 0 104.98 136.01">
  <defs>
    <style>
      .cls-1 {
        fill: #937676;
      }

      .cls-2 {
        fill: #9e9996;
      }

      .cls-3 {
        fill: #90898d;
      }
    </style>
  </defs>
  <g id="Image_xA0_4">
    <g>
      <path class="cls-1" d="M27.99,86.91c-8.19-2.95-15.26-8.35-22.93-12.35-.62-.13-1.19-.86-.46-1.29.51-.23,1.02.09,1.48.31.53-1.46,2.82.69,3.74.99.01-.03.03-.07.05-.1.04-.07.08-.13.13-.19-1.19-.68-1.04-2.58.43-2.74-1.49-1.01-.55-3.4,1.23-2.71,1.4-1.67,4.03,1.09,5.52,1.69.62-.16,1.22.15,1.78.39,2.59,1.12,5.01,2.58,7.47,3.94,4.62,1.55,8.84,3.92,13.18,6.05.77.49.8,1.72.09,2.27-.52.44-1.21.4-1.8.14-1.48-.63-2.97-1.25-4.48-1.82-.15.29-.38.49-.64.66.96.45,2.27.74,2.66,1.85.44,1.41-1.24,2.49-2.42,1.71-.25,1.9-2.64,1.15-3.77.52-.18.51-.73.81-1.25.69Z"/>
      <path class="cls-1" d="M22.74,83.71c-3.83-1.71-8.35-1.23-11.81-3.87-1.67-1.8-11.09-3.71-7.47-7.03-.53-2.36-2.16-5.19-2.19-7.67-.24-.41-.61-.75-.76-1.2-.33-1.07.99-1.87,1.84-1.18.46-.44,1.25-.43,1.68.04,2.29,1.32,4.6,2.59,6.96,3.78,1.86,1.29,10.64,3.35,9.64,6.02-.78,1.79-2.57.6-3.71-.11-2.48-1.49-5.29-2.28-7.76-3.78,1.07.91,1.79,2.13,2.88,3,.07,0,.14.03.19.09.03.03.04.07.05.11,2.86,2.54,5.87,5.01,8.23,8.04,1.11.43,2.28.75,3.35,1.25,1.49.79.46,3.08-1.12,2.5ZM15.22,78.1c.29.1.58.19.87.29-.78-.77-1.57-1.53-2.37-2.28-.07.1-.15.19-.25.27-.3.25-.66.34-1.01.3.49.25,1.04.48,1.36.96.47.16.94.31,1.4.46ZM11.39,76.11s.08.04.12.06c-.47-.53-.94-1.06-1.41-1.6-.06.08-.13.16-.21.23-.18.15-.39.24-.61.27.7.35,1.4.7,2.11,1.04Z"/>
      <path class="cls-1" d="M13.29,73.23c-2.82-1.58-5.54-3.55-8.55-4.68-1.19-.13-1.43-1.78-.1-1.83.36.02.65.02,1,.03.56-1.17,2.02-.86,2.87-.19,1.65.89,3.33,1.94,4.9,2.89,0,0,0,0-.01,0-.03-.02-.06-.03-.08-.05.8.63,2.58,1.02,2.08,2.35.88,1.47-.93,2.46-2.1,1.49Z"/>
      <path class="cls-1" d="M42.05,43.75c-.61-.66.3-1.46.51-2.06,1.66-3.39,2.93-6.94,4.96-10.1,1.32-2.57,2.29-5.34,3.48-7.96.39-1.01,1.27-3.35,2.61-2.14.22.24.28.64.16.94-.51.95-.79,1.98-1.13,2.99-1.4,3.14-2.54,6.38-4.61,9.12-1.56,2.87-2.87,5.9-4.62,8.66-.04.57-.93.96-1.36.54Z"/>
      <path class="cls-1" d="M52.5,24.24c-.25-.54.15-1.05.24-1.57.33-.89.16-1.94.59-2.77,0,0,0,0,0,0,1.33-.77.83,3.39.79,4.06-.07.84-1.28,1.05-1.62.27Z"/>
      <path class="cls-1" d="M44.05,46.35c-.13-.05-.24-.11-.35-.19-2.21.48-4.15-4.07-.87-3.49,1.31-3.68,3.49-6.92,4.99-10.5,1.62-3,2.37-6.56,4.72-9.12.25-.79.18-1.84.9-2.38.45-.28.89.41.44.7,0,0,0,0,0,0,0,0,0,0,0,0-.05.55,0,1.1-.05,1.65,1.41,1.07-.33,2.69-.81,3.81-1.48,3.11-2.57,6.41-3.68,9.67-1.12,2.54-2.17,4.99-3.1,7.56-.16,1.18-.68,2.76-2.19,2.28Z"/>
      <path class="cls-1" d="M42.05,43.92c-.46-.11-.82-.62-.68-1.09.3-.78.26-1.64.6-2.4.17-.32.5-.45.82-.54.36-.4.66-.9.92-1.27,2.46-4.61,4.56-9.42,7.24-13.92.85-1.44,1.32-3.3,2.77-4.27.69-.43,1.37.64.67,1.07-1.05.74-1.37,2.15-1.98,3.23-1.22,2.47-2.69,4.8-3.83,7.32-1.05,2.04-2.03,4.1-3,6.18-.64,1.05-1.13,2.4-2.21,3.05-.12.92.11,2.82-1.31,2.63Z"/>
      <path class="cls-1" d="M42.92,46.45c-1.64-.3-2.97-1.42-4.48-2.04-4.01-1.41-7.63-3.65-11.41-5.56-2.41-.95-4.7-2.17-7.05-3.24-1.29-.51-2.61-1-3.63-1.95-.21-.2-.33-.66.07-.7.18.04.32,0,.47-.1.41-.46,1.03-.24,1.53-.05.98.23,1.94.48,2.88.82,2.57,1,5.24,1.77,7.79,2.81,2.17.9,4.09,2.28,6.24,3.19,1.33-.07,2.54.89,3.8,1.25,1.36.5,2.62,1.19,3.9,1.84.56.24,1.16.53,1.49,1.07.8,1.15-.21,2.85-1.6,2.66Z"/>
      <path class="cls-1" d="M37.79,92.56c-.67-.11-1.15-.63-1.55-1.13-2.64-.78-5.11-2.44-7.49-3.81-.62-.27-1.37-.66-1.36-1.44.02-.51.18-1.01.63-1.3-.63-.54.15-1.54.82-1.06,1.04.59,2.07,1.37,3.26,1.41-.36-1.6-2.31-4.99.53-5.18.74-.67,1.86-.64,2.73-.24.05-.01.1-.02.15-.03.87-1.7,2.78-.73,2.78.96.19.09.38.19.57.28.08.04.15.07.23.11,1.37-1.67,4.02.66,5.42,1.32,1.74,1.04,3.75,1.57,5.62,2.36,2.1,1.06,6.81,2.02,6.73,4.9-.12,1.14-1.39,2.09-2.45,1.4-1.58.8-3.23-.89-4.68-1.43-3.85-1.22-7.42-3.38-11.16-4.87.06,1.59-.57,3.2,0,4.75.19.48.47.82.63,1.3.27.86-.51,1.86-1.41,1.71Z"/>
      <path class="cls-1" d="M84.06,110.98c-1.34-.01-2.56-.89-3.83-1.27-1.19-.47-2.42-.94-3.38-1.8-1.31-.51-1.39-2.67-.16-3.28-1.92-1.25-4.14-2.38-5.63-4.12-1.05-.69-2.21-1.17-3.31-1.77-.82.59-1.96.02-1.97-.98-2.12-1.31-12.51-4.92-11.91-7.42-.7-.4-.86-1.39-.45-2.04.38-.61,1.23-.91,1.89-.57,2.53,1.09,5.01,2.27,7.42,3.6.42-.37,1.04-.5,1.57-.25,1.24.63,2.42,1.38,3.66,2,3.32,1.23,6.67,2.39,9.91,3.83.35.15.62.42.78.75,1.59.75,5.5,1.5,3.83,3.96.5.08.96.38,1.21.86.06.12.11.25.14.37.9.44,1.94,1.2,1.76,2.34.44.48.62,1.17.42,1.81-.1.34-.31.64-.57.86,1.74,1.02.51,3.76-1.41,3.15Z"/>
      <path class="cls-1" d="M89.22,113.38c-1.37-.69-2.87-1.01-4.32-1.46,0,0,0,0,0,0-.11-.05-.21-.11-.31-.19-.18-.14-.32-.33-.4-.54-1.34-.53-2.55-2.33-.92-3.29,0-.02,0-.03,0-.05.01-.07.03-.13.05-.2-.1-.09-.19-.19-.28-.29-.25-.29-.4-.65-.41-1.01-1.11-.4-2.06-1.59-1.22-2.71-.27-.32-.39-.78-.32-1.19.02-.1.05-.2.09-.3-.67-.51-2.99-1.1-1.99-2.22.3-.21.68-.09.89.18.5.2.98.42,1.46.66.82-3,4.08.51,5.65,1.08,1.49.41,2.68,1.14,4.07,1.68,1.15.48.88,1.88.35,2.73.09.05.18.1.27.15.52.28.78.91.73,1.49,1.16.65.79,2.54-.49,2.78-.02.04-.03.09-.05.13-.17.37-.49.67-.87.81.39,1.16-.9,2.32-2.01,1.78Z"/>
      <path class="cls-1" d="M89.57,109.15c-1.08-.52-.46-1.79-.11-2.6.8-1.88,1.71-3.69,2.67-5.49.51-2.37,1.75-4.56,2.79-6.73.59-1.13,1.25-3.12,2.74-3.23.43-.84,1.63-2.22,2.15-.66-.23,1.17-1.19,2.13-1.62,3.27-1.55,4.68-3.81,9.02-6.31,13.25-.69.8-.85,2.74-2.3,2.19Z"/>
      <path class="cls-1" d="M90.39,112.24c-1.49-.52-.53-2.24-.29-3.29-1.94-.52,1.6-6.41,2.11-7.64,1.61-3.13,3.1-6.32,4.7-9.46-.01-2.19,1.37-4.32,2.28-6.29.07-.57.49-.91.73-1.41.32-.47.52-1.11,1.09-1.32,1.53-.3,1.2,1.46.6,2.26.14.42-.09.86-.24,1.25-.16,1.23.2,2.54-.22,3.78,1.75.73.32,2.69-.29,3.78-1.05,1.72-1.97,3.53-2.91,5.32-1.99,3.56-3.12,7.7-5.5,10.99-.41.88-.76,2.42-2.05,2.05Z"/>
      <path class="cls-2" d="M5.15,58.88c.02-.55.48-.94,1.02-.94s.96.5.94,1.02c-.02.55-.48.94-1.02.94s-.96-.5-.94-1.02Z"/>
      <path class="cls-2" d="M37.65,77.7c-7.27-2.34-14.43-5.05-21.17-8.65-4.02-2.07-7.87-4.45-11.59-7.03-.67-.41-.88-1.31-.46-1.98.43-.69,1.38-.88,2.04-.43,1.79-2.06,4.19.83,6.08,1.39-.9-1.43.6-3.38,2.22-2.82.8.27,1.56.63,2.32,1.01-.95-.72-1.6-2.05-.93-3.16-.26-.19-.51-.37-.77-.56,0,0,0,0,0,0-.7-.54-.8-1.67-.18-2.32-.97-.8-2.3-1.35-2.79-2.58-1.11-3.3,1.96-3.64,4.29-2.53,1.31-1.11,3.13-.32,4.27.66.23-.38.61-.64,1.03-.75-.6-.59-1.19-1.2-1.78-1.8-.97-.96-.16-2.77,1.19-2.7.04-1.05,1.33-1.57,2.12-.92,1.49,1.13,2.98,2.24,4.48,3.35,0-.04.02-.07.03-.11.12-.41.39-.73.73-.94,0-.02,0-.04-.01-.05-.07-.32-.04-.66.08-.96-1.2-.81-2.45-1.57-3.6-2.45-.42-.33-.58-.89-.45-1.39-.6-1.16.77-2.33,1.89-1.71,1.94,1.25,3.67,3.01,5.85,3.85,2.65,1.39,5.29,2.8,8.05,3.96.53.36,1.18.2,1.7.63.6.41,1.13,1.05,1.05,1.81.86.71,1.99,1.08,2.99,1.58,1.8-.09,3.37,1.23,4.9,2.02,2.06.83,4.12,1.66,6.19,2.47,2.82,1.05,5.6,2.2,8.41,3.28,1.11.32,1.68,1.71,1.06,2.7.67.44,1.02,1.25.77,2.07-.09.29-.25.56-.47.77,0,.02.02.04.02.06,1.24.54,3.54,1.02,3.06,2.83-.26.88-1.22,1.29-2.06,1-.34.42-.92.59-1.48.45-2.9-.75-5.74-1.74-8.58-2.7,1.34.72,3.95.87,3.67,2.92-.16.99-1.17,1.59-2.13,1.39-.38,2.31-3.26,1.18-4.77.82.14.58-.07,1.19-.43,1.65-.72.95-1.93.48-2.87.23.05.31.01.63-.12.93-.17.37-.45.64-.78.8,1.57.96.9,3.25-.72,3.73-1.85.6-3.61-.75-5.38-1.18-.88,1.89-3.55.56-5.07.22-.16.83-1.1,1.39-1.91,1.12Z"/>
      <path class="cls-2" d="M10.12,62.83c-.49-.08-.92-.43-1.11-.89-.44-.29-.73-.84-.61-1.37.11-.52.23-1.04.35-1.56-.01,0-.02,0-.04,0,0,0-.02,0-.02,0-.11.21-.21.41-.32.61-.31.58-.63,1.17-1.03,1.69.45.76-.43,1.71-1.23,1.33-.61-.32-1.22-.66-1.87-.92-.29.14-.65.15-.93-.04-.1-.07-.21-.13-.32-.19-.82.4-1.77-.49-1.41-1.34.51-1.24,1.09-2.47,1.71-3.66,1.46-2.47,2.61-5.09,3.98-7.61,1.23-2.57,2.44-5.17,3.58-7.8.32-.75.59-1.52,1.06-2.19.66-1.11,2.48-1.03,2.97.19,0,0,.01,0,.02.01.04.03.08.05.12.08,1.55-.99,3.12.58,2.72,2.22.65-.07,1.21.32,1.51.87,2.62.95,2.31,4.58,2.9,6.83,1.76.19,1.7,2.14.71,3.2-.83,1.49-1.55,3.02-2.21,4.59-.72,1.42-.65,3.44-2.09,4.35-1.02.52-2.51.08-2.69-1.15-.33.67-.75,1.28-1.22,1.86-.68.89-2.21.67-2.63-.37-.44.68-1.01,1.44-1.91,1.26ZM19.29,52.06c.1-.2.21-.4.33-.59.03-.05.05-.09.08-.14-.06-.12-.11-.25-.16-.37-.06.21-.11.42-.16.63.02-.06.03-.13.05-.19-.05.22-.09.44-.13.66Z"/>
      <path class="cls-2" d="M31.76,49.04c-1.01-.61-1.98-1.24-2.9-1.97-2.49-.44-4.56-2.06-6.77-3.19-2.44-1.52-5.19-2.76-7.33-4.68-.1.19-.21.37-.31.56-.17.34-.35.67-.51,1.02-.08.6-.63,1.27-.91,1.83-.38.48-1.23.17-1.18-.45.6-1.9,1.51-3.71,2.24-5.58-.27-1.51,1.44-3.18,2.86-2.15,1.7,1.06,3.54,1.86,5.26,2.88,2.76,1.57,5.83,2.62,8.32,4.63.62.33,1.3.8,1.43,1.55.34,1.44-1.46,2.51-2.58,1.55.03.04.06.09.09.14.05.09.08.18.11.28.99.77,2.01,1.49,3.06,2.18.38.25.51.75.27,1.14-.24.39-.76.5-1.14.27Z"/>
      <path class="cls-2" d="M59.85,87.65c-8.31-3.01-15.82-7.79-23.64-11.84-.77-.41-1.61-.72-2.26-1.31-1-1.23.32-2.06,1.59-1.45,1.1-.74,2.25.56,3.26.97,2.79,1.04,5.65,2.32,8.61,2.77.26-.01.46-.16.66-.32.41-.31,1.02-.17,1.3.23.64,1-.68,1.77-1.55,1.9,2.23,1.04,4.52,1.95,6.81,2.86,1.09.61,3.35.81,3.08,2.46,1.3.74,4.25.76,3.84,2.82-.21.71-1,1.12-1.7.91Z"/>
      <path class="cls-2" d="M81.95,98.41c-6.7-2.4-13.45-5.06-19.66-8.64-1.35-.78-2.64-1.65-3.99-2.42-.42-.19-.8-.5-.96-.91-1.36-.75-2.7-1.52-4.04-2.3.25,1-.95,1.83-1.81,1.27-2.2-1.3-4.4-2.61-6.67-3.8.04.02.08.04.12.07-3.03-1.62-6.01-3.09-8.63-5.28-.48-.61,0-1.62.79-1.56.61.03,1.07.52,1.55.86,1.53-1.95,7.2,2.17,9.07,2.97-.17-.34-.15-.78.05-1.1.25-.4.77-.62,1.23-.5-1.54-.86-1.47-3.05.53-2.95,2.43.72,4.31,2.73,6.6,3.82,1.73-2.07,4.48.37,6.23,1.28,1.81,1.01,3.62,1.99,5.43,3,2.24,1.2,4.5,2.4,6.7,3.57-.07-.04-.13-.07-.2-.11,2.66,1.32,5.28,2.76,8.01,3.95,1.06.43,2.39.64,3.06,1.66,1.06,1.42-.62,3.45-2.21,2.67-.4-.2-.82-.38-1.23-.57-.03.01-.06.03-.09.04-.34.12-.67.11-1,.02,0,0,0,0,0,0-.21-.08-.41-.15-.62-.22,0,.07,0,.15-.01.22.76.37,1.5.76,2.23,1.17.49.02.92.3,1.19.71.04.02.08.03.12.05h0c.68.34,1.07,1.09.84,1.85-.23.74-1.08,1.28-1.85,1.04-.24.09-.51.14-.76.13Z"/>
      <path class="cls-2" d="M89.12,97.2c-1.19-.29-1.97-1.27-2.74-2.15-.9,1.35-2.46.65-3.54-.07-1.94,1.36-3.95-2.31-5.35-3.33-4.32-3.33-9.14-6.11-12.79-10.26-1.29-1.56-4.33-4.44-1.68-6.06,2.24-.96,4,1.68,5.59,2.89-1.21-1.72-.93-3.75,1.51-3.72.27-1.24,1.74-1.77,2.85-1.28,1.65.91,2.68,2.66,4.07,3.92,1.7.57,2.8,2.22,4.08,3.4,2.2,2.18,4.39,4.37,6.57,6.58,2.03-.34,2.72,2.52,3.8,3.78.59.77.48,1.97-.36,2.52,1.22,1.84.48,4.27-1.99,3.78Z"/>
      <path class="cls-2" d="M88.45,83.77c-10.74-4.38-20.63-10.61-31.51-14.69.56.43,1.12.85,1.69,1.28.36.27-.08.79-.43.53-1.15-.92-2.46-1.65-3.54-2.62-.2-.31.04-.77.43-.69,4.4,1.08,8.48,3.19,12.65,4.91-1.08-.98-6.3-3.47-5.27-5.05.27-.43.85-.62,1.31-.4,2.79,1.48,5.18,3.63,8.11,4.86-2.01-1.26-3.97-2.58-5.85-4.02-.73-.56-.87-1.69-.35-2.44-.15-.21-.27-.45-.33-.73-.07-.33-.06-.67.03-1-1.97-1.51-3.9-3.13-5.52-5.01-.42-.54-.4-1.35-.05-1.91.67-1.11,2.02-.89,3-.36,4.22,2.19,8.16,4.9,12.3,7.23,3.27,1.27,6.62,2.3,9.81,3.74,3.5,1.46,7.11,2.58,10.64,3.96,1.62.87,3.24,1.7,5.04,2.04.91.32,1.88.86,2.17,1.84.51,1.37-.74,2.92-2.19,2.62-2.8-.46-5.29-1.97-7.93-3.03-.02.03-.04.05-.06.08.02.17.01.34-.02.5-.01.07-.03.14-.05.21,1.68.8,3.25,1.79,4.84,2.75,1.45.85,1.2,3.18-.39,3.71-.53.19-1.04.13-1.55-.06-1.77-.67-3.41-1.34-5.14-2,.04.38-.04.78-.25,1.1-.05.07-.1.14-.15.21,1.12.99-.03,2.88-1.43,2.42Z"/>
      <path class="cls-2" d="M89.49,102.28c-2.45-1.02-4.85-2.29-6.93-3.95-.54-.5-1.37-1.06-1.4-1.86-.22-.19-.42-.4-.62-.61-.05-.05-.09-.1-.12-.16-.66-.44-2.73-1.04-1.8-2.07.77-.33,1.64.68,2.42.86,1.22-.08,2.35.86,3.49,1.26-.83-.96-1.63-1.94-2.53-2.84-.34-.36-.35-.93-.04-1.3.38-.47,1.09-.47,1.51-.05,1.99.92,3.58,2.7,5.33,4.04,1.5-4.01,2.98-8.03,4.64-11.99.27-1,.81-2.34,2.08-1.86.31-1.03.6-2.05.97-3.06-.16-.14-.32-.29-.48-.43-1.63-.5-4.59-.5-4.6-2.73-.59-.2-1.01-.78-.89-1.41.92-2.89,5.31,1.24,7.04,1.25-2.72-1.3-5.36-2.74-7.91-4.34-1.09-.66-.3-2.43.92-2.03,3.45,1.13,6.17,4,9.8,4.59,1.41-.87,3.51,1.2,2.1,2.45-.02.07-.03.14-.06.21.79,1.56-.95,3.06-1.44,4.49-2.07,4.02-3.4,8.38-5.83,12.22-.77,1.23-.74,2.71-.99,4.1-.34,1.15-1.31,1.96-2,2.91,0,.16-.02.31-.03.47-.05.44-.42.78-.84.87,0,0,0,0,0,0-.03.87-1.04,1.38-1.79.97Z"/>
      <path class="cls-2" d="M27.63,35.05c-3.17-1.07-6.14-2.78-9.31-3.91-1.04-.21-2.2-1.22-.8-1.94.39-.78,1.16-.47,1.56.1,2.08.93,4.37,1.44,6.41,2.54.93.23,2.06.59,2.66,1.39,1.16.42.69,2.16-.52,1.83Z"/>
      <path class="cls-2" d="M31.99,34.94c-.62-.28-1.06-.89-1.17-1.55-.07.02-.14.04-.21.06-.47.13-1.01,0-1.42-.26-1.1,1.57-3.53.31-3.06-1.51-.5.22-1.12.16-1.58-.12-.25-.15-.44-.36-.58-.6-.26-.02-.51-.1-.74-.24-.04-.03-.09-.06-.12-.09-.08.11-.16.21-.24.32-.36.47-.99.65-1.55.53-.5.87-1.28,1.96-2.42,1.43-.74-.34-1.02-1.19-.72-1.92.42-.95.76-1.94,1.24-2.86-2.74-.83,1.88-6.01,2.59-7.48,1.82-2.89,3.64-5.78,5.75-8.48.31-.4.82-.55,1.29-.46.4-.62,1.22-.86,1.89-.56.09.04.18.09.26.15.62-.63,1.68-.7,2.37-.16,1.03-1.26,3.28-.51,3.32,1.1.49-.51,1.27-.68,1.94-.45.83-1.14,1.55-3.07,3.27-2.75,1.25.19,1.91,1.57,1.7,2.73-1.83,5.53-4.72,10.63-6.77,16.09.42.67.45,1.56.02,2.28-.81,1.34-1.62,2.69-2.49,3.99-.56.85-1.64,1.2-2.56.78Z"/>
      <path class="cls-2" d="M38.98,40.47c-.11-.05-.22-.1-.32-.15-.57.18-1.18.11-1.67-.3-.22-.18-.38-.4-.48-.63-3.21-.69-5.68-2.95-8.5-4.51-1.21-.59-3.48-1.29-2.36-3.03-.43-1.63,3.09-1.82,2.61-.1,1.38.59,2.74,1.25,4.09,1.88.05,0,.09-.01.14-.02,1.36-3.29,3.32-6.31,4.76-9.55,1.32-2.72,2.65-5.42,4.28-7.96.23-.36.56-.64.94-.81.62-1.82,3.25-2.18,4.02-.28.24-.32.49-.63.75-.93.61-.71,1.56-.86,2.33-.48.5-.51,1.22-.76,1.94-.6.47-.57.56-1.37,1.18-1.82,1.39-1.34,3.85-.1,3.59,1.8.18,1.19-.73,2.11-1.5,2.89-.61,1.15-1.23,2.28-1.88,3.41-1.4,1.72-1.11,4.98-3.51,5.73-2.24,4.76-4.99,9.28-6.91,14.18.15.96-.69,1.92-1.65,1.92-.64,0-1.28-.37-1.85-.63Z"/>
      <path class="cls-2" d="M24.37,20.53s.01-.09.02-.14c-2.94-.72-.12-5.11.5-6.83,1.52-3.03,3.13-6,4.61-9.06-.93-2.18,1.85-3.44,3.34-1.95,1.14,1.28-.26,2.86-.81,4.1.23.62-.16,1.17-.53,1.63-1.95,3.8-3.6,7.77-5.65,11.51.43.43,0,.95-.34,1.28-.45.43-1.23.09-1.14-.55Z"/>
      <path class="cls-2" d="M50.81,17.98c-.85-.4-1.73-.77-2.6-1.12-1.86,1.66-3.91-.87-5.67-1.57-.75.99-2.28,1.06-3.15.17-1.57,1.27-2.97-.53-4.25-1.31-1.22.87-2.52-.03-3.58-.68-1.32.92-2.6-.22-3.43-1.14-1.43-1.09-1.23-3.61.56-4.19-.74-1.06-.28-2.68,1-3.04,0-.52.19-1.03.54-1.4-1.83-.94-1.19-3.64.86-3.69,1.59,0,2.81,1.29,4.2,1.93,1.69.78,3.41,1.49,5.12,2.22,2.4.92,4.84,2.29,7.14,3.04,2.67.85,5.24,1.91,7.68,3.28.67.28,1.34.59,1.69,1.26-.73.59-1.46,1.18-2.2,1.78,0,.39.02.78.03,1.17-.29-.06-.56-.17-.82-.3-.22-.07-.45-.13-.67-.2,0,.1,0,.2-.02.3-.03.2-.11.4-.23.57,1.44,1.46-.38,3.89-2.19,2.91Z"/>
      <path class="cls-3" d="M55.76,130.14c-.53-.22-1.06-.44-1.57-.7-1.69.63-3.42-.96-4.97-1.5-.49.27-1.09.19-1.59-.04-1.39-.65-2.76-1.35-4.13-2.05-.94-.79-6.66-2.49-5.18-3.92-1-.43-.73-1.91.42-1.67.61.16,1.16.48,1.71.78.01-.1.04-.21.09-.31.21-.46.77-.75,1.26-.62-.85-.72-.49-1.99.41-2.46-.18-.55-.15-1.19.07-1.72-.39-.43-.5-1.11-.34-1.66.14-.44.44-.8.82-1.02-1.05-.85-.78-2.69.59-2.97.32-.5.86-.81,1.45-.85.09-.19.21-.36.35-.51-1.17-1-.6-3.09.91-3.35.07-.06.14-.12.22-.17.02-.14.05-.28.1-.41-.6-.48-1.14-1.05-1.67-1.6-.99-1-.41-2.89.97-3.15-.59-.59-.85-1.48-.46-2.26-1.44-.89-1.38-3.2.29-3.76-.57-1.75,1.48-3.33,3.05-2.4,1.18-1.72,3.14-.15,4.24.66,3.11,2.27,6.26,4.43,9.63,6.3.51-.14,1.01-.03,1.47.22,1.52.83,3.05,1.64,4.55,2.52.82.48,1.11,1.58.71,2.42,1.21.88,2.16,2.39.94,3.71,1.23,1.29.47,3.61-1.36,3.71-.33.49-.9.81-1.49.87.05.27.06.55.03.82-.06.6-.3,1.13-.78,1.5.09,1.17-1,2.36-2.21,2.29.05.38,0,.78-.15,1.12-.22.49-.62.84-1.09,1.02,2.21,1.2.8,4.6-1.6,3.74.01.19,0,.39-.07.59-.16.52-.54.9-1.01,1.09.06.29.05.6-.04.87-.17.56-.6.97-1.13,1.15-.01.18-.06.36-.13.52-.27.59-.91.97-1.56.9.74,1.18-.38,2.9-1.76,2.29Z"/>
      <path class="cls-3" d="M73.1,105.82c-3.19-1.49-6.71-2.3-9.55-4.53-2.95-2.17-5.83-4.48-9.03-6.29-1.27-.69-2.67-1.13-3.91-1.87-.84-.54-1.33-1.45-2.09-2.09-.34-.3.04-.81.43-.6,2.46,2.44,5.67,2.36,8.49,4.23.58-.08,1.06.36,1.55.61-.01,0-.02-.01-.04-.02-.01,0-.02-.01-.03-.02,1.59.93,3.2,1.58,4.85,2.34.32-.04.66.02.96.19,2.16,1.24,4.28,2.54,6.52,3.61.96.38,1.84,1.06,2.89,1.13.5-.07,1.03.1,1.38.49.88.85.44,2.48-.78,2.71-.53.18-1.09.41-1.64.11Z"/>
      <path class="cls-3" d="M61.92,133.67c-.4-.14-.55-.53-.84-.79-.14,0-.29-.02-.43-.05-.25-.04-.47-.14-.68-.27-.96.37-1.49-.74-2.2-1.18-.41-.13-.8-.36-1.14-.63-.48-.15-.97-.53-.95-1.08-.92-1.38.89-3.7,2.42-2.94.22-1.03.41-2.4,1.47-2.88,1.55-3.6,3.65-6.87,5.45-10.32.41-.84.74-2,1.79-2.23.29-.83.57-1.66.83-2.51-1.05-1.02.12-2.13.68-3.03.43-.63.77-1.33,1.38-1.82.76-.72,2.1-.3,2.3.73.44-.59,1.31-.88,1.87-.3.79-.49,2.02-.36,2.36.6,1.42,1.33-1.5,3.72-2.01,5.14-1.63,2.27-2.11,5.06-3.83,7.16-1.84,3.93-3.43,7.88-5.23,11.83-.42,1.09-.85,2.19-1.27,3.28.04.99-1.08,1.71-1.96,1.29Z"/>
      <path class="cls-3" d="M75.53,105.84c-1.4-.14-1.11-2.12.25-1.69,1.69-.24,1.3,2.42-.25,1.69Z"/>
      <path class="cls-3" d="M37.86,120.69c.23-2.23-.23-4.6.17-6.87.52-4.12.82-8.09.73-12.21.26-2.32-.77-10.61,1.31-11.47-.78-.84-2.01-1.99-1.05-3.15.42-.51,1.21-.71,1.82-.42.48-.35,1.15-.39,1.66-.07.39.25.77.51,1.15.78.53-.29,1.21-.18,1.65.25,1.93,1.58,4.2,2.43,6.43,3.44.74.46,1.43.98,2.19,1.41,1.02.39,2.01.88,3,1.32,1.44.59.81,2.91-.72,2.69-1.57-.17-3.15-.95-4.51-1.76.04,1.1-1.03,1.95-2.1,1.67.82,1.08-.11,2.73-1.46,2.58.66,1.75,2.24,5.44-.72,5.78.35,1.58.52,3.23,1,4.77.59,1.14-.06,2.72-1.47,2.6.1.52.19,1.04.28,1.57.27,1.18-1.09,2.15-2.11,1.5-1.56-1.13-1.56-3.4-2.14-5.1-.45,3.39-.18,6.89-.81,10.22.25,1.26-.72,2.52-1.93,1.58,0,0-.02,0-.02,0-.77,1.39-2.99.44-2.35-1.09Z"/>
      <path class="cls-3" d="M39.08,93.12c-.15-1.7.11-3.44-.28-5.13-.15-.28-.15-.63.04-.9.02-.43.13-.82-.07-1.2,0,0,0,0,.01,0-.29-1.58,1.53-.96,2.36-.62.77.36,2.04.76,1.5,1.79-.61.9-1.56-.03-2.27-.29-.02,1.33.33,2.62.19,3.96.71.6-.06,1.59-.04,2.36-.12.78-1.29.81-1.45.04Z"/>
      <path d="M17.8,29.73c-2.04-.54.95-4.16,1.32-5.37,2.11-3.95,3.97-8.02,5.68-12.16,1.51-3.72,3-7.45,4.55-11.16.17-.41.62-.63,1.05-.52,1.17.26.45,2.46-.09,3.02-3.23,8.14-6.39,16.34-10.81,23.93.26.73-.51,1.37-.84,1.97-.18.25-.55.39-.86.29Z"/>
      <path d="M56.3,11.67c-6.22-2.17-12.2-4.93-18.2-7.64-2.32-1.17-5.1-1.65-7.19-3.18-.29-.43.17-.9.64-.8.43-.01,1.32-.06,1.07.61h0c6,1.92,11.58,4.7,17.42,6.99,1.26.43,2.59.93,3.84,1.34,1.1.42,2.34.67,3.25,1.44.58.55-.1,1.56-.83,1.23Z"/>
      <path d="M41.89,40.83c-.75-.31-.53-1.36.02-1.75,2.25-3.89,4.01-7.98,6.08-11.95,2.93-5.37,5.64-10.85,8.09-16.46.4-.73,1.66-.28,1.41.58-1.93,5.63-4.74,10.93-7.5,16.14-1.22,1.83-6.42,14.26-8.1,13.44Z"/>
      <path d="M40.57,42.16c-4.48-.51-8.12-3.54-12.22-5.19-3.86-1.91-8.15-2.84-11.96-4.81-.52-.31-.92-1.11-.32-1.54.33-.24.74-.16.99.12.85.55,1.88.82,2.78,1.15,4.3,1.38,8.54,2.95,12.63,4.89,2.66,1.23,5.18,2.84,8.12,3.27,2.19-.61,2.31,2.55,0,2.1Z"/>
      <path d="M103.64,74.17c-16.77-5.7-32.65-13.75-48.97-20.62-8.23-4.04-16.12-8.86-24.5-12.59-4.69-2.03-9.44-3.94-14.17-5.89-.66-.36-1.61-.47-1.92-1.23-.25-.95,1.17-1.37,1.67-.61,6.86,2.79,13.99,4.99,20.64,8.3,4.24,2.07,8.4,4.1,12.46,6.38,9.18,5.06,19.14,8.55,28.59,13.11,5.94,2.66,11.83,5.46,17.98,7.62,2.78,1.03,5.52,2.18,8.32,3.19.44-.06.84.17,1.08.54.54.78-.24,1.94-1.16,1.8Z"/>
      <path d="M8.77,61.28c-.3-.3-.32-.75-.16-1.12.87-1.23,1.64-2.57,2.4-3.89.88-1.44,1.52-3.02,2.33-4.44.3-1.04,1.82-.88,1.72.24-.24.91-.78,1.72-1.15,2.59-1.01,2.06-2.16,4.05-3.34,6.02-.28.69-1.18,1.22-1.8.6Z"/>
      <path d="M25.93,66.7c-1.12-.33-.63-1.59-.23-2.32,1.18-2.56,2.55-5.06,3.76-7.55-3.92-1.3-7.68-2.86-11.54-4.31-.66-.37-4.36-.98-3.08-2.07.38-.18,1.05-.32,1.1.27,3.62,1,7.07,2.37,10.6,3.57,1.18.55,3.05.56,3.83,1.66.51-.01.98.85.45,1.14-1.09,2.88-2.6,5.6-3.61,8.53-.09.64-.58,1.27-1.28,1.07Z"/>
      <path d="M9.01,62.07s.02,0,.03,0c-.01,0-.02,0-.03,0Z"/>
      <path d="M25.06,67.21c-5.21-1.14-10.1-3.44-15.25-4.76-.03-.03-.05-.05-.08-.07-.05-.04-.11-.08-.17-.12-.16-.11-.34-.16-.52-.18-.16-.06-.33-.12-.49-.19-.04-.02-.07-.04-.11-.06-.08-.12-.12-.26-.12-.43.04-.96,1.39-1.58,1.82-.5,5.21,1.51,10.32,3.35,15.38,5.24,0,0-.01,0-.02,0,.65.22.37,1.1-.24,1.1-.06,0-.12,0-.19-.03Z"/>
      <path d="M9,62.07s0,0,0,0c0,0,0,0,.01,0,0,0-.01,0-.02,0Z"/>
      <path d="M9.04,62.08s-.01,0-.02,0c0,0,0,0,.01,0h0s-.02,0-.03,0c-.16-.06-.31-.12-.47-.18-.03-.02-.07-.04-.1-.06.13-.09.31-.11.55,0,.12.07.2.17.25.29-.07-.02-.13-.03-.2-.03Z"/>
      <path d="M8.02,62.45c0-.19,0-.37.01-.56-.1-.07-.15-.23-.07-.33.04-.06.09-.11.15-.16.05-.51.71-.73.8-.13-.03.38-.01.75.06,1.12.09.65-.94.73-.95.07Z"/>
      <path d="M23.06,69.36c-4.93-2.14-10.13-3.87-14.86-6.41-.27-.32.13-.79.48-.62,4.94,2.12,9.88,4.28,14.93,6.09,1.16.42.43,1.55-.56.93Z"/>
      <path d="M24.57,69.92c-.84-.17-.4-1.15-.2-1.68.41-.64.18-1.81,1.02-2.05,1.22.02.48,1.49.23,2.14-.33.53-.26,1.63-1.06,1.6Z"/>
      <path d="M15.58,33.51c-.03-.28-.04-.57-.05-.85,0-.17,0-.33,0-.5-.34-.39.02-1.28.6-1.19,1,.24.55,1.61.75,2.36.12.84-1.21,1.02-1.3.18Z"/>
      <path d="M40.41,43.88c.06-.9.19-2.02.86-2.66.81-.42,1.12.99.57,1.3-.14.46-.21.89-.18,1.36.02.81-1.25.81-1.25,0Z"/>
      <path d="M53.28,20.07c-.41-.34.07-.97.11-1.37-.03-.45.39-.59.51-.2.02.38-.16.74-.26,1.09,0,.22-.04.59-.36.48Z"/>
      <path d="M53.97,23.58c-.06-2.14.18-4.29.38-6.42.11-.58.05-1.91.98-1.53.24.15.3.38.27.65-.21,1.59-.24,3.19-.29,4.79-.05.86,0,1.74-.21,2.59-.07.25-.29.43-.55.43-.3,0-.52-.22-.57-.5Z"/>
      <path d="M45.06,46.11c-.31-.12-.48-.53-.32-.83.77-1.88,1.5-3.77,2.27-5.66,2.32-5.38,4.45-10.92,7.13-16.09.94-.37.6.92.37,1.39-.95,2.48-1.92,4.96-2.95,7.41-1.97,4.38-3.93,8.78-5.63,13.28-.07.39-.49.68-.87.51Z"/>
      <path d="M.61,61.36c-.99-.55.24-1.69.44-2.38.76-1.6,1.43-3.24,2.21-4.83,2.73-5.38,5.14-10.91,8.36-16.02.98-1.44,1.45-3.22,2.42-4.65.26-.21.68-.08.78.25.13.43-.19.85-.33,1.25-1.12,3.04-3.09,5.64-4.63,8.46-1.73,3.08-3.34,6.21-4.88,9.39-1.13,2.19-1.95,4.51-2.89,6.78-.4.6-.51,2.04-1.48,1.75Z"/>
      <path d="M90.97,103.48c-5.18-.45-9.66-3.95-14.42-5.83-9.57-4.19-19.23-8.3-28.54-12.99,0,0,.02.01.03.02,0,0,.02,0,.02.01,0,0,0,0,0,0,0,0,0,0,0,0-8.78-4.17-17.59-8.37-26.42-12.4-6.5-2.79-13-5.75-19.04-9.4-.75-.38-1.48-.79-2.28-1.02-.75-.42.02-1.66.75-1.18,2.63.48,4.8,2.36,7.18,3.49,2.71,1.23,5.25,2.6,7.94,3.76,18.63,7.68,36.4,17.16,54.91,25.08,3.07,1.34,6.19,2.56,9.24,3.95,3.24,1.62,6.51,3.34,10.08,4.1.86-.22,1.85.28,2.11,1.14.3.92-.71,1.77-1.56,1.26,0,0,.02,0,.02,0Z"/>
      <path d="M91.4,102.58c-1.49-.7.21-2.24.57-3.17,2.85-6.01,5.44-12.15,7.9-18.3,1.04-2.6,2.52-5.06,3.15-7.8.04-.18.2-.35.36-.43.7-.36,1.55.52.95,1.14-2.35,7.42-6.1,14.29-9.03,21.49-.95,2.12-1.79,4.27-2.77,6.36-.1.5-.62.88-1.13.71Z"/>
      <path d="M37.11,122.25c.5-6.26.08-12.53.13-18.8.16-6.25.37-12.53.72-18.75,0-.46.66-.67.92-.27.18.27.17.61.18.92.05,9.32-.29,18.64-.47,27.96-.02,3.14.37,6.38.16,9.46-.45.75-1.69.38-1.64-.51Z"/>
      <path d="M76.08,104.65c-12.59-6.32-24.54-13.85-37.34-19.74-.32-.22-.82-.32-.82-.76.06-.28.36-.29.58-.2,9.93,3.67,19.29,8.7,28.53,13.83,3.44,1.83,6.88,3.67,10.35,5.42.94.87-.29,2.19-1.3,1.45Z"/>
      <path d="M63.45,134.39c-.51-.33-.66-.96-.44-1.5.66-1.55,1.41-3.06,2.12-4.58,2.87-6.5,6.17-12.78,9.21-19.19.72-1.53,1.52-3.01,2.27-4.53.12-.26.21-.6.5-.71.74-.18.71.71.47,1.17-3.97,8.99-8.38,17.83-11.81,27.04.36,1.1-1.12,3.09-2.33,2.3Z"/>
      <path d="M64.07,135.97c-1.59-.97-3.35-1.45-5.07-2.16-2.91-1.29-5.75-2.72-8.72-3.85-4.41-1.96-8.71-4.45-12.67-7.1-.11-1.16,1.4-.38,1.95-.15,3.41,1.64,6.69,3.55,10.21,4.97,2.66,1.08,5.26,1.95,7.77,3.27,2.26,1.21,4.8,1.76,6.99,3.09.42.08.76.48.79.92.09.67-.62,1.22-1.25,1.02Z"/>
      <path d="M1.32,76.16c-.25-3.13-.18-6.38-.76-9.53-.2-1.7-.59-3.43-.41-5.15.02-.24.15-.46.37-.6.65-.39,1.31.25,1.22.93.39,4.67,1.51,9.22,1.47,13.93.04,1.04-1.49,1.4-1.89.42Z"/>
      <path d="M37.25,93.81c-7.14-3.44-14.08-7.31-21.38-10.41-3.04-1.34-5.77-3.12-8.71-4.64-1.27-.63-2.56-1.25-3.82-1.87-.54-.33-1.25-.52-1.57-1.09-.14-.28.03-.64.31-.75.35-.15.67.13,1.01.11.29-.35.91-.05.84.4,4.18,1.52,8.05,3.97,12.04,5.85,4.09,1.75,8.21,3.45,12.11,5.62,3.18,1.74,6.61,3.03,9.72,4.86,1.09.48.68,2.23-.56,1.93Z"/>
      <path d="M100.83,89.93c-.59-5.3,1.73-10.39,1.74-15.64-.41-1.68,2.31-1.61,1.8.06.32,3.56-.77,7.1-1.25,10.62-.32,1.68-.31,3.39-.6,5.06-.08.38-.46.64-.83.65-.43,0-.81-.32-.87-.75Z"/>
      <path d="M90.17,113.88c-.23-.18-.29-.55-.1-.78.43-.55.74-1.19,1.1-1.79,3.54-6.59,6.59-13.42,10.15-20.01-.15-.5.61-1.03.91-1.01,1.84.24-.68,3.49-.95,4.44-2.39,4.74-4.98,9.36-7.32,14.12-.82,1.48-1.66,2.97-2.59,4.39-.26.4-.68,1.03-1.2.64Z"/>
      <path d="M90.24,111.79c-.99-.21-.02-2.11-.08-2.85.34-2.12.72-4.23,1.11-6.34.17-.51.19-1.18.66-1.52.43-.26,1,.12.93.62-.05.35-.19.86-.24,1.17-.42,2.9-.82,5.83-1.82,8.59-.09.22-.32.35-.55.32Z"/>
      <path d="M89.71,113.49c-.42-.21-.35-.73-.2-1.09.12-.47.39-1.12.99-.88.84.28-.04,2.3-.8,1.96Z"/>
      <path d="M89.57,113.95c-3.45-1.18-6.77-2.75-10.15-4.16-1.28-.59-2.72-1.09-3.59-2.27-.35-.6.54-.44.86-.41,4.31,1.81,8.54,4.06,13.05,5.36.96.09.79,1.6-.17,1.47Z"/>
      <path class="cls-2" d="M63.04,80.92c-.37-.12-.7-.4-1.02-.62-.06-.03-.11-.07-.17-.1-1.31.13-2.41-.95-3.6-1.37-1.9.8-3.68-1.28-5.23-2.13-1.77-1.18-3.69-2.36-5.47-3.48-.97-.65-2.05-1.14-3-1.81-.28-.22-.38-.6-.21-.92.19-.34.62-.47.97-.29,1.59.85,3.15,1.75,4.75,2.59.02-.06.04-.13.07-.19.12-.22.32-.36.54-.42-.88-.46-.59-1.85.41-1.89.21-3.08,4.68.81,6.06,1.28,2.25,1.26,4.54,2.46,6.81,3.68.82.61,2.24.91,2.47,2.01,1.8.88,1.23,3.06-.81,2.48-.18.12-.38.19-.59.2-.11.93-1.17,1.32-1.97.96Z"/>
      <path class="cls-2" d="M21.93,45.87c-.54-.37-.99-1.08-1.42-1.52-.27-.28-.56-.62-.49-1.03-.72-.49-1.42-1.03-2.14-1.52-.25-.15-.28-.52-.02-.68.1-.06.21-.1.34-.07.91.4,1.66,1.01,2.52,1.48.79.03,3.96,1.5,2.65,2.48.13.76-.84,1.33-1.44.85Z"/>
      <path class="cls-2" d="M2.29,59.68c.07-.38.24-.74.36-1.1,1.5-4.39,3.63-8.82,5.85-12.98.55-.76.74-2.03,1.7-2.34.47-.09.96.26,1.03.74-.97,3.04-3.1,5.75-4.38,8.71-.57,1.08-1.08,2.18-1.57,3.29-.27.48-.37,1.15-.87,1.44-.36.41-1.68,3.88-2.12,2.24Z"/>
      <path class="cls-2" d="M9.3,64.82c-2.69-.87-5.39-2.24-7.32-4.3-.11-.68.64-.64,1.02-.31.36-.29,1.05-.02,1.17.39.6.4,1.32.68,1.8,1.21,1.27.67,2.46,1.47,3.72,2.14.51.26.14,1.08-.39.87Z"/>
      <path class="cls-2" d="M9.08,46.07c-.2-1.17.41-2.34.97-3.36,1.47-2.48,2.59-5.18,4.14-7.6.02-.8.98-.81,1.49-.44.38.22.91.27,1.13.68.27,1.08-.84.96-1.5.64-1.79,3.21-3.73,6.47-5.49,9.7.33.41-.52.79-.74.38Z"/>
      <path class="cls-2" d="M54.15,55.58c-5.28-2.97-10.26-6.47-15.76-9.05-3.06-1.68-5.94-3.57-9.21-4.74-.29-.22-.06-.65.27-.68.26-.04.5.09.73.19,3.4,1.41,6.76,2.88,9.88,4.87,2.52,1.45,5.3,2.39,7.75,3.98,2.33,1.47,4.77,2.78,7.09,4.27.56.49-.05,1.45-.73,1.17Z"/>
      <path class="cls-2" d="M69.56,64.09c-9.19-5.51-18.3-11.15-27.83-16.07-2.96-1.76-5.96-3.68-9.25-4.7-1.89-.67-3.91-1.05-5.7-1.93-.21-.1-.24-.39-.09-.55.36-.32.94-.07,1.37-.04,4.97,1.17,9.79,2.89,14.1,5.66,4.57,2.42,9.27,4.62,13.72,7.27,4.97,2.83,9.68,6.01,14.27,9.42.54.37,0,1.28-.59.93Z"/>
      <path class="cls-2" d="M32.85,43.57c-1.24-.38-2.36-.88-3.59-1.15-.58-.24-1.56-.23-1.8-.9,0-.76.94-.38,1.35-.25.29.08.56.21.86.16,1.38-.11,2.61.16,3.73.93.59.42.14,1.39-.56,1.22Z"/>
      <path class="cls-2" d="M34.77,44.42c-1.66-.61-3.36-1.1-5.01-1.74-.57-.11-1.13-.74-.5-1.19,2.03-.11,4.08,1.24,5.91,2.04.53.27.14,1.12-.41.89Z"/>
      <path class="cls-2" d="M22.42,32.56c-.99-.53-6.89-.75-5.29-2.61,0,0,0,0,0,0,.28-.19.6-.04.78.05.47.22.87.23,1.36.33,1.22.19,2.33.76,3.48,1.19.25.1.4.38.34.64-.07.28-.38.5-.66.41Z"/>
      <path class="cls-2" d="M18.02,30.59c-.32-.16-.3-.65-.01-.84,1.44-1.68,2.37-3.81,4.01-5.3.14-.38.32-.75.53-1.1.29-.53,1.12-.1.83.45-.66,1.4-1.68,2.6-2.47,3.93-.72,1.04-1.4,2.48-2.64,2.93-.08,0-.15-.02-.23-.06Z"/>
      <path class="cls-2" d="M25.65,32.8s0,0,0,0c-1.59-.65-3.08-1.43-4.66-2.06-.38-.03-.64-.4-.56-.76.3-1.02,1.5-.2,2.13,0,.55-.33,1.2-.05,1.76.11.9.31,1.82.53,2.69.91.93.36.39,1.79-.54,1.47-.14.33-.51.45-.82.34Z"/>
      <path class="cls-2" d="M31.16,35.76c-2.48-.55-4.76-1.83-7.2-2.43-1.77-.34-3.59-.71-5.11-1.73-.19-.13-.34-.31-.32-.55.02-.29.32-.5.6-.42,0,0,0,0,0,0,4.2,1.28,8.46,2.13,12.52,3.8.86.32.36,1.67-.5,1.34Z"/>
      <path class="cls-2" d="M70.79,80.73c-3.45-1.65-6.58-3.89-9.61-6.19-.32.28-.83.33-1.18.06-1.24-.98-2.48-1.97-3.71-2.96-.96-.68-1.71-1.6-2.71-2.22-.3-.22-.8-.46-.72-.9-1.22-3.14,2.62-1.68,4.02-.89-.12-.26-.13-.59-.03-.86.08-.2.21-.38.38-.5-.85-1.04.59-2.5,1.65-1.69.41-.24.93-.23,1.33.06.54.39,1.09.76,1.64,1.12.92-1.24,2.35-.03,3.3.54,1.56.59,2.95,1.56,4.39,2.42,1.43,1.02,3.1,1.51,4.05,2.84.47,1.01-.57,2.29-1.66,1.87-.19.6-.8,1.03-1.42,1.09.35.95-.51,1.57-1.28,1.88.72.31.83,1.34.2,1.8.74.44,1.48.88,2.21,1.33.23.14.37.37.34.64-.05.58-.75.73-1.22.53Z"/>
      <path class="cls-2" d="M62.41,89.15c-4.09-1.44-8.27-3.19-11.75-5.77-1.26-.79-2.83-1.32-3.79-2.48-.15-.37.23-.71.58-.54,2.32,1.35,4.87,2.21,7.26,3.43,2.76,1.38,5.62,2.49,8.4,3.81.91.47.26,1.93-.7,1.55Z"/>
      <path class="cls-2" d="M75.13,65.23c-3.69-1.43-7.17-3.32-10.74-5.01-.2.2-.57.02-.51-.26-.77-1.91,7.63,1.91,8.52,2.06.95.58,4.32,1.34,3.84,2.71-.16.43-.69.69-1.12.51Z"/>
      <path class="cls-2" d="M92.83,72.09c-8.82-3.11-17.15-7.34-25.54-11.41-.17.1-.38-.04-.46-.18-.14-.14-.37-.26-.31-.5.11-.51.9-.28,1.24-.21,3.82.65,7.26,2.51,10.73,4.13,5.08,2.09,10.19,4.07,14.98,6.78.83.41.22,1.76-.64,1.39Z"/>
      <path class="cls-2" d="M73.22,63.23c-2.44-1.16-4.89-2.11-7.39-3.11-.49-.24-2.41-.65-1.4-1.36,3.22.57,6.51,1.52,9.42,3.07.83.41.22,1.75-.63,1.39Z"/>
      <path class="cls-2" d="M76.29,65.23c-3.61-2.05-7.73-3.43-11.06-5.87-.26-.46.28-.83.71-.68,3.99,1.11,7.48,3.27,11,5.33.78.42.13,1.64-.65,1.21Z"/>
      <path class="cls-2" d="M101.33,75.21s0,0,0,0c-3.14-1.46-6.5-2.46-9.61-3.97-.85-.18-.99-1.17.05-.99,1.23.35,2.49.32,3.73.59,2.33.67,4.78,1.44,6.83,2.72,1.03.7.11,2.36-.99,1.64Z"/>
      <path class="cls-2" d="M90.32,91.4c-.71-.66-1.04-1.63-1.61-2.41-.61,0-1.01-.53-1.42-.9-1.94-1.81-3.7-3.82-5.82-5.43-1.4-1.14-2.84-2.38-4.35-3.23-.06-.12-.02-.3.09-.38.15-.11.33-.11.51-.07.35-.09.69-.26,1.05-.32.61.02.5.68-.07.75.19.11.38.24.57.36.08.05.16.1.24.15-.64-.58-.12-1.72.75-1.51,1.23.44,1.93,1.78,2.94,2.58.28-.07.58-.03.83.17.2.17.4.33.59.5.5-.68,1.49-.86,2.1-.21.47-.24,1.07-.17,1.46.17.17-.19.39-.32.66-.36.04-.21.14-.4.29-.56-.41-1.47,1.4-2.34,2.34-1.16.05-.03.11-.06.17-.09.38-.17.8-.15,1.17.03.94-.66,1.85.19,2.57.78,1.3.46,1.1,2.51-.27,2.71-.18.17-.41.3-.66.36-.21.5-.7.85-1.27.84.5.64,1.05,1.58.39,2.29,0,.38-.16.76-.48,1.02-.21.17-.49.26-.76.28.02.27-.04.54-.17.78.1.19.18.39.26.6.15.38.14.79-.06,1.13.13,1.05-1.21,1.81-2.04,1.14Z"/>
      <path class="cls-1" d="M99.99,91.42c-.13-.01-.24-.14-.23-.27.2-1.71.43-3.42.78-5.1-.12.39-.27.73-.34,1.11-.03.13-.17.21-.3.19-.14-.03-.21-.17-.19-.3.33-1.06.59-2.11.88-3.17-.1-.61.39-1.29.48-1.88.08-.33.18-.66.34-.95.1-.28.55-.15.48.14-.05.2-.11.41-.12.62-.56,3.13-1.16,6.26-1.52,9.42-.03.12-.14.21-.27.2Z"/>
      <path class="cls-1" d="M16.9,33.65c-.11-.12-.18-.91-.18-1.11-.06-.5.48-.33.69-.12.32.31,1.4.53,1.28,1.03-.34.39-1.03-.4-1.43-.53.03.15.03.33.04.46.1.24-.22.47-.41.28Z"/>
      <path class="cls-1" d="M49.84,28.61c-.25-.1-.14-.39-.05-.57,1.39-2.87,3.04-5.65,4.04-8.68.2-.37.71.01.46.33-.26,1.04-.53,2.13-.68,3.18-.02.14-.13.24-.27.23-.38-.07-.15-.53-.14-.79-.93,2.09-2.11,4.09-3.05,6.17-.05.11-.2.17-.31.12Z"/>
      <path class="cls-1" d="M4.22,75.7c-1.6-.34-1.37-1.46-1.42-2.77-.17-2.17.1-4.35-.22-6.52-.02-.25-.11-.51-.06-.75.08-.22.4-.22.48,0,.23,1.09.22,2.24.34,3.35.41,1.79.23,3.73.52,5.56v-.06c0,.05,0,.09-.02.14,0,.02-.01.03-.02.05,0,.04.01.09.02.13,0,.07.02.13.03.2.17.09.35.15.53.21.3.11.12.59-.18.47Z"/>
      <path class="cls-1" d="M40.37,81.76c-6.29-3.07-12.51-6.38-19.2-8.43-.44-.04-.23-.67.17-.47.78.27,1.57.61,2.35.82,3.87.95,7.33,3.06,10.98,4.6.45.34,7.93,3.41,5.7,3.48Z"/>
      <path class="cls-1" d="M29.26,76.43c-1.53-.8-3.03-1.71-4.68-2.22-1.35-.5-2.76-.75-3.99-1.5-.2-.18,0-.53.24-.43,1.62.96,3.53,1.15,5.27,1.79.37.19,4.8,2.33,3.16,2.36Z"/>
      <path class="cls-1" d="M26.12,75.19c-1.97-1.08-4.16-1.67-6.15-2.71-.12-.06-.16-.22-.1-.34.2-.32.54.04.78.13.53.24,1.07.47,1.62.67.45.12,5.97,1.94,3.85,2.25Z"/>
      <path class="cls-1" d="M25.89,75.44c-1.13-.65-2.27-1.33-3.46-1.85-.12-.05-.25-.13-.27-.27-.98-.36-1.93-.78-2.91-1.15-.1-.04-.17-.15-.16-.26.02-.19.23-.27.39-.2,1.93.69,3.93,1.29,5.74,2.23.36-.09.43.49.06.5.29.27,1.12.38.98.88-.07.13-.24.18-.37.11Z"/>
      <path class="cls-3" d="M43.37,111.22c-.43,0-1.54-1.49-.82-1.65-.34-.61.41-.67.58-.13.15.13.5.66.46.86.02.05.02.11,0,.16.12.23.18.81-.23.75Z"/>
    </g>
  </g>
</svg>