<?xml version="1.0" encoding="UTF-8"?>
<svg id="Layer_2" xmlns="http://www.w3.org/2000/svg" viewBox="0 0 65.11 43.75">
  <defs>
    <style>
      .cls-1 {
        fill: #dfe1ec;
      }

      .cls-2 {
        fill: #937676;
      }

      .cls-3 {
        fill: #75777d;
      }
    </style>
  </defs>
  <g id="Image_xA0_3">
    <path class="cls-2" d="M5.27,42.03c-.29-.1-.57-.24-.8-.44-.96.36-2.21-.04-2.17-1.22-.55-2.56-.56-5.18.28-7.66.1-.54.59-.94,1.13-.97,2.07-.12,1.46,4.91,2.05,6.38.09.06.17.13.25.22.07.08.13.17.17.27,1-.05,2.1-.1,2.99.44.61-.14,1.25.21,1.45.81.2.62-.15,1.35-.79,1.54-1.46.42-3.02,1.1-4.55.63Z"/>
    <path class="cls-2" d="M23.74,43.46c-.69-.07-1.39.06-1.94-.38-4.77.06-9.48-.7-14.24-.9-.49.99-1.74.65-2.63.59-.94-.14-2.02-.17-2.79-.8-.9-.76-.16-2.34.99-2.11.33-.44.89-.66,1.42-.76h.07s-.04-.02-.05-.02c-.46-.09-.83-.43-.99-.84-.69-.06-1.42-.09-2.07-.35.06-.23.11-.47.16-.71.09-.46.16-.93.2-1.4.02-.21-.05-.42-.18-.59.26-.07.55-.07.86.01-.06-.27-.05-.55.04-.82.02-.07.05-.14.09-.2-1.04-.56-.71-2.47.5-2.57.32-.02.61-.05.92-.11,4.15.57,8.57.88,12.73,1.05,3.38-.13,6.75.04,10.11.2,2.58.13,5.16.26,7.75.25.69-.05,1.35.47,1.47,1.16.2,1.32-.99,1.74-2.08,1.79,2.13.24,4.28.48,6.42.53,1.47.07,1.6,2.35.14,2.57-.85.11-1.71.23-2.56.34,1.1-.13,1.64.55,1.62,1.23-.02.66-.55,1.32-1.61,1.25.22.36.22.77.07,1.13-.67.02-1.34.05-2.01.08-.45.02-.89.04-1.33.06-.66-.04-1.32-.07-1.98-.1-.46-.02-.92-.02-1.38,0-.53.03-1.07.03-1.59.16h0c-.14.04-.27.11-.38.21-.18.01-.36.02-.54.04-.36.03-.73.05-1.07.12-.09.02-.18.04-.27.07-1.3-.08-2.59-.15-3.89-.18Z"/>
    <path class="cls-2" d="M48.28,42.92c-2.28.16-4.57.16-6.85.14-.21,0-.43,0-.64,0-.03,0-.05-.02-.08-.02-.46-.12-.96-.09-1.43-.07-.35,0-.7.02-1.05.03-.69.02-1.38.05-2.07.08-.44.02-.89.04-1.33.05-.19-.01-.39-.02-.58-.03-.7-.18-1.17-.63-.8-1.64-.5-.09-.99-.27-1.47-.44-.58-.21-.55-1.11.09-1.21,1.83-.09,3.61-.16,5.41-.43-.02-.08-.03-.16-.04-.24,0-.06,0-.12,0-.19-2.14-.44-4.27-.99-6.38-1.55-.73-.2-1.15-1.05-1.01-1.77.26-1.24,1.44-1.31,2.48-1.1-.81-.28-1.53-.86-1.31-1.84.54-2.38,4.72-.36,6.42-.31,2.73.46,5.47,1.11,8.25,1.02,1.33-.36,2.73-.14,4.1-.12.51.04,1.05-.01,1.6-.06,1-.09,2.02-.17,2.88.27,1,.1,1.94-.29,2.92-.39,1.06-1.43,3.11.03,2.54,1.55.34.69.4,1.46.18,2.21-.03.62-.15,1.25-.58,1.72.05,1.17.3,2.43-.05,3.57-.44.97-1.77,1.25-2.62.66-1.86.1-3.69.27-5.53.58-.52.02-1.18.2-1.78.2-.53,0-1-.14-1.26-.67Z"/>
    <path class="cls-1" d="M40.06,25.28c-.28-.23-.55-.46-.81-.71-.39-.36-.48-.94-.22-1.39-.44-.09-.88-.18-1.32-.27-.97-.17-1.01-1.62-.08-1.87-.46-.2-.78-.69-.8-1.18,0-.16.01-.31.05-.45-1.05-.38-1.77-1.81-.88-2.7,0-.02,0-.04,0-.06-.03-.03-.06-.06-.09-.09-2.19.07-2.61-3.01-.44-3.41.87-1.64,2.93-.81,4.39-.81.3-.25.68-.4,1.09-.41,2.46-.04,4.96,0,7.41.02,2.19.09,4.44-.21,6.59.28.64.04,1.22.33,1.56.87.85.22,1.47,1.03,1.4,1.94,0,.05,0,.1-.02.14,1.05-.01,2.46.15,2.52,1.48.04.72-.48,1.43-1.21,1.54-.79.11-1.59.13-2.38.2,0,.79-.69,1.48-1.54,1.43-.2-.01-.39-.02-.59-.03.03.13.04.27.03.42-.02.26-.11.49-.24.69.63.64.23,1.78-.65,1.94-.48.1-.98.09-1.47.09,1.19,2.58-3.87,1.6-5.26,1.96-2.1.12-4.18.37-6.25.68-.28,0-.55-.07-.79-.27Z"/>
    <path class="cls-1" d="M16.3,32.22c-2.73,0-5.46-.24-8.2-.38-2.37-.25-4.93,0-7.17-.87-.86-.54-.23-1.97.73-1.69,0,0,0,0-.01-.01.4.1.86-.22,1.18.16.01,0,.03,0,.04,0,.23-.68,1.06-.79,1.66-.63,1.69.22,3.37.42,5.06.61-1.17-.51-3.66-.39-3.51-2.14.45-1.59,2.41-.64,3.54-.53.01-.08.03-.16.05-.23-1.23-.31-2.07-1.74-1.28-2.86-.82-.49-1.14-1.63-.63-2.47-.2-.42-.25-.9-.08-1.38.14-.39.4-.72.73-.94,0-.21.02-.43.09-.63.17-.5.6-.93,1.1-1.12.01-.1.04-.19.07-.29.07-.21.18-.4.32-.56-.21-.35-.29-.77-.2-1.2.05-.23.15-.45.28-.64-.53-1.51,1.17-2.79,2.55-2.11.37-.47.95-.77,1.55-.69,1.42.19,2.83.51,4.24.78,3.03-.95,6.2-.84,9.33-.87,2.23,0,4.45-.18,6.67-.41,2.48-.49,5,.35,3.48,3.26,0,.17-.03.34-.07.5.22.35.33.77.3,1.17-.05.58-.35,1.09-.8,1.4-.01.1-.04.2-.07.29.36.27.62.68.7,1.12.09.49-.04,1.03-.35,1.43.34,1.3-.74,2.57-2.02,2.73-.04.25-.13.49-.26.7.57,1,0,2.25-.97,2.73,0,.2-.02.39-.07.58.22.28.36.62.38.97.01.2-.02.4-.07.58.48.27.8.76.75,1.34-.13,2.32-5.88,1.18-7.59,1.38-.17.41-.57.71-1.05.76-3.46.29-6.95.3-10.42.16Z"/>
    <path class="cls-1" d="M5.06,32.03c-.66-.05-1.22-.6-1.24-1.27-.02-.59-.03-1.18-.04-1.77-.02,0-.05-.02-.07-.02-.53,2.08-2.31,1.23-2.39-.49-.58-.28-.67-.97-.51-1.53.21-1.63.43-3.27.46-4.92.1-2.49.44-4.95.74-7.41.05-.98.12-2.62,1.53-2.28.67-.24,1.48.23,1.58.95.94-.16,1.54.75,1.43,1.61.1-.03.2-.05.31-.05.42-.02.82.15,1.1.46.05,0,.1.01.15.02.47.1.88.47,1.02.93.94.03,1.44.98,1.29,1.84.58.18,1.01.71,1.05,1.33.13,2.13.08,4.26.12,6.39.02,1.54.62,4.13-1.84,3.65-.2.1-.42.15-.65.15-.12.56-.61.98-1.2,1.02-.51.03-.99-.26-1.22-.7-.09.95-.43,2.2-1.62,2.1Z"/>
    <path class="cls-1" d="M1.56,25.19c-.71-2.27-.98-4.71-1.09-7.09-.05-1.54.43-3.13.09-4.63-.42-.68-.33-1.67.46-2.03.54-.24,1.14-.56,1.73-.23.33-.14.71-.17,1.06-.18.69-.01,1.37.15,2.05.25.46-.46,1.16-.29,1.74-.23,1.16,0,2.34,0,3.5.09,1.32-.11,2.67.1,3.96.28,1.91,0,3.5.03,5.34.08,0,0-.01,0-.02,0-.02,0-.03,0-.05,0,1.15.09,2.25-.22,3.28.3.54.36.78,1.15.45,1.73-.41.86-1.5.85-2.32.73-1.71.23-3.51-.04-5.15.1.61,1.33-.88,1.9-1.96,1.76.87.85-.13,2.41-1.27,1.96-.48-.18-.96-.35-1.46-.47-.98,1.54-3-.38-4.21-.48-.69-.13-1.44-.55-1.38-1.35-.99-.55-1.91-1.32-2.97-1.7.03,2.96-.28,5.92.02,8.89,0,.59-.03,1.17.01,1.76-.02.93-1.39,1.28-1.85.47Z"/>
    <path class="cls-1" d="M44.08,32.43c-3.63-.06-7.27-.02-10.89-.06-1.48-.01-5.19.4-4.02-2.13-.96-1.07.21-2.04,1.38-1.78-1.13-.55-.99-1.73.24-2.03.01-.31.23-.58.52-.67-1.32-.3-1.54-2.22-.29-2.76-.54-2.21,1.69-2.39,3.28-2,1.12-1.83,3.49-.36,5.17-.36,3.02.33,6.05.5,9.08.62,1.2-1.5,3.51-.49,5.17-.6,1.93.34,4.94-.47,5.68,1.96,2.4.88,1.52,4.35-1.05,3.84.67.44.85,1.33.51,2.03,1.59.29,2.03,2.48.3,2.9-1.23.22-2.48.27-3.73.31-.25.36-.67.63-1.11.63-3.43.03-6.85.24-10.23.12ZM32.63,27.06c.31.02.61.03.92.04-.03-.12-.04-.24-.03-.36,0-.09.02-.18.05-.26-.48-.12-.95-.27-1.42-.42.07.11.12.24.13.38.01.19,0,.41-.06.59.14,0,.27.02.41.03Z"/>
    <path class="cls-1" d="M60.98,16.09c-.99-.23-1.98-.43-2.97-.64-1.18-.24-2.37-.5-3.56-.7-.63.56-1.69.06-2.44-.04-.45-.14-.59-.64-.43-1.04.28-.64,1.07-.63,1.67-.66.16-2.35,2.92-.56,4.26-.48.78-.35,1.98-.69,2.4.29.8.14,1.66,0,2.41.33,1.02.45,1.01,2.06,0,2.5-.29.48-.95.61-1.46.41l.13.04Z"/>
    <path class="cls-1" d="M54.51,30.27c-.03-.51.39-1.03.93-1.03s1,.37,1.03.93c.03.51-.39,1.03-.93,1.03s-1-.37-1.03-.93Z"/>
    <path class="cls-1" d="M58.85,33.33c-1.62-.58-3.49-.1-5.03-.8-.64-.33-.63-1.3.07-1.56.16-.82,1.35-1.01,1.54-.12.06,0,.11,0,.17,0,.57,0,1.14.02,1.71.04,0-.3.1-.59.31-.81.05-.75.1-1.51.21-2.24-1.61.42-2.16-1.34-2.52-2.55-2.25.76-2.17-2.78-2.41-4.2,0-.99-.38-2.02-.07-2.98.26-.82,1.4-1.12,2.01-.5.06-.02.12-.03.18-.04.29-.06.61.01.87.18.27-1.04.41-2.14.9-3.11,1.02-1.77,3.12-.1,3.02,1.48.14-.21.32-.39.55-.51.12-.06.25-.09.38-.11.53-1.77,2.66-1.03,2.85.54-.3,2.48-1.22,4.91-1.77,7.35-.27,2.46-.14,4.98-.22,7.41.22.9-.29,1.86-1.24,2.02-.33.49-.93.76-1.51.53Z"/>
    <path class="cls-3" d="M26.83,11.57c-2.68-.46-5.41-.45-8.14-.68-.6-.05-1.09-.54-1.12-1.14-.02-2.54,6.43-.97,8.19-1.5.06-1.49,3.23-.65,4.25-.75,2.55.2,5.08.48,7.63.19,1.5-.1,3.01-.23,4.5-.39.94-.21,2.18-.02,2.24,1.15.04,1.02-.89,1.41-1.77,1.41-.16.37-.55.64-.98.6-.06,0-.12-.01-.18-.02-.2,1.37-1.85,1.06-2.86,1.11-1.45.03-3.15.02-4.51-.04-2.43-.23-4.84.25-7.27.06Z"/>
    <path class="cls-3" d="M23.18,11.55c-2.04-.06-4.16-.11-6.12-.12-4.09.02-8.05-.18-12.08-.4-.28,0-.54-.12-.71-.32-.28-.01-.56-.02-.84-.05-.31,1.28-2.11,1.03-2.54-.03-.21-.46-.05-.99.15-1.42-.08-.85-.13-1.74.18-2.55.66-.85-.29-1.88.24-2.78-.45-.91.43-1.87,1.33-1.71,4.46-.02,9.02.9,13.44.81.93-.16,2.03.36,1.82,1.45-.41,2.6-11.49.05-13.87.18-.06.14-.15.25-.25.36.27,1.19-.04,1.95-.6,2.93.18-.13.42-.16.62-.15,4.84-.33,9.67.55,14.5.68,1.76.34,3.63-.5,5.3.07,1.04,0,2.07-.09,3.11-.05,1.35.05,1.47,2.16.13,2.36-.65.1-1.3.15-1.96.21-.38.65-1.2.58-1.84.54Z"/>
    <path class="cls-3" d="M10.34,10.41c-2.95-.25-5.76-1.16-8.61-1.8-1.76-.53-1.44-2.51.11-3.09-.23-.6.02-1.29.54-1.65-.35-.11-.65-.33-1.01-.42-.57-.27-.45-1.09.06-1.35,1.35-.44,2.81.23,4.19.34,1.55.19,3.09.21,4.65.09.71-.43,1.92-.39,2.61-.38,3.21.03,6.56.27,9.72.36.43-.03.89.06,1.2.35,1.31.09,3.87-.24,3.53,1.8h0c2.77.09,5.53-.08,8.29-.36,0,0,0,0,0,0,.36,0,.71.11.98.32,1.42.1,4.19-.61,4.22,1.54.74.11,1.62.03,2.14.65.89.96.04,2.71-1.29,2.55-3.56-.5-7.15-.78-10.74-1.11-.08.36-.27.69-.55.93-.3.26-.65.38-1.02.4,0,0,0,0,0,0-4.31.22-8.62.24-12.94.14-.55.66-1.46.64-2.23.46-.91-.1-1.82-.16-2.73-.21-.29.29-.71.47-1.12.41Z"/>
    <path class="cls-3" d="M24.53,4.32c-.03-.51.39-1.03.93-1.03s1,.37,1.03.93c.03.51-.39,1.03-.93,1.03s-1-.37-1.03-.93Z"/>
    <path class="cls-3" d="M54.24,12.28c-4.65-.46-9.54.06-14.13-.69-.67-.03-1.27-.29-1.91-.39-1.23-.02-1.9-1.68-1.07-2.55-1.19-2.57,2.02-2.53,3.69-2.5-1.14-.2-2.31.03-3.44-.28-.24,0-.47,0-.59,0-3.27.05-6.45-.65-9.71-.43-1.07-.12-2.8.73-3.37-.52-.36-.45-.62-1.28.14-1.47.65-1.09,2.26-.62,3.33-.67,1.89.15,4.04-.03,5.88.03,3.39-.11,6.72.61,10.1.66,1.22.22,2.94-.35,3.77.78.1.01.19.03.29.04.48-.81,1.51-.86,2.33-.62,1.15.16,2.35.28,3.49.34,1.82.28,4.55-.86,5.26,1.38,1.37.08,2.23,1.7,1.52,2.88,1.02.59,1.02,2.16.03,2.78-1.08.54-2.73.15-3.97.31-.29.6-.96,1.01-1.63.94Z"/>
    <path class="cls-3" d="M60.03,11.89c-1.51-.23-6.15.62-6.26-1.52.13-1.25,1.55-.98,2.44-.9,1.08.13,2.16-.11,3.24-.04-.97-.45-1.99-.65-2.52-1.6-.31-.67.05-1.47.74-1.72,0-.06,0-.12.01-.18-2.42-.42-4.84-.81-7.26-1.18-.47.17-.95-.14-1.26-.48h0c-.29-.27-.38-.71-.14-1.07.49-.67,1.37-.21,2.04-.17,1.46.21,3.1.33,4.54.28,2.22.07,4.45.49,6.63.04,1.21.18,2.68,1.42,1.69,2.67.17.87-.22,2.31-.31,3.27.73,3.05-1.46,2.47-3.58,2.62Z"/>
    <path class="cls-3" d="M43.66,25.2c-.28-.08-.55-.25-.67-.52-.06-.13-.08-.27-.07-.41-.44-.76-.75-1.87.04-2.52-.72-.9.26-1.89,1.21-1.35,0,0,0,0,0,0,1.67-.28,5.04-1.48,5.31,1.09.32.13.57.41.64.76.08.42-.12.81-.45,1.03,0,0,0,0,0,0-.01,2.75-3.36,1.15-5.02,1.72-.24.3-.65.32-.99.2Z"/>
    <path class="cls-3" d="M16.33,23.31c-.93-.17-2.68.32-3.32-.41-.22-.21-.32-.5-.22-.8,0-.02.01-.03.02-.05-.22-.35-.37-.75-.27-1.14.05-.2.14-.38.27-.53-.5-.39-.56-1.17-.13-1.65,1.16-.92,2.85-.41,4.23-.65.89-.73,2.15.04,2.26,1.1.32.76-.2,1.46-.03,2.22.61.5.51,1.52-.16,1.92-.81.52-1.78.14-2.65-.02Z"/>
    <path class="cls-2" d="M13.61,15.27c-1.23-.16-.98-1.66-.91-2.54.08-.62-.07-1.38.41-1.85.21-1.65.18-3.32.2-4.98.02-.3.18-.56.42-.73-.15-.36-.25-.72-.38-1.02-1-.6-.38-2.29.78-2.04.86-.3,1.81-.19,2.69-.4.43-.12.85-.25,1.3-.08.8.28.92,1.2.83,1.94-.16,1.05.23,2.08.07,3.14-.09,2.18-.34,4.46-.22,6.62.23,1.77-2.27,1.84-3.47,1.53.02,0,.03,0,.05.01-.36.18-.74.3-1.14.24-.18.12-.4.18-.62.17Z"/>
    <path class="cls-2" d="M46.76,15.64c-.45,0-.89-.15-1.35-.15-.87.41-1.26-.57-1.28-1.29.16-1.88-.06-3.84-.23-5.73-.09-1.43-.4-2.89-.44-4.29-.28-.93-.12-1.86.39-2.66.3-.62,1.02-.82,1.65-.86.7-.12,1.59-.29,2.26-.28.76-.02,1.99-.02,2.45.67.17.27.2.57.21.88-.11,2.03-.36,4.06-.44,6.1.08,1.58-.06,3.15.02,4.72-.04.46.25.85.14,1.31-.23.92-1.29,1.31-2.15,1.39-.32.31-.84.38-1.24.19Z"/>
    <path d="M12.79,14.04c-.14-.01-.29-.02-.43-.04,0-1.43.15-2.87.22-4.3.16-2.71.5-5.45.28-8.16-.07-.27.13-.55.41-.58,1.51-.25.29,9.97.14,13.13-.21-.02-.41-.04-.62-.05Z"/>
    <path d="M13.46,2.17c-1.28-1.48,2.56-1.11,3.3-1.44.81-.02,2.21-.93,2.62.14.08.35-.14.76-.51.82-1.78.28-3.63.68-5.41.48Z"/>
    <path d="M17.91,14.37c.1-1.8.34-3.6.31-5.41.24-2.73.07-5.55.45-8.23.54-.84,1.82-.04,1.2.78.05,4.32-.16,8.66-.63,12.97-.44-.05-.88-.08-1.32-.11Z"/>
    <path d="M43.49,14.76c.25-4.44-.68-8.91-.11-13.36.02-.56.7-.98.99-.36.09.47-.1,1.06.04,1.5.05.12.14.18.23.26.22.17,0,.53-.25.42.09,2.86.23,5.68.47,8.52.03,1.1-.05,2.26-.23,3.33-.4.02-.79.04-1.19.07-.02-.13,0-.27.05-.39Z"/>
    <path d="M44.43,1.93c-.41-.17-.3-.44-.29-.75-.16-.12-.24-.34-.22-.54t0,0s0,0,0,0c.09-.55.68-.49,1.09-.38,1.63.25,3.28.48,4.82-.22.64-.25,1.08.72.46,1.03-1.63.98-3.51.74-5.28.38,0,.31-.29.59-.6.49Z"/>
    <path d="M49.36,15.04c-.18-3.83-.17-7.68.08-11.52.23-.71-.5-3.37.74-2.95.45.34.43,1.02.47,1.53,0,2.77-.08,5.53-.12,8.3-.05,1.55.17,3.12.03,4.68-.4-.02-.8-.03-1.2-.04Z"/>
    <path d="M8.85,11.8c-2.56-.16-5.19.07-7.7-.42-.2.32-.74.15-.55-.25.18-.34.44-.59.85-.54,3.25.12,6.63.17,9.82-.13.67.04,2-.34,2.18.54,0,.21-.16.4-.37.45-1.47.07-2.78.44-4.23.35Z"/>
    <path d="M28.61,12.35c-3.02-.23-6.09.11-9.09-.27-.93,0-.22-1.08.43-.95,4.55-.25,9.1-.06,13.63-.44,3.47.08,6.94.24,10.39-.27.96.05.83,1.53-.13,1.38-.23-.02-.47,0-.61,0-4.88.39-9.76.13-14.62.55Z"/>
    <path d="M63.44,12.94c-2.81-.24-5.62.24-8.41-.35-1.56-.34-3.23-.11-4.61-.72-.49-.5.07-1.29.72-1.13,1.79.14,3.76.34,5.48.54,1.38.49,8.16-.9,7.7,1.06-.09.4-.49.65-.88.59Z"/>
    <path d="M.56,11.71c-.39-.05-.62-.54-.42-.88.09-2.06.1-4.17.36-6.21.09-1.11.17-2.22.19-3.34-.03-.32.29-.61.61-.52.19.05.29.22.33.39.13,2-.14,4.01-.24,6.01-.21.9.44,4.71-.82,4.54Z"/>
    <path d="M12.38,2.39c-3.54-.09-7.17-.15-10.67-.62-.44-.14-.26-.83.2-.73.25.08.56.1.84.13,3.34.12,6.74.43,10.04.18.85.19.34,1.36-.41,1.04Z"/>
    <path d="M43.32,3.35c-4.96-.08-9.88-.59-14.85-.64-2.85-.02-5.71.26-8.53-.26-.27.09-.58-.04-.71-.3-.43-.45.17-1.19.7-.87,3.04.43,6.13.15,9.2.29,3.65.1,7.31.38,10.94.64,1.12,0,2.25-.1,3.37-.04.29.05.51.31.5.61-.01.32-.29.59-.61.57Z"/>
    <path d="M64.22,4.46c-1.71-.55-3.49-.28-5.25-.4-2.69-.36-5.49-.06-8.15-.55-.66.64-1.55-.49-.77-.98.47-.33,1.14-.16,1.62-.11,4.26.08,8.58.13,12.8.59,1.02.11.76,1.67-.25,1.45Z"/>
    <path d="M63,11.92c-.22-.4.12-.82.1-1.23.06-1.66.12-3.32.24-4.98.21-.72-.21-2.2.86-2.24.89.15.48,1.24.47,1.86-.18,2.08-.08,4.24-.12,6.31-.11.79-1.21,1.03-1.55.27Z"/>
    <path d="M.49,31.28c-.34-.04-.54-.36-.48-.68.33-3.31,0-6.59.02-9.9.02-2.89-.06-5.76.07-8.64,0-.29.04-.58,0-.87-.03-.57.79-.83,1.08-.32.28,5.39.03,10.93-.02,16.34-.2.88.51,4.08-.67,4.06Z"/>
    <path d="M59.68,33.87c-1.93.19-3.85-.12-5.77-.09-2.83.19-5.71-.02-8.5-.23-2.29.08-4.57-.16-6.84-.32-2.9.07-5.76-.02-8.63-.29-2.79-.14-5.51,0-8.29-.11-1.61.11-3.29.25-4.85-.14-2.76-.44-5.62.29-8.34-.37-2.27-.35-4.57-.31-6.83-.39-.26-.02-.55-.04-.67-.31-.09-.19-.01-.53.22-.56,2.84-.14,5.75-.18,8.57.24,3,.27,6.08-.19,9.05.39,3.55-.26,7.1-.19,10.65-.14,5.4.43,10.8.53,16.2.52,3.86.31,7.71-.06,11.57.21,1.12.04,2.15-.34,3.25-.14.97-.58,1.95.85,1.03,1.53-.52.39-1.2.29-1.8.21Z"/>
    <path d="M61.35,32.71c-.21-.5-.34-1.15-.11-1.66.06-.64-.07-1.28.03-1.93.85-5.5,1.17-11.04,1.8-16.56-.34-.69.9-1.23,1.17-.49-.03,4.44-.74,8.89-1.16,13.33-.06,1.88-.73,3.7-.65,5.57-.21.55.15,1.07.02,1.6-.17.47-.82.54-1.11.14Z"/>
    <path d="M15.95,15.41c-.67-.1-4.72.22-3.39-1.15.29-.11.66.09.92.07,1.74.04,3.48.02,5.19-.23.32.03.55.3.57.61-.04,1.19-2.46.58-3.29.71Z"/>
    <path d="M43.67,15.72c-.21-.35.14-.78.52-.71.66-.03,1.28-.16,1.94-.18,1.29-.06,2.48-.08,3.72.18.44.17.47.84.02,1.01-1.79,0-3.62-.31-5.43-.01-.27.21-.69.04-.76-.29Z"/>
    <path d="M12.79,23.57c-.6-.64-.28-1.71-.38-2.51.14-1-.21-2.26.39-3.11.41-.34,1.05.1.88.6-.03,1.19-.06,2.37.06,3.56.62.56-.1,2.07-.94,1.46Z"/>
    <path d="M15.26,18.76c-.61-.05-1.3,0-1.87-.27-.37-.28-.06-.9.39-.75,1.78.26,3.4-.26,5.14-.37.26-.01.49.08.61.33.18.36-.17.8-.55.73-1.24.1-2.47.35-3.72.33Z"/>
    <path d="M18.22,21.89c-.19-1.37-.25-2.87-.01-4.23.24-.49,1-.49,1.25-.01.31.97.07,2.07.22,3.08.02.38.06.75.05,1.12-.07.86-1.39.9-1.51.04Z"/>
    <path d="M13.53,23.86c-.51-.27-.11-.87.29-1,1.6-.27,3.29.2,4.82-.4.17-.48.8-.34,1.15-.16,1.3,1.83-4.83,1.21-5.67,1.28-.03.28-.38.43-.62.26l.02.02Z"/>
    <path d="M42.39,25.05c-.33-.24-.29-.67-.23-1.03.13-1.18.18-2.32.23-3.44.03-.22.27-.38.49-.32.32.07.36.43.37.71.03.98-.05,1.97-.01,2.95.83.49-.13,1.68-.84,1.13Z"/>
    <path d="M42.82,20.48c-.25-.31.05-.77.43-.7.87-.05,1.76-.23,2.63-.29,1.06-.13,2.03-.16,3.09-.12.29,0,.53.21.54.51,0,.27-.22.55-.51.54-1.89-.12-3.77.04-5.62.24-.2.01-.42,0-.55-.17Z"/>
    <path d="M48.86,24.13c-.53-1.19.14-2.6-.04-3.82-.1-.34.16-.69.5-.7,1.39.19.5,2.18.76,3.12.03.41.23.78.12,1.19-.15.62-1.02.77-1.35.21Z"/>
    <path d="M44.96,25.55c-.76-.08-1.7.14-2.33-.36-.5-.57.52-1.29.9-.66,1.81.11,3.5-.2,5.27-.32.53,0,.88.71.42,1.06-1.37.29-2.84.24-4.26.29Z"/>
    <path d="M1.41,42.19c-.4-1.83-.02-3.81-.19-5.7.09-.99-.39-5.02.88-5.04.42-.12.75.44.43.75-.27,3.22.18,6.44,0,9.67.02.6-.83.85-1.13.32Z"/>
    <path d="M52.15,43.73c-12.07-.58-24.24.54-36.27-.54-1.67-.15-3.43.03-5.09-.06-2.76-.27-5.4.16-8.14-.05-1.32.99-2.18-1.48-.54-1.62,10.73.08,21.41,1.14,32.13.93,6.35-.04,12.75-.13,19.07-.07,1.62-.14,3.37-.23,4.98.04.33.02.73.12.73.53-.03.66-.8.5-1.24.43-1.27-.03-2.6.09-3.86.09-.56.26-1.15.4-1.78.33Z"/>
    <path d="M59.18,43.18c-.7.08-.91-.93-.26-1.18.38-2.11.29-4.28.44-6.42.16-.76-.12-1.77.41-2.39.43-.41,1.13.17.78.66-.26,2.82.19,5.8-.55,8.51.25.52-.28,1.14-.81.82Z"/>
    <path class="cls-3" d="M2.05,2.88c-.24-.01-.43-.22-.42-.46,0-.04,0-.08,0-.12,0,.02,0,.04,0,.05-.09-.52.65-.78.85-.27.1.33-.02.81-.44.79Z"/>
    <path class="cls-3" d="M11.28,3.16c-2.98-.16-6.02-.17-8.96-.71-1.02,1-1.41-1.42-.04-.96,2.28.47,4.61.76,6.91.83.73.01,1.45.04,2.18.07.19.02.32.21.32.39-.01.21-.2.37-.4.37Z"/>
    <path class="cls-3" d="M1.11,10.55c-.3-.94.06-1.97.08-2.92-.03-1.81-.23-3.76.38-5.48,2.08-1.2.2,6.84.34,7.87.09.49-.4,1-.8.53Z"/>
    <path class="cls-3" d="M42.77,4.24c-4.11-.04-8.23-.53-12.33-.64-3.3-.13-6.59-.09-9.88-.25-.76.25-.89-1.01-.08-.91,3.93.13,7.88.28,11.82.26,3.41.01,6.81.66,10.21.52.96-.62,1.37,1.12.26,1.02Z"/>
  </g>
</svg>