<?xml version="1.0" encoding="UTF-8"?>
<svg id="Layer_2" xmlns="http://www.w3.org/2000/svg" viewBox="0 0 187.69 181.21">
  <defs>
    <style>
      .cls-1 {
        fill: #c2c2ce;
      }

      .cls-2 {
        fill: #c5c5cd;
      }

      .cls-3 {
        fill: #dbd5db;
      }

      .cls-4 {
        fill: #666774;
      }

      .cls-5 {
        fill: #967575;
      }

      .cls-6 {
        fill: #525767;
      }

      .cls-7 {
        fill: #dfdbdc;
      }

      .cls-8 {
        fill: #9497a4;
      }
    </style>
  </defs>
  <g id="Image_xA0_5">
    <g>
      <path class="cls-2" d="M47,109.86c-.65-.96-1.3-1.91-1.94-2.87-.34,1.05-2.22-2.15-2.55-2.54-.45,2.05-5.61-8.47-6.12-9.22-1.63-2.85-3.44-5.59-4.89-8.54-.05-.11,0-.25.1-.32.1-.06.25-.04.32.06,1.2,1.66,2.15,3.48,3.21,5.22,1.25.54,1.81,2.25,2.64,3.31-1.34-2.37-2.67-4.74-3.97-7.14-.61-1.1-1.17-2.23-1.43-3.48-.03-.11.01-.23.11-.29.34-.14.57.36.82.52,1.36,1.56,2.3,3.45,3.47,5.16,1.68,2.59,3.38,5.17,5.25,7.6,1.13,1.32,2.25,2.86,3.86,3.53.28-.35.67.19.3.41-3.75.09-10.51-13.12-13.11-16.21,3.16,6.68,6.99,13.11,10.93,19.36,1.15,1.72,2.31,3.43,3.46,5.15.18.29-.28.6-.47.29ZM43.74,105.34c-2.16-3.81-4.78-7.35-7.08-11.09,2.28,3.73,4.59,7.51,7.08,11.09Z"/>
      <path class="cls-3" d="M44.87,97.67c-1.9-2.86-3.37-5.99-5.28-8.86-1.12-1.76-2.54-3.77-2.12-5.96-.27-.43-.53-.87-.76-1.33-.11-.22-.2-.46-.26-.7-3.21-1.21-3.16-5.29-1.01-7.49,1.88-2.44,4.37-5.36,7.76-5.17,3.27.34,4.81,3.51,6.68,5.8,1.45,1.93,2.91,3.83,4.28,5.82,4.32,6.57,7.73,10.16-.61,15.35-.29,4.18-6.17,5.94-8.67,2.53Z"/>
      <path class="cls-1" d="M48.35,107.67s0,0,0,.01c-.13-.07-.26-.15-.38-.23-.79.32-1.72.29-2.53-.12-.87-.44-1.46-1.23-2.04-1.99-3.15,2.38-8.24-2.3-6.27-5.64-3.05-4.42-5.24-9.37-7.81-14.11-1.59-2.93-3.22-5.83-4.58-8.88-.68-1.47-1.37-3.31-.84-4.92.41-1.23,1.94-1.88,3.12-1.38,4.22-2.33,10.41,9.7,11.39,13,3.97,4.46,7.71,9.14,11.33,13.89,1.47,2.24,3.82,4.15,4.14,6.93.2,2.8-3.13,4.87-5.54,3.43Z"/>
      <path class="cls-1" d="M40.49,122.47c-1.52-.14-2.77-1-3.61-2.25-3.21-4.77-6.36-9.58-9.46-14.43-3.1-5-6.3-9.97-8.9-15.26-1.23-2.65-3.4-6.39-.55-8.74.15-.6.44-1.16.9-1.63.14-.15.3-.28.46-.41-2.77-3.85,2.54-7.63,5.36-3.9,3.46.95,5.81,10.29,8.46,13.35,2.07,3.18,4.25,6.28,6.33,9.45,2.18,2.87,4.97,7.87.96,10.46,1.73,2.95,5.26,5.42,5.2,9.07-.19,2.54-2.64,4.57-5.16,4.28Z"/>
      <path class="cls-1" d="M22.53,98.26c-3.29-3.1-5.97-6.76-8.47-10.5-4.57-6.04-9.73-12.28-12.34-19.38-.4-1.95,1.68-3.71,3.54-2.97,1.55.87,2.64,2.47,4.12,3.5,3.6,3.44,6.21,7.73,8.94,11.85,2.93,4.76,6.3,9.34,8.36,14.57,1.11,2.56-2.12,4.87-4.16,2.94Z"/>
      <path class="cls-1" d="M37.08,128.48c-2.87-2.36-4.58-5.81-6.73-8.78-4.6-7.01-7.41-14.91-10.3-22.72-4.17-7.1-8.53-14.18-11.58-21.86-1.1-2.98,3.58-3.99,3.81-.83,5.45,10.12,14.28,17.83,19.68,28.02,1.14,2.07,3.11,4.39,2.21,6.88,2.7,4.97,6.72,9.09,9.39,14.04,1.84,3.9-3.06,7.89-6.48,5.25Z"/>
      <path class="cls-1" d="M26.31,127.19c-.57-.89-1.18-1.76-1.8-2.61-.33-.45-.66-.88-1-1.32-.37-.48-.77-1.01-1.28-1.33.02-.43.08-.8.2-1.11.6-1.09,1.75-1.7,2.74-2.37,1.55-2.5,6.27-2.85,7.08.46,1.05.05,2.08.1,3.11.18,3.62.3,3.98,5.6.49,6.43.99,3.82-2.47,7.08-6.05,7.23-1.16-1.86-2.32-3.71-3.5-5.56Z"/>
      <path class="cls-1" d="M37.66,132.68c-.53-.45-.87-1.01-1.08-1.64-.15-.18-.29-.36-.43-.54-2.28-.65-2.84-3.9-.96-5.3,2.01-2.02,5.33-.33,6.95,1.42.31-.21.63-.41.94-.62.13-.09.27-.18.4-.27-.34-.3-.63-.67-.84-1.11-.41-.86-.44-1.93-.1-2.83-.57-.91-.82-2.04-.59-3.13.11-.52.23-1.03.47-1.51-.5-.72-.8-1.51-.9-2.33-7.22,1.25-10.07-8.1-4.42-12.04.24-4.99,6.2-5.88,9.98-7.26,2.48-.77,4.96-1.54,7.43-2.36,2.7-.89,5.69.7,6.54,3.38.68,1.94-.3,3.86-.68,5.73,3.99,1.44,5.2,6.93,2.24,9.97,0,.05,0,.1,0,.16-.03.51-.11,1.02-.25,1.51.04.08.09.16.12.24.64,1.34.42,2.94-.49,4.07.55,4.67-8.23,8.41-11.54,10.76-2.5,1.58-4.99,3.24-7.93,3.83-1.39,1.17-3.47,1.09-4.87-.12Z"/>
      <path class="cls-1" d="M45.3,102.45s-.02-.02-.03-.03c-.54-.54-.65-1.31-.23-1.95.5-.77,1.29-1.34,2-1.91.47-.38.94-.76,1.43-1.11.64-.47,1.29-.93,1.94-1.39-.14-.7.02-1.43.43-2.02,0-.01,0-.02,0-.03.16-.58.35-1.18.79-1.62.25-.25.48-.5.78-.69.22-.14.47-.26.7-.38,1.31-.74,2.67-1.38,4.01-2.07.56-.29,1.12-.59,1.69-.85.39-.18.79-.36,1.19-.54.64-.29,1.26-.5,1.95-.58.91-.55,1.83-1.09,2.75-1.63.69-.41,1.39-.79,2.09-1.18,1.14-.64,2.27-1.38,3.58-1.58.15-.02.31-.03.46-.03,1.43-.71,2.86-1.42,4.3-2.14,1.32-.66,2.99-.04,3.62,1.28.65,1.36.04,2.94-1.28,3.62-.67.34-1.33.69-1.99,1.04-.23.55-.65,1.01-1.21,1.27-.39.19-.79.35-1.2.51-.3.13-.6.27-.89.4-.8.4-1.6.82-2.4,1.22-.91.45-1.82.91-2.73,1.36-.3.17-.61.34-.91.5-1.87,1.11-3.74,2.23-5.58,3.38-1.82,1.13-3.59,2.32-5.38,3.48-.66.43-1.47.51-2.18.29-.84.48-1.68.95-2.52,1.43-.17.1-.35.2-.52.3-.04.78-.68,1.48-1.5,1.49-.05,0-.11,0-.16,0-.17.03-.34.06-.5.1-.24.07-.49.14-.73.22-.05.02-.11.05-.16.07-.2.09-.42.13-.64.13-.35,0-.69-.11-.95-.36Z"/>
      <path class="cls-1" d="M57.15,107.34c-1.7-.15-3.17-1.34-3.69-2.96-.16-.49-.22-1.01-.19-1.52-3.88-4.06,2.45-7.65,5.1-10.21,1.84-1.6,3.71-3.17,5.58-4.73,3.24-2.71,6.66-5.26,10.19-7.59,2.76-1.91,6.8.59,6.27,3.91.75.34,1.39.93,1.76,1.65,4.85-.64,6.89,5.96,2.5,8.18-6.31,3.28-12.55,6.69-18.88,9.93-2.82,1.14-5.47,3.52-8.63,3.33Z"/>
      <path class="cls-1" d="M76.63,118.2s0,0,0,0c0,0,0,0-.01,0,0,0,0,0,.01,0Z"/>
      <path class="cls-1" d="M76.63,118.2s0,0,0,0c0,0,0,0,0,0,0,0,0,0,0,0,0,0-.02,0-.03.01,0,0,.02,0,.03-.02Z"/>
      <path class="cls-1" d="M74.11,119.53s-.03.02-.05.02c.02,0,.03-.01.05-.02Z"/>
      <path class="cls-1" d="M66.88,123.17s-.04.02-.06.03c.02-.01.04-.02.06-.03Z"/>
      <path class="cls-1" d="M66.82,123.21s0,0,0,0c0,0,0,0,0,0Z"/>
      <path class="cls-1" d="M56.44,119.88c.18-.68.53-1.32,1.04-1.82.24-.24.48-.46.73-.68-2.59-3.12-.21-6.14,2.71-7.8-7.62-4.2,2.24-10.65,5.9-13.67,5.32-4.21,10.9-8.16,17.08-11.03,5.08-2.27,8.62,5.14,3.65,7.65-2.41,1.15-4.66,2.37-6.84,3.82,2.96,1.07,3.31,4.77,1.69,7.13.02.01.03.03.05.04.8.73,1.24,1.65,1.35,2.64,3.83-.68,6.2,3.72,4.43,6.57-.5-.09-.98.18-1.22.61-.11.2-.15.44-.12.67,0,.01,0,.03,0,.04-2.31,1.54-4.66,3.01-7.07,4.38,0,0,0,0,0,0-.17-.49-.5-.89-.99-1.08-.41-.16-.86-.14-1.26.04-.27.12-.5.32-.67.55h0s-.08.09-.11.15l-.08.06s-.08.05-.12.08c-.27.14-.53.31-.81.45-.54.28-1.06.56-1.61.82-1.21.56-2.42,1.15-3.61,1.76-.45.23-.9.47-1.34.7-.07.02-.15.04-.22.07-.86.35-1.7.77-2.54,1.17-.92.43-1.84.88-2.76,1.32-1.43.68-2.83,1.41-4.23,2.15l-1.39.66c-.84.4-1.67.82-2.5,1.24-3.44-1.87-2.97-6.95.88-8.68Z"/>
      <path class="cls-1" d="M90.42,119.04s-.02-.09-.03-.14c.01.05.02.1.03.15,0,0,0,0,0,0Z"/>
      <path class="cls-1" d="M91.59,120.26s.02,0,.02,0c0,0-.02,0-.02,0Z"/>
      <path class="cls-1" d="M91.62,120.26s0,0,0,0c0,0,0,0,.01,0h0Z"/>
      <path class="cls-1" d="M91.62,120.26s0,0,0,0c0,0,0,0,0,0,0,0,0,0,0,0Z"/>
      <path class="cls-1" d="M91.63,120.27s0,0,0,0c0,0,.01,0,.02,0,0,0,0,0,0,0Z"/>
      <path class="cls-1" d="M86.45,124.2c-.16-.2-.32-.41-.47-.61-3.34,1.34-4.63-1.17-5.88-3.75-.04-.06-.09-.11-.13-.17.02-.43-.03-.86-.16-1.24-.17-.5-.5-.89-.99-1.08-.21-.08-.43-.12-.66-.11-.15-.2-.3-.41-.45-.61-1.86-1.99.32-5.4,2.89-4.64,2.29-2.8,5.16-1.41,7.11.77-.3.09-.55.3-.71.58-.11.2-.15.45-.12.68.02.2.09.4.18.59.05.18.14.34.27.46.08.13.17.25.25.37.31.46.65.92,1,1.36.59.74,1.24,1.45,1.81,2.21.02.04.05.07.07.11.07.23.16.44.32.63.24.28.57.48.94.53.11.02.23.04.34.04.18,0,.36-.03.53-.11.26-.12.47-.32.62-.56.29.64.48,1.31.49,2.02-.02,2.34-2.18,3.92-4.29,3.92-1.09,0-2.18-.43-2.93-1.39Z"/>
      <path class="cls-1" d="M14.31,79.67c-1.07-1.91.2-4.08,1.92-5.09-.13-.22-.24-.45-.33-.69-2.94-.9-3.54-5.23-.9-6.88,1.14-.76,2.3-1.48,3.47-2.19,4.11-3.18,8.73-5.72,13.21-8.34,1.86-1.08,3.97-1.29,5.81-2.37,0,0,0,0,0,0,4.27-1.96,6.79,3.45,4.44,6.67.02.03.04.05.06.08,0,0,0,0,0,.01.34-.11.7-.16,1.09-.14.18,0,.36.03.53.07,1.32-.5,2.66-.95,3.98-1.44,1.47-1.19,3.61-2.15,5.22-.68,1.07.93,1.3,2.39.75,3.66-1.41,2.12-4.09,3.07-6.05,4.64-4.07,2.75-8.15,5.49-12.1,8.39-2.54,1.5-5.85,5.9-8.8,2.97-1.3,1.06-2.79,1.94-4.53,1.85-2.39,1.16-6.17,2.4-7.78-.54Z"/>
      <path class="cls-1" d="M15.51,79.61c-3.45.66-4.35-2.03-5.43-4.63-1.54-1.12-3.75-1.48-4.48-3.33-2.71-.49-3.87-4.07-1.96-6.08,2.57-2.2,6.01-3.25,8.91-4.98,7.5-3.72,15.17-7.09,22.72-10.7,3.98-1.81,7.79-3.96,11.58-6.13,4.64-2.39,17.48-12.17,18.25-1.73,4.35.97,5.56,7.18,1.74,9.58-.93.59-1.88,1.15-2.85,1.7-.82,4.12-5.86,5.02-9.12,6.64-3.17,1.05-6.79,3.7-10.03,1.51-2.86,1.22-6.79,3.48-9.44.72-3.13,1.16-7.43,5.64-10.3,1.91-.6.3-1.2.59-1.82.87-.45,2.69-3.39,3.86-5.52,5.08,1.23,1.36,2.5,2.82,3.28,4.49,1.24,3.27-2.4,6.59-5.54,5.1Z"/>
      <path class="cls-1" d="M60.38,93.43s0,.01,0,.02c-4.71-5.6-8.87-11.63-13.2-17.52-2.28-3.31-3.72-6.79-6.03-9.98-1.35-1.78-.27-4.39,1.7-5.12,2.24-.88,3.77.99,5.21,2.38.23-.48.59-.9.98-1.25.62-.56,1.44-.79,2.23-.72-.08-1.12.41-2.28,1.25-3.02.93-.81,2.23-1.11,3.41-.8.51-1.59,1.74-2.93,3.37-3.51.42-.15.85-.24,1.28-.27.98-4.32,6.79-5.34,9.34-1.76,2.11-.27,4.21.76,5.42,2.49,1.88,2.54,3.58,5.21,5.35,7.84,4.65,6.95,9.45,13.81,13.72,21,3.31,4.82-1.04,11.57-6.8,10.42-3.13-.48-4.79-3.32-6.35-5.76-.61-.04-1.21-.17-1.78-.39-.14.05-.29.1-.43.15-.55,1.21-1.5,2.24-2.73,2.86-2.16,1.08-4.77.7-6.56-.86.37,4.97-6.16,7.59-9.36,3.8Z"/>
      <path class="cls-1" d="M94.1,91.9c-7.16-11.6-13.87-23.47-21.13-35.01-3.72-4.46,1.59-9.11,5.22-4.48,1.04-5.23,8.03-5.93,10.52-1.39.58.04,1.16.17,1.71.37,2.88-2.72,7.71-2.15,10.48.46,1.51-.05,3.02.4,4.25,1.3,2.46-1.84,5.74-1.72,8.1-.06,5.22.75,9.27,8.03,12.23,12.02,2.29,3.73,6.12,7,6.83,11.44,1.19,1.83,2.64,3.58,3.14,5.76,1.1,4.42-3.93,8.32-7.96,6.25-2.17-.98-3.55-3.03-5.03-4.79-.19.16-.39.32-.61.46-1.24.84-2.66,1.22-4.08,1.18-.47.44-1.01.81-1.59,1.1-2.38,1.19-5.33.92-7.44-.65-1.38.79-3.02,1.08-4.58.8-.9-.16-1.73-.51-2.45-.99-.02,0-.04.02-.06.02,1.5,2.74,1.18,6.84-2.19,7.96-1.91.67-4.26-.02-5.36-1.77Z"/>
      <path class="cls-1" d="M74.75,113.84c-.77-1.54-.14-3.49,1.41-4.26,1.16-.58,2.28-1.24,3.4-1.88.96-4.21,5.63-5.99,8.84-8.28,5.21-3.29,10.55-6.37,16.06-9.14,3.3-1.71,6.67-3.34,10.1-4.78,2.16-.83,4.63-2.27,6.82-.99,3.17-1.64,6.38-4.63,10.19-3.61.5.24.99.28,1.54.32,1.5-.03,3,.78,3.83,2.01,1.16,1.73.94,3.92-.34,5.51-2.17,2.08-5.51,2.58-8.15,3.95-7.1,3.57-14.28,6.98-21.36,10.58-6.25,3.09-17.22,10.84-24,9.84-2.54,1.22-6.31,4.36-8.33.73Z"/>
      <path class="cls-1" d="M80.97,26.54h0s-.02.01-.02.02c0,0,.02,0,.02-.02Z"/>
      <path class="cls-1" d="M59.31,66.92c-1.85-3.71,2.04-6.4,4.55-8.46-.39-.26-.73-.58-1.03-.95-.3-.38-.54-.81-.7-1.27-.68-.45-1.25-1.1-1.59-1.91-.23-.53-.35-1.09-.36-1.65-1.38-1.04-2.12-2.93-1.67-4.62.11-.41.22-.8.38-1.17-2.25-1.59-2.69-6.83-.36-8.47,3.7-2.52,7.68-4.64,11.65-6.71,3.1-1.75,6.22-3.46,9.38-5.08.28.14.61.19.94.14.9-.14,1.78-.55,2.63-.87.56-.21,1.12-.42,1.68-.64,1.04-.39,2.09-.79,3.13-1.19.23-.09.47-.18.7-.27.26-.09.51-.17.77-.25.08,0,.16-.01.24-.03.76-.14,1.5-.38,2.24-.59.36-.1.72-.2,1.08-.31.35-.1.72-.19,1.04-.34.34-.16.62-.34.88-.62.18-.19.32-.42.4-.66.38-.35.61-.84.6-1.37.49-.14.96-.22,1.42-.24,1.03,1.26,2.11,2.46,3.24,3.63.15.21.3.43.45.64.58.83,1.16,1.66,1.75,2.48-.31,1.04-1,2.03-2.15,2.83-3.65,2.07-7.91,2.74-11.7,4.57.18.39.31.81.38,1.25.09.61.07,1.21-.07,1.78.38.53.65,1.14.76,1.81.02.09.03.18.04.27,4.23-1,7.72,3.44,4.63,6.94-8.72,7.48-18.82,13.32-27.61,20.77-.48,1.96-2.21,2.98-3.96,2.98-1.53,0-3.06-.79-3.76-2.42Z"/>
      <path class="cls-1" d="M124.18,74.93c-.46-.61-1.17-.65-1.8-1-1.84-1.08-2.84-3.16-3.9-4.94-1.86-3.37-3.8-6.69-5.88-9.93-5.34-9.34-11.75-18.07-16.35-27.81-.74-2.02-2.63-5.08-.28-6.66,2.47-1.34,4.31,1.38,5.59,3.11,2.43,3.43,4.48,7.12,6.74,10.67,1.71.79,2.69,2.51,3.71,4.02,1.56,2.42,3,4.92,4.53,7.36,2.52,3.6,5.81,6.64,8.31,10.26,2.34,3.3,5.26,6.76,5.51,10.96-.06,1.86-.17,4.15-2.18,4.96-1.4.61-2.99.16-3.99-1Z"/>
      <path class="cls-1" d="M109,61.71c-.46-.57-.93-1.14-1.4-1.71-2,.12-4.02-.91-4.96-2.71-.24-.36-.47-.73-.7-1.09-.45.06-.9.07-1.36.03-1.02-.11-1.9-.48-2.67-1.05-1.14.24-2.35.16-3.45-.26-.67-.26-1.26-.62-1.77-1.07-.25.05-.5.08-.75.09-2.74,3.56-8.7,2.7-10.42-1.43-1.16-2.69-.82-5.75-.98-8.61-.25-3.44.9-7.7,4.63-8.7.36-1.01,1.05-1.88,1.78-2.64.27-.78.71-1.49,1.27-2.08.35-1.1.74-2.17,1.5-3.08,3.93-4.54,8.44-.66,10.35,3.6,1.66,2.82,3.27,5.67,4.87,8.53,3.14,5.93,6.58,11.63,10.53,17.06,3.19,4.39-2.95,9.28-6.49,5.13Z"/>
      <path class="cls-7" d="M140.01,89.92c-4.02-5.71-6.32-12.41-9.82-18.45-1.36-1.66-2.27-3.73-3.73-5.27-.54-.49-.89-1.08-1.05-1.39-2.18-3.81-4.53-7.75-5.45-12.05-1.46-.92-2.27-2.51-3.04-4-.55-.93-.55-2.05-1.49-2.68-1.48-1.36-3.64-2.29-4.52-4.17-.41-1.15-.45-2.34.15-3.44.93-1.75,3.01-2.15,4.63-3.03,2.9-1.59,5.81-3.16,8.77-4.66,1.04-.52,2.08-1.04,3.14-1.55.21.14.46.21.7.21.2,0,.39-.04.57-.14.37-.19.62-.57.65-.99.51-.23,1.01-.46,1.52-.69,1.01-.45,2.13-.65,3.22-.42,2.21.4,3.33,3.24,2.15,5.09.52.46.88,1.11,1.04,1.79,2.05-.96,4.86-.5,5.7,1.83,2.94-.61,5.63,2.47,4.48,5.28,1.78,1.38,1.83,3.9.67,5.69,2.81,1.32,3.14,5.37.73,7.27-.99.84-2,1.66-3,2.48-.71,2.39-3.11,3.61-5.01,4.96-2.14,1.56-4.97,3.2-7.41,1.29.02.2.02.4,0,.6,1.31,1.84,3.16,3.45,3.88,5.63,0,0,0,0-.01,0,.14.5.18,1.03.11,1.55,3.88,3.46,7.82,8.1,8.1,13.49,1.82,2.19,2.52,5.38-.27,7.11-.62.37-1.29.55-1.96.55-1.34,0-2.65-.7-3.44-1.91ZM126.39,44.88c.46-.1,1.09-.3,1.36-.7-1.89-1.31-1.86-4.21-.38-5.82-.07-.05-.14-.09-.2-.14-2.36,1.24-4.7,2.51-7.03,3.78.14.21.27.43.41.65.25.08.48.2.71.35.24-.06.46-.09.68-.09,1.71,0,2.77,1.71,4.45,1.97Z"/>
      <path class="cls-7" d="M142.56,110.12c-1.38-.29-2.33-1.27-3.36-2.16-.83-.67-1.55-1.51-1.92-2.54-.79-.21-1.54-.61-2.13-1.18-.64-.62-1.13-1.45-1.37-2.34-2.05.71-3.81,2.67-6.13,2.1-2.5-.54-3.71-3.55-2.49-5.74-1.47-3.52,2.83-4.05,5.03-5.25,2.44-1.3,4.68-2.89,7.1-4.22,2.09-1.54,5.18-2.18,6.39.68,3.92-3,8.71,2.16,5.5,5.86,1.21,2.26.34,4.9-1.57,6.46.31.41.56.84.74,1.28-.1.07-.2.15-.27.24-.07.09-.16.19-.18.31-.3.21-.49.56-.47.93.02.32.11.65.18.96.02.08.04.16.06.24.03.18.07.36.14.52.11.28.32.5.59.64-.7,1.88-2.43,3.33-4.62,3.33-.39,0-.8-.05-1.21-.14Z"/>
      <path class="cls-7" d="M162.27,94.32s-.07.04-.1.06c.03-.02.07-.04.1-.06Z"/>
      <path class="cls-7" d="M163.34,91.99s0,0,0,.01c0,0,0,0,0-.01Z"/>
      <path class="cls-7" d="M163.36,92.01s0,0,0,0c.01.02.03.04.04.06-.02-.02-.03-.04-.04-.06Z"/>
      <path class="cls-7" d="M163.42,92.09s0,.01.01.02c0,0,0,0-.01-.02Z"/>
      <path class="cls-7" d="M139.6,105.48c-2.05-.26-3.04-2.78-1.56-4.3.38-.4.89-.65,1.42-.74-1-2.07,1.46-3.1,2.88-3.98-.47-2.42,2.16-4.23,2.98-6.27-2.51-1.68-4.83-4.29-3.81-7.52-2.89-.55-3.46-4.66-.95-6.13,4.62-3.1,9.64-5.56,14.25-8.65,1.13-.94,2.85-1.08,4.14-.43,3.88-1.07,9.44-5.55,12.75-1.41.72-.24,1.45-.48,2.17-.73.2-.09.41-.18.62-.26,0,0,0,0,0,.02,1-.41,2.09-.43,3.06-.04,4.13-1.87,8.39,2.54,5.98,6.5.16,2.56-1.85,4.49-4.16,5.18-1.55,1.03-3.54,1.75-5.42,1.82-.32.1-.64.2-.97.27-.08-.09-.17-.17-.28-.22-.39-.21-.79-.42-1.18-.63-.21-.11-.45-.2-.66-.32-.23-.13-.45-.21-.72-.21-.24,0-.48.08-.71.15-.7.23-1.4.5-2.09.78-.99.4-1.97.83-2.92,1.32-.46.24-.92.49-1.36.78-.13.08-.25.17-.38.26-.2-.08-.39-.16-.59-.24-.61-.25-1.23-.47-1.84-.71h.04c-.32-.11-.64-.25-.95-.39-.17-.09-.33-.18-.5-.27-.14-.08-.28-.16-.42-.23-.02-.06-.04-.12-.07-.18-.2-.43-.64-.68-1.09-.74-.29-.04-.59.07-.85.18-.29.12-.56.29-.83.45-.64.38-1.24.8-1.85,1.22-.31.21-.6.45-.89.68-.2.16-.41.33-.57.53-.06.04-.12.09-.18.13-.1-.04-.2-.06-.3-.07-.59-.06-1.16.29-1.37.84-.17.43-.09.91.17,1.27.21.79.52,1.54.9,2.27.21.41.42.82.66,1.22.15.25.3.52.51.73.11.12.23.22.35.3.04.14.07.28.11.41.14.5.3.98.48,1.47.15.44.3.89.73,1.14.22.13.47.16.71.11.36.18.78.14,1.14,0,.25-.09.5-.16.74-.24.43-.14.86-.28,1.29-.43.85-.29,1.69-.63,2.52-.97.3-.12.6-.24.9-.37.14.38.29.75.46,1.11.33.72.76,1.38,1.23,2.02.04.05.07.1.1.15.07.14.12.28.18.43-.03.03-.06.05-.08.08-.31.36-.62.72-.91,1.09-.13.16-.22.35-.27.55-.02.02-.05.03-.07.04-.93.53-1.88,1.04-2.8,1.59,0,0,.01,0,.02-.01-.14.08-.27.16-.41.23-.18.04-.34.13-.51.21-.21.11-.41.23-.62.34-.45.26-.89.54-1.33.82.03-.02.06-.04.09-.06-1.64,1.03-3.23,2.14-4.84,3.2-.71.46-1.41.93-2.11,1.42-.48.21-.97.41-1.45.6-2.62,1.02-5.19,2.84-8.06,2.84-.22,0-.44-.01-.66-.03Z"/>
      <path class="cls-7" d="M176.46,72.47c.09-.84.43-1.58.95-2.18.15-2.91-2.12-6.02-.39-8.72.82-1.13,2.3-1.53,3.61-1.06,3.61,1.97,6.32,9.06,4.75,13.28-.29.16-.57.33-.86.49-.78.45-1.57.89-2.36,1.33-.75.43-1.51.85-2.23,1.33-2.07-.36-3.7-2.22-3.46-4.47Z"/>
      <path class="cls-7" d="M145.23,50.31c-1.29-2.75-2.75-5.44-3.91-8.25-.01-.03-.02-.06-.04-.09-.88-.32-1.68-.88-2.31-1.62-.64-.75-1.13-1.6-1.54-2.49-.72-.15-1.41-.45-2.01-.88-1.09-.8-1.68-1.93-2.01-3.17-2.64,2.02-6.23-1.32-4.57-4.15-.04-.09-.09-.19-.12-.28.05-.02.09-.04.14-.06.43-.22.69-.7.65-1.18-.01-.13-.04-.25-.09-.37.07-.07.13-.16.17-.26.08-.2.12-.37.12-.59,0-.23-.06-.45-.13-.67-.06-.18-.13-.36-.2-.54-.18-.47-.32-1.03-.76-1.3-.21-1.74-.2-3.67,1.5-4.62,1.11-.62,2.49-.53,3.44.25.66-.24,1.36-.28,2.09-.22,1.45.12,2.62,1.11,3.15,2.37,1.6-.06,3.06.71,3.99,1.97,3.95,1.2,4.48,6.14,6.12,9.37,1.88,4.48,3.32,9.12,4.82,13.73.95,3.37-1.75,5.74-4.47,5.74-1.59,0-3.17-.81-4.04-2.69Z"/>
      <path class="cls-7" d="M143.35,78.78c-4.03-.34-6.93-5.24-4.83-8.85.49-.85,1.02-1.68,1.56-2.5-.29-.63-.48-1.3-.54-2.02-3.4-1.4-4.6-6.03-2.37-8.95.8-1.13,1.66-2.22,2.53-3.3-.3-3.61,1.99-6.82,3.25-10.07-4.64-2.17-3.65-7.27-1.09-10.79-.14-1.62.48-3.25,1.61-4.42-1.55-3,.86-6.18,2.8-8.37-.8.41-1.62.8-2.45,1.14-1.16.5-2.44.09-3.19-.77-.64.36-1.28.72-1.93,1.08-1.36.76-2.77,1.46-4.09,2.29-.13.7-.91,1.12-1.56,1.08-1.53.32-3.11-.76-3.18-2.38.04-1.35.69-2.44,1.61-3.37.31-.18.63-.36.94-.54,1.11-.65,2.22-1.3,3.33-1.96,1.88-1.12,3.77-2.25,5.68-3.32,1.94-1.08,3.88-2.16,5.79-3.29-.03.02-.05.03-.08.04.68-.41,1.36-.81,2.05-1.22,1.85-1.12,3.68-2.29,5.55-3.39.95-.56,1.9-1.12,2.88-1.64.91-.48,1.83-.96,2.74-1.44,1.57.88,2.4,2.87,1.7,4.62-.57,1.44-1.92,2.23-3.04,3.19.79.87,1.08,1.96.68,3.08-.43,1.21-1.29,2.25-2.08,3.28,1.24.15,2.38,1.04,2.87,2.18.15.34.24.69.27,1.04,1.61,1.7,1.77,4.38.39,6.27-.54.75-1.12,1.46-1.73,2.16,1.35,2.75-.33,5.74-1.53,8.23-1.38,2.95-2.78,5.87-4.05,8.86.14.13.27.27.39.41.55.18,1.07.44,1.53.78.39.29.75.63,1.05,1.02.05-.05.11-.11.17-.16.13-4.99,5.75-8.5,10.22-6.14.14-.02.28-.04.42-.05.82-.59,1.76-1,2.77-1.2-.25-2.1-.5-4.2-.8-6.29-.68-3.88,4.09-6.81,7.21-4.38,1.24.88,1.71,2.26,1.97,3.69.91,4.04,1.98,8.04,2.91,12.08,1.01,4.57,2.23,9.28,1.48,13.98.21,2.86.41,5.88-1.01,8.48,0,0,0-.01-.02-.02-.52.96-1.29,1.79-2.23,2.35-1.73,1.03-3.84,1.09-5.61.32-1.6.93-3.64,1.19-5.38.78-1.25-.3-2.4-.94-3.33-1.82-.74.95-1.61,1.75-2.67,2.38-1.16.69-2.46,1-3.79,1.03-1.86,1.66-4.64,2.56-7.11,1.97-2.33,2.07-4.81,4.82-8.12,4.82-.19,0-.38,0-.58-.03Z"/>
      <path class="cls-7" d="M167.89,48.03c-.71-.56-1.33-1.16-1.8-1.94-.17-.29-.32-.58-.46-.87-.89-.2-1.67-.67-2.32-1.29-.05.02-.1.04-.15.06-1.66.65-3.75.42-5.18-.7-.47.53-1.03.98-1.63,1.3-.55.3-1.13.51-1.72.62-1.87,5.23-9.67,4.36-10.34-1.19-.44-3.87.1-7.76.05-11.63-.15-2.72,1.35-5.36,3.83-6.51.3-3.63,4.01-6.35,7.55-5.19,1.46-.4,3.12-.14,4.36.73.54-.18,1.09-.27,1.64-.26-.73-2.4-2.14-4.69-2.14-7.25.35-5.88,7.94-6.31,9.81-.97,4.08,1.28,5.33,6.17,5.36,9.93,1.32,4.05,6,9.38.27,12.11.15,4.42,2.45,11.31-2.57,13.74-1.52.6-3.27.33-4.57-.68Z"/>
      <path class="cls-7" d="M152.5,14c.02-1.77,1.5-3.18,3.25-3.18s3.2,1.52,3.18,3.25c-.02,1.77-1.5,3.18-3.25,3.18s-3.2-1.52-3.18-3.25Z"/>
      <path class="cls-7" d="M179.31,50.44c-2.27,0-4.07-2.04-3.98-4.27-.41-3.63-.77-7.31-1.61-10.88-1.18-3.83-2.71-7.52-4.25-11.23-2.93-4.41-5.45-9.06-8.13-13.62-2.02.82-3.74,2.08-5.44,3.44-.59.42-1.35.95-2.11.84-1.37-.17-1.82-2.02-.71-2.82,2.63-1.96,2.89-5.52,4.89-7.96.44-.45.84-1,1.26-1.52.46-.24.92-.48,1.38-.73-.04.02-.08.04-.12.07.57-.3,1.14-.61,1.7-.91.21-.11.42-.21.62-.33,1.39.08,2.61.93,3.32,2.15,1.27,1.92,2.41,3.91,3.89,5.68.28.36.58.7.89,1.03.13.33.28.66.43.99.36.82.76,1.62,1.21,2.4l-.07-.12c.17.29.34.57.52.86l-.07-.12c.88,1.45,1.84,2.85,2.75,4.29,0,0,0,0,0-.01,0,0,0,0,0,.01.02.04.04.07.07.11l-.02-.04s0-.01-.01-.02c0,0,0,.01.01.02.66,1.09,1.3,2.2,1.92,3.31h0c.23.41.45.83.68,1.24.25.81.51,1.61.81,2.4.39,1.03.86,2.04,1.36,3.02.05.09.1.19.15.28,0,.01,0,.03,0,.04-.05.39.04.81.11,1.2.04.18.07.36.11.53.06.31.13.61.19.92.14.66.28,1.32.45,1.96.36,1.34.8,2.65,1.2,3.98.18.61.37,1.22.57,1.83,0,0,0,0,0-.01.22.67.46,1.35.65,2.03,0,.04.02.07.03.11,0,.1-.02.19-.03.29-.59,3.51.52,9.45-4.57,9.57h-.03Z"/>
      <path class="cls-6" d="M35.84,158.14c-1.06-.61-1.77-1.69-1.8-2.93,0-.09,0-.19,0-.28-.96.32-1.96.61-2.97.55-.98-.06-1.5-1.29-.91-2.06.73-1.08,2.03-1.64,3.05-2.4.69-1.93,3.19-2.09,4.8-2.93,2.39-1.3,4.84-2.48,7.33-3.59,3.16-1.35,6.19-2.97,9.26-4.5.76-.47,1.74-.48,2.53-.1,2.07-1.36,4.47-1.79,6.6-3.04,2.4-.89,4.9-3.47,7.55-2.09,2.46,1.31,2.39,4.85.09,6.31-8.2,5.25-17.24,9.02-25.73,13.77-2.97,1.26-6.5,4.87-9.82,3.28Z"/>
      <path class="cls-6" d="M32.72,158.45c-.27-.12-.51-.26-.74-.43-1.16,0-2.33.04-3.47-.15,0-.05-.01-.1-.02-.15,0-.23,0-.46-.04-.7-.07-.34-.28-.62-.56-.78-.02-.01-.04-.02-.05-.04-.09-.06-.16-.13-.25-.19-.15-.1-.3-.2-.46-.27-.32-.15-.64-.31-.97-.45-.07-.1-.15-.19-.22-.29-.18-.24-.49-.34-.78-.29.36-.62.74-1.23,1.13-1.83-.03.04-.06.09-.09.13.5-.74,1.01-1.48,1.51-2.21.25-.02.5-.02.75-.02,3.85-1.55,6.82-4.83,10.98-5.65,2.25-1.59,5.81-.73,5.25,2.5-.24,1.11-1.11,1.59-1.9,2.24-.66.72-1.54,1.28-2.54,1.11-1.16.65-2.3,1.33-3.42,2.04,1.69,2.65.03,5.64-2.73,5.64-.44,0-.9-.07-1.38-.23Z"/>
      <path class="cls-6" d="M53.13,137.45s0,0-.01,0c0,0-.02,0-.03.01h0s.03,0,.04-.02Z"/>
      <path class="cls-6" d="M53.07,137.47h0s0,0,0,0c0,0,0,0,0,0Z"/>
      <path class="cls-6" d="M53.06,137.48s0,0,0,0c0,0,0,0,0,0,0,0,0,0,0,0Z"/>
      <path class="cls-6" d="M53.06,137.48s0,0,0,0c0,0,0,0,0,0,0,0,0,0,0,0Z"/>
      <path class="cls-6" d="M53.04,137.48s0,0,0,0c0,0,0,0,0,0Z"/>
      <path class="cls-6" d="M52.94,137.53s0,0,0,0c0,0,0,0,0,0Z"/>
      <path class="cls-6" d="M37.37,151.86c-1.42-.3-2.13-1.95-1.61-3.25.44-1.11,1.38-1.9,2.19-2.73,2.38-2.74,5.55-4.49,8.57-6.41.13-.08.27-.17.4-.25.07.17.21.32.42.38.06.02.12.02.17.02.12,0,.23-.04.32-.09.35-.01.7-.15,1.03-.27.44-.17.87-.34,1.3-.52.92-.4,1.84-.81,2.76-1.2,0,0,0,0,0,0,.02,0,.03-.01.04-.02,0,0-.02,0-.03,0,.03-.01.05-.02.08-.03,0,0,0,0,0,0,0,0,0,0,0,0,0,0,0,0,0,0,0,0,0,0,0,0,0,0,.01,0,.02,0,0,0,0,0,0,0,0,0,0,0,0,0,0,0,0,0,0,0h.02s0,0,0,0h0s.02,0,.02,0c0,0,0,0-.01,0,0,0,0,0,.01,0,0,0,.02,0,.03-.01h.02s0,0-.01,0c0,0,.02,0,.03-.01,0,0,0,0-.01,0,0,0,.01,0,.02,0,0,0,0,0,0,0,1.28-.54,2.57-1.1,3.83-1.73.61-.31,1.22-.61,1.82-.93.28-.14.55-.3.79-.5.24-.21.48-.46.54-.78,2.48-.84,4.95-1.64,7.27-2.48,6.52-2.52,13.35-4.82,19.89-7.09,3.54-1.46,5.83,3.77,2.34,5.36-5.65,2.48-11.53,4.42-17.21,6.81-4.75,2.03-9.33,4.44-14.18,6.21-.32.7-.72,1.35-1.1,2.02-.39,2.08-3.32,2.79-4.57,1.04-3.65,2.25-7.53,4.03-11.54,5.52-1,.39-2.01,1.02-3.08,1.02-.19,0-.39-.02-.58-.07Z"/>
      <path class="cls-6" d="M59.2,145.25c-2.86-.43-4.22-4.28-1.49-5.89,4.54-3.19,9.98-6.38,14.73-8.85,7.66-3.93,15.37-7.76,23.29-11.15,2.33-.85,4.51-2.43,6.99-2.76,0,0,0,.01,0,.02.82-.03,1.65.25,2.3.87.79.76,1.08,1.82.91,2.83,2.84-.2,4.13,3.9,1.58,5.3-3.08,1.59-6.1,3.32-9.18,4.91-6.07,3.11-12.26,5.98-18.48,8.78-2.05.95-4.16,1.74-6.29,2.51-2,.8-4.54,2.06-6.41.35-2.64.95-5.13,2.82-7.94,3.07Z"/>
      <path class="cls-6" d="M101.1,126.72c-1.01-2.19,1.14-3.64,2.72-4.71-2.2.75-4.06,2.16-6.04,3.34-.71.75-1.82,1.03-2.84.67-1.21-.41-1.99-1.83-1.65-3.07.46-1.9,2.66-2.28,4.01-3.39.37-1.87,2.56-2.31,4.09-2.95,4.84-2.52,9.66-5.08,14.64-7.32,4.08-1.97,8.23-3.79,12.26-5.87,2.87-1.67,6.96-2.68,7.64,1.74,3.28-3.91,9.13-.05,5.7,4.14-2.58,2.15-6.01,2.78-9,4.16-6.59,3.84-13.41,7.09-20.06,10.51-2.04,1.06-4.06,2.14-6.05,3.3-1.68,1.3-4.37,1.8-5.41-.53Z"/>
      <path class="cls-6" d="M141.18,107.88c-1.12-.64-2.17-1.22-3.31-1.82-.14.05-.27.07-.4.09-.81.84-2.02.12-2.7-.55-.8-.21-1.19-1.19-1.05-1.97-.37-.35-.94-.47-1.22-.93-.58-1.05.64-1.76,1.5-1.58,1.16-.11,2.19.35,3.26.75,2.04.87,4.33,1.39,5.8,3.13,2.75,1.08.2,4.98-1.88,2.87Z"/>
      <path class="cls-8" d="M119.39,130.28c-1.08-1.31-.11-3.07,1.31-3.63.03-.2.08-.39.16-.57-.11-.11-.22-.23-.3-.37-.57.04-.97-.54-.71-1.06.09-.19.23-.32.38-.43,0-.07.02-.15.04-.22-2.01-1.46.91-2.58,2.06-3.21.22-.93,1.27-1.25,2.01-1.67,1.21-.64,2.41-1.29,3.61-1.95,1.45-.74,2.81-1.65,4.21-2.49.55-.32,1.27-.3,1.8.08.22-.07.44-.12.67-.16.17-.03.34-.02.5.02,1.65-1.39,3.37-2.72,4.9-4.25.08-1.25,1.1-2.46,2.42-2.07.66-1.38,2.84-1.01,3.04.5.21,1.31-1.17,2.04-1.95,2.86-.2,2.18-.32,4.36-.26,6.55,1.69,2.45-.64,4.17-2.78,4.99-2.44,1.19-4.93,2.27-7.46,3.29-3.33,1.33-6.66,2.7-10.04,3.89-1.1.72-2.69,1.1-3.61-.1ZM135.04,118.33c.24.4.34.87.31,1.33.76-.4,1.52-.81,2.28-1.22.58-.31,1.17-.62,1.73-.95-.02-.26-.04-.53-.05-.79-.01-.37,0-.73.01-1.1-1.2.73-2.59,2.49-4.09,1.52-.22.12-.44.24-.67.36.13.32.26.59.48.86Z"/>
      <path class="cls-8" d="M79.29,147.7c-1.17-2.59,4.8-3.82,6.46-4.91-.27-.18-.49-.42-.63-.71-.18-.38-.21-.78-.11-1.15-.99.42-1.99.82-3.01,1.19-.37.14-.75.09-1.07-.08-.42.18-.84.37-1.27.55-.87.38-1.75.75-2.62,1.14-.29.64-1.08.8-1.71.56-.73-.2-.99-1.14-.58-1.73.42-.61,1.21-.81,1.86-1.09,7.89-3.62,15.95-6.91,23.93-10.43,3.92-1.65,7.87-3.25,11.89-4.65,1.85-.46,3.8-1.71,5.74-1.22,1.43-.51,4.2-1.66,4.28.82,1.29-.55,2.8.46,2.7,1.88,0,1.33-1.44,1.83-2.44,2.33-8.61,3.98-16.79,8.99-25.77,12.09-.22,1.82-2.6,1.95-3.92,2.73-1.53.48-3.32,1.91-4.9.95-1.99.56-7.59,4.21-8.84,1.72Z"/>
      <path class="cls-8" d="M38.43,169.4c-3.5-.56-1.91-5.92-2.91-8.37-.1-.05-.2-.11-.29-.18-1.27-.19-1.26-2.11,0-2.32.22-1.2,1.84-1.67,2.73-.95,10.46-4.73,20.43-10.43,30.88-15.2,7.18-3.37,14.99-5.08,22.14-8.49,1.13-.43,2.04-.91,3.19-1.12,1.9-.39,3.11,2.05,1.83,3.43-1.25,1.22-3.06,1.62-4.62,2.32-3.68,1.65-7.64,2.6-11.25,4.37-.12.37-.36.7-.7.93-.08,1.55,1.74,3.61.13,4.8.75,1.56-.4,3.55-2.17,2.55-.63-.42-.82-1.12-.96-1.83-.61-.75-.62-1.81-.76-2.7-1.32.41-2.64.85-3.95,1.29-.62.21-1.25.42-1.87.63.83,1.1.24,2.69.69,3.94.14.88.57,1.8.27,2.68-.3.86-1.23,1.43-2.14,1.23-2.09,1.36-4.13,2.93-6.61,3.42-.79.13-1.3.9-2.15.79-2.41-.27-2.1-3.91-2.49-5.71-1.68,1.04-3.65,1.74-5.57,2.14.08,1.09-.34,2.54.41,3.41.7.56.85,1.64.73,2.47-.13,1.3-1.72,2.06-2.8,1.31-2.14.78-4.06,2.06-6.16,2.94-.96.9-2.06,2.16-3.49,1.89-.52.57-1.45.76-2.15.36Z"/>
      <path class="cls-4" d="M55,163.93c-1.22-.26-1.89-1.61-1.35-2.73-.27-.55-.36-1.19-.48-1.79-1.14-1.22.36-2.42,1.33-3.11,0,0,0,0,0,.01.07-.06.15-.11.23-.16.08-.89.95-1.48,1.8-1.32,1.39.29,1.35,1.98,1.62,3.09.95.78,1.18,2.46.27,3.38.26,1.83-1.87,2.87-3.43,2.64Z"/>
      <path class="cls-4" d="M44.99,145.55c-1.06-.81-1.85-1.93-2.7-2.94-.48-.59-1.05-1.33-.73-2.12.21-.62.92-1,1.56-.79.11-.27.32-.5.56-.65.5-.8,1.62-1.53,2.55-.92.24.19.47.38.7.58-.13.33,0,.78.41.89.06.02.12.02.17.02.11,0,.21-.03.3-.08.74.73,1.46,1.49,2.21,2.21,1.48,1.69-.96,4.05-2.61,2.55.02.87-.79,1.53-1.6,1.53-.29,0-.57-.08-.82-.27Z"/>
      <path class="cls-4" d="M62.92,136.86c-.96-1.01-1.92-2.06-2.88-3.1.04-.09.08-.17.09-.26.05-.27.04-.54-.11-.78-.13-.23-.37-.41-.63-.47-.16-.04-.33-.04-.49-.02-.09-.57.15-1.14.86-1.39,0-.42.23-.79.53-1.05.09-.08.18-.17.26-.27.6-.31,1.2-.62,1.8-.93.02-.01.04-.02.06-.03-.02.01-.04.02-.06.03l-.14.07c.07-.04.15-.08.23-.12,0,0-.01,0-.02.01,0,0,0,0,0,0,0,0,0,0,0,0,.01,0,.03-.01.04-.02.42.16.77.55.81,1,1.41,1.62,6.09,2.95,3.35,5.59-.61.52-1.3.94-1.89,1.47-.25.33-.64.5-1.04.5-.27,0-.54-.08-.77-.23Z"/>
      <path class="cls-4" d="M70.93,153.91c-.87-.97-1.88-5.53.45-5.13.01-.01.03-.02.05-.03.15-.44.54-.77.99-.86.22-.04.43-.03.63.04.07-.04.14-.07.22-.09.49-.16,1.04-.02,1.39.35,1.2.05,2.05,1.67,1.59,2.72.02.2.03.4.03.61,0,.56-.41,1.09-.92,1.33-.09.19-.21.35-.35.53-.36.46-1.03.62-1.6.46-.58.82-1.84.82-2.48.08Z"/>
      <path class="cls-4" d="M94.86,145.05c-.29-.28-.47-.58-.6-.94,0,0,0,0,0,0-.08.03-.16.04-.23.06-1.92,1.58-3.47.29-3.39-1.98-.22-.62-.3-1.31-.7-1.85-.42-.86.05-2,.92-2.32.24-.37.67-.62,1.15-.59.26.02.49.1.69.23.1-.05.2-.08.31-.11.18-.04.38-.03.57.02-.04-.32-.04-.64.02-.93h0c.23-1.38,2.05-1.81,2.95-.77.6.75.76,1.79,1.18,2.65.36,1.02,1,2.14.56,3.21.04.12.07.25.09.38.14.61-.08,1.23-.49,1.68-.03,1.48-1.98,2.3-3.04,1.26Z"/>
      <path class="cls-4" d="M111.54,136.43c-1.36-.77-1.43-2.81-1.98-4.15-.53-.99.65-2.13,1.63-1.62-.02-.09-.05-.19-.07-.28,0,.03.02.07.02.1-1.02-2.06,1.37-3.09,2.28-1.09,1.23-.11,1.64,1.29,2.13,2.15.24.46.48.92.73,1.38.57,1.03-.38,2.4-1.52,2.29-.31.2-.71.3-1.1.27-.03.03-.06.05-.09.07-.23.84-1.23,1.27-2.01.88Z"/>
      <path class="cls-4" d="M131.14,127.86c-.2-.1-.37-.24-.5-.41-2.2,1.7-2.72-1.92-3.16-3.36-.25-.17-.21-.52-.33-.77-.4-.62-.27-1.72.67-1.59.08-.31.27-.6.56-.79.05-.03.1-.07.15-.1,0-.32.14-.63.38-.84.2-.17.47-.26.74-.26.98-.84,2.26.61,1.6,1.61.4,1.9,2.36,3.59,2,5.65-.31.86-1.32,1.28-2.12.88Z"/>
      <path class="cls-4" d="M105.83,116.47s-.04-.03-.06-.04c-.88.28-1.8-.17-2.34-.89-.92-.9-1.8-1.91-2.16-3.14,0,0,0,0,0,0-.05-.16-.07-.34-.04-.51.05-.24.18-.44.35-.58-.06-.8.8-1.46,1.54-1.1,1.33-.56,2.61.77,3.78,1.28,1.17.35,1.94,1.78,1.1,2.8.99,1.37-.82,3.15-2.19,2.18Z"/>
      <path class="cls-4" d="M121.03,110.08c-1.74-.55-3-2.2-4.16-3.54-.85-1.44.9-2.8,2.19-1.82-.33-.77.19-1.76,1.09-1.8.39-.02.69.06,1.02.23.32-.26.78-.36,1.18-.21.02,0,.04.01.06.02.68-1.15,2.2-.83,3.09-.1,1.01.56,2,1.73,1.13,2.85.17.55.13,1.07-.12,1.59-.32.68-1.1,1.1-1.84,1.03-.06.04-.13.08-.2.11-.49.22-.97.27-1.46.14-.04.95-1.03,1.73-1.96,1.5Z"/>
      <path class="cls-5" d="M109.77,145.86s-.03-.05-.05-.08c-.66-.04-1.17-.38-1.54-.94,0-.01-.02-.03-.03-.04-.8.39-1.92,1.31-2.44.04-.39-1.46,2.79-2.27,3.76-3.03.4-1.34,1.96-1.96,3.03-2.72,1.66-.98,3.34-1.93,5.07-2.79-.16-.1-.31-.22-.44-.37-.73-.86-.47-2.14.45-2.71.52-1,1.76-1.3,2.67-1.84,1.43-.85,3.07-1.03,4.46-1.94.42-.15.61-.57.96-.82.91-.78,2.25-.58,3.19.03,2.2-.92,3.76-2.29,5.85-3.25.48-1.15,1.92-1.39,2.89-2.01,1.3-.54,2.48-1.64,3.94-1.65,1.23.04,2.08,1.47,1.55,2.56-.15,1.84.29,3.83-.62,5.52-.2.29-.5.54-.84.66-1.34.52-2.51,1.43-3.75,2.16-1.56.75-4.21,3.75-5.9,2.54-1.34.9-2.65,1.84-3.97,2.77-.22.83-.97,1.39-1.74,1.66-.87.46-1.74.92-2.62,1.38-1.23.87-2.35,1.83-3.71,2.51-1.11.64-2.34,1.91-3.71,1.33-1.91.77-4.72,3.19-6.47,1.03Z"/>
      <path class="cls-5" d="M37.56,177.94c-.34-.69-.68-1.39-1.03-2.08-1.38.16-1.72-1.61-2.27-2.54-1.43-3.12-2.77-6.3-3.71-9.6-1.25.19-1.57-1.2-1.31-2.16.04-.57-.23-1.22.2-1.69.01-.34-.2-.56-.44-.77,0,0,0,0,0,0-.68-.74-.22-2.04.77-2.2.75-.13,1.44.37,2.14.55.73.34,1.57.39,2.21.89.94,1.13,1.36,2.62,1.89,3.97.73,2.14,1.6,4.32,1.91,6.57.03.06.06.12.09.17.75-1.6,3.23-.81,2.89.93-.51,2.34-.38,4.1-1.6,6.03.12.41.32.79.4,1.21.26,1.27-1.6,1.89-2.14.71ZM36.69,171.82c.05-.03.11-.05.16-.07-.04-.04-.09-.09-.13-.13-.16-.17-.31-.35-.46-.52.14.24.29.49.43.73Z"/>
      <path class="cls-5" d="M38.06,179.52c-.45-.52-.6-1.31-.46-2.03-.27-1.23-.98-2.32-1.32-3.55-.29-.52-.57-1.05-.75-1.6-.49-1.41,1.46-2.48,2.41-1.36.55-1.65,2.45-1.93,3.84-2.64,3.8-1.71,7.71-3.71,11.9-4.14,3.17-1.3,6.21-2.73,9.2-4.38.31-1.05,1.55-1.34,2.44-1.75,2.35-1.13,4.84-1.88,7.24-2.79,1.1-.51,2.18-1.03,3.34-1.39,1.98-.55,2.83,2.05,1.31,3.17.38.18.71.49.88.86.25.52.22,1.17-.07,1.66,1.42-.63,2.83-1.29,4.34-1.66,1.26-.29,2.2.72,2.32,1.8-.11.05-.21.09-.32.15-.09.04-.17.08-.25.12-.49.21-.98.43-1.46.65-.58.27-1.16.54-1.74.81-.26.12-.51.25-.77.38-.26.13-.53.26-.77.44-.07.05-.13.12-.18.19-.27.12-.54.25-.8.37-.8.35-1.6.67-2.41,1,0,0,0,0,0,0,.01,0,.03-.01.04-.02-.01,0-.03,0-.04.02,0,0-.01,0-.02,0-.02,0-.04.01-.06.02.02,0,.04-.02.06-.02,0,0,0,0,.01,0-1.1.44-2.19.88-3.28,1.34l.11-.05c-.96.41-1.91.85-2.84,1.31-.54.27-1.07.53-1.59.82-.41.23-.82.46-1.16.8-.29,0-.52.34-.36.6-.39.16-.78.32-1.17.48-2.11.86-4.2,1.78-6.29,2.7-.66.3-1.4.57-2.09.22-4.37,2.31-8.72,4.67-13.2,6.75-1.3.44-2.87,1.47-4.3,1.47-.63,0-1.22-.2-1.76-.73ZM39.85,174.13c-.05.12-.12.23-.22.32.23.55.43,1.07.66,1.58.16.08.3.18.43.3l.02.02c.21-.09.43-.17.66-.25.42-.17.84-.35,1.26-.53-1,.14-2.08-.57-2.25-1.59-.18.06-.37.11-.56.14Z"/>
      <path class="cls-5" d="M117.04,140.01c.06-.03.12-.05.19-.08-.01,0-.03.01-.04.02-.04.02-.09.04-.13.06-.04.02-.07.03-.11.05.03-.02.06-.04.1-.05Z"/>
      <path class="cls-5" d="M75.45,162.42c-.36-.13-.68-.35-.93-.63-.36.4-1.07.21-.98-.38.05-.29.29-.47.49-.68-.16-1.38.83-2.57,1.91-3.31-.19-.02-.37-.07-.54-.14-1.43.72-3.17,1.53-4.57,2.05-.58.26-1.27.25-1.75-.21-.77-.55-.88-1.67-.25-2.38,2.37-1.9,5.57-2.96,8.13-4.52,6.71-3.91,13.76-7.06,21.15-9.39.09-1.48,1.94-1.92,3.02-2.39,2.04-.83,4.07-1.57,6.1-2.38.62-1.09,2.12-1,3.16-1.34,2.04-.51,4-1.09,6-1.75,1.9-.51,6.35-2.79,6.2.85-.18.86-.86,1.35-1.61,1.71-1.41.67-2.86,1.24-4.34,1.71-1.26.86-2.42,1.86-3.52,2.91,1.3-.7,2.5-1.48,3.82-2.11-.03.02-.06.03-.09.05,0,0,0,0,0,0,.07-.04.13-.08.2-.11.04-.02.09-.04.13-.06,1.82-.75,3.49,1.76,1.83,3.14-3.3,2.23-6.86,4.1-10.21,6.26-.51.49-1.23.77-1.93.54-2.79.58-3.39-2.07-2.13-4.07-5.64,2.59-11.3,5.17-16.9,7.84-.14.87-.79,1.54-1.54,1.95-.13,1,1.06,1.66.71,2.75-.03.16-.09.32-.16.47-.34.14-.68.28-1.02.43,0,0,0,0,0,0,0,0,.02,0,.03-.01,0,0-.02,0-.03.01,0,0,0,0-.01,0-.02,0-.03.01-.04.02.01,0,.03-.01.04-.02-.22.09-.43.18-.64.27-.04,0-.07.01-.1.02l-.23.09c-.16.07-.31.13-.46.21-.09.04-.17.08-.26.12-.49.21-.98.43-1.46.65-.24.11-.49.23-.73.34-1.8.7-3.56,1.52-5.46,1.72-.36-.02-.7-.14-1.03-.26Z"/>
      <path class="cls-5" d="M40.59,177.15c-2.03-1.09-3.17-3.39-4.63-5.1-1.22-1.52-2.64-2.85-3.82-4.4-1.46-.25-2.07-1.46-2.7-2.66-.94-1.15-1.09-3.67.86-3.73,1.02.02,1.47,1.04,1.92,1.8.44,1.12,1.45,2.01,1.73,3.15,1.68,3.11,4.67,5.19,7.08,7.64.33-.22.72-.29,1.13-.3.3,0,.6,0,.89.05,1.48-1.28,2.77.96.97,1.69-.13.32-.36.55-.65.7-.39.95-1.81,1.5-2.77,1.16Z"/>
      <path class="cls-5" d="M60.34,162.01c-1.25-1.23,1.36-2.72,2.3-1.8,1.5,1.65-1,2.68-2.3,1.8Z"/>
      <path class="cls-5" d="M105.5,147.21c-.76.03-1.68.14-2.39-.23-1.26-.58-1.03-2.55.35-2.84,1.1-.08,2.73-.28,3.26.93,0,0,0,0,0,0,0,0,0,0,0,0,.01,0,.03,0,.04,0,.51-.51,1.47-.27,1.71.41.43,1.66-1.79,1.99-2.98,1.71Z"/>
      <path class="cls-5" d="M126.93,136.54c.09-.56.6-.9,1.11-.85,1.65-.62,5.43-4.13,6.77-2.01.82,1.94-1.96,2.62-3.31,3.09-1.27.31-4.47,2.13-4.58-.24Z"/>
      <path class="cls-8" d="M94.39,134.79c-1.07-.3-1.25-1.91-.25-2.42.87-.41,1.89-.43,2.71-.96,2.81-1.32,5.35-3.13,8.16-4.44,2.36-1.08,4.78-2.04,7.06-3.3,3.49-1.93,6.97-4.03,10.79-5.25,1.73-.44,2.99,1.85,1.65,3.06-1.04.88-2.32,1.43-3.45,2.19,1.17.84.45,2.86-1,2.78-1.23-.09-2.76.23-3.7-.77-.96.44-1.86.87-2.77,1.28.05-.02.1-.05.16-.07-5.22,2.24-10.1,4.97-15.41,6.93-1.3.34-2.57,1.36-3.95.96Z"/>
      <path class="cls-8" d="M134.38,120.84c-.07-.08-.14-.17-.2-.26-2.17.2-2.76-2.55-.76-3.35.06-.54.49-.91.9-1.22-.14.07-.3.1-.45.14-.75.43-1.51-.67-.85-1.21,1.03-1.71,3.08-2.47,4.82-3.26.51-.72,1.54-.91,2.35-1.12,1.24-.19,2.12,1.37,1.34,2.34-.06.73-.55,1.29-1.11,1.77.4.2.73.56.89.97.22.58.11,1.28-.27,1.76.18,2.05-2.41,2.28-3.7,3.23-.85.7-2.1,1.15-2.96.2Z"/>
      <path class="cls-8" d="M79.71,150.16c-1.13.14-2.03-1.09-.93-1.85.56-.25.9-.94,1.56-.85.09-.05.19-.1.28-.16.18-.1.37-.19.56-.28-1.11-.04-3.14.08-2.85-1.58-.08-.06-.16-.13-.23-.2-1.94.09-2.66-2.53-.96-3.47,1.13-.58,2.41-.87,3.59-1.36,1.22-.42,2.39-.96,3.62-1.34.95-.26,1.96.32,2.31,1.21.23.59.14,1.24-.18,1.75-.02.52-.27,1.03-.67,1.36.04.39-.06.79-.3,1.1.58.05,1.15-.11,1.71-.12,1.17.02,1.95,1.41,1.28,2.39,0,0,0,0,0,0-.4.68-1.11,1.23-1.94,1.1-2.24.81-4.56,2.06-6.86,2.28Z"/>
      <path class="cls-4" d="M72.38,150.27c-1.26-.26-.95-1.94.18-2.12-.76-2.36,3.12-2.76,2.92-.33.59.55.4,1.69-.39,1.94-.9.19-1.81.46-2.71.51Z"/>
      <path class="cls-6" d="M67.95,131.78c-.47-.05-.97-.01-1.42-.16-.66-.27-.62-1.2-.05-1.53.85-.39,1.79-.51,2.7-.73,4.95-2,9.92-3.87,14.67-6.32,2.87-.88,5.78-1.8,8.77-2.35.78-.2,1.6.25,1.89.99.67,2.01-1.83,2.34-3.16,2.92-2.19.74-4.38,1.52-6.59,2.18,0,0,0,0,0,0-3.49,1.36-7.04,2.58-10.7,3.43-1.4.87-3.31.66-4.87,1.27-.29.37-.8.34-1.22.3Z"/>
      <path class="cls-1" d="M41.1,134.53c-.79.05-1.71-.56-1.55-1.43.36-1.33,1.89-1.73,2.97-2.32.41-.35.9-.94,1.48-.53.46-.23.91-.45,1.37-.69.71-.37,1.43-.74,2.14-1.12.15-.32.41-.6.74-.79.38-.22.82-.36,1.24-.5,1.29-1.23,3.4-1.29,4.97-2.13.9-.36,1.96.13,2.3,1.03.58,1.51-.89,2.38-2.11,2.77-.79,1.26-2.59,1.1-3.84,1.65-1.92.88-3.61,1.69-5.47,2.49-.43.86-1.49,1.02-2.35,1.23-.62.14-1.25.33-1.89.34Z"/>
      <path class="cls-1" d="M77.92,103.43c-.15-.6.23-1.28.82-1.45.8-.33,1.59-.67,2.38-1.02-1.48.16-2.49-1.58-1.63-2.79-1.91-1.68-.13-4.23,2.16-3.91.12-.44.36-.85.71-1.18.2-.18.41-.33.64-.44-.28-4.54,5.58-2.55,8.34-2.78,1.24-2.6,4.8-1.52,7.13-1.96.01-1.52,1.35-2.8,2.88-2.69.45-2.57,3.4-2.55,5.46-2.38,1.92.19,4.12-.23,5.79.92.23-.03.46-.07.7-.1,1.75-.33,3.51-.66,5.24-1.08.59-1.84,2.65-1.9,4.26-1.64,2.15-.12,4.38,1.67,3.36,3.93-.3.78-.93,1.26-1.6,1.71-1.24,2.41-2.37,4.94-4.4,6.83.39-.19.78-.37,1.2-.49,0,0,0,.01,0,.02,2.65-.52,4.78-2.62,7.13-3.92,2.14-1.15,4.24-2.39,6.56-3.16,1.8-3.11,6.19-.02,4.75,2.9-.39.76-1.06,1.37-1.8,1.75-4.76,2.31-9.1,5.58-14.36,6.68-2.25,2.16-5.43,2.12-8.31,2.61-1.12.22-2.39.62-3.44,0-.96-.58-1.15-2.09-.27-2.84.51-.47,1.2-.46,1.76-.82.65-.99,1.01-2.2,1.73-3.17,1.12-1.67,2.64-3.1,3.41-5-2.3.46-4.57.93-6.89,1.23.14,2.63-2.93,3.22-4.98,3.33.02,2.81-2.76,2.86-4.88,2.77-.34.9-1.16,1.49-2.14,1.65-.96.15-1.93.22-2.9.27-.38.38-.88.64-1.44.72-.32.91-1.61,1.31-2.33,1.41-1.4.18-2.62.8-3.9,1.35-1.37,1.74-4.25,1.76-6.23,2.51-1.4.27-4.19,2.24-4.91.22Z"/>
      <path class="cls-1" d="M137.08,88.72c-.25-.59-.53-1.13-.83-1.68-.64.04-1.23-.4-1.47-1.01-1.61-3.3-3.48-6.47-5.25-9.7-.64-1.43-1.87-2.73-2.01-4.33.01-1.3,1.52-2.1,2.61-1.41.89.48,1.5,1.81,2,2.53,2.91,4.59,5.16,9.55,7.3,14.53.34.61.09,1.42-.53,1.75-.68.37-1.5.04-1.82-.68Z"/>
      <path class="cls-1" d="M106.7,45.2c.02-.7.6-1.23,1.29-1.23s1.25.61,1.23,1.29c-.02.7-.6,1.23-1.29,1.23s-1.25-.61-1.23-1.29Z"/>
      <path class="cls-1" d="M127.45,72.34c-1.96-2.61-3.02-5.73-4.77-8.46-3.56-5.69-6.48-11.79-10.3-17.3-1.02,1.36-1.99-1.03-1.84-1.94.06-.88,1.04-1.16,1.71-.73.93.7,1.58,1.69,2.3,2.6,1.95-1.39,2.81,1.24,3.66,2.47,1.91,3.06,3.85,6.28,5.74,9.31,2.6,3.8,4.63,7.94,7.26,11.71,1.33,2.37-2.2,4.59-3.78,2.36Z"/>
      <path class="cls-1" d="M112.67,48.27c-.32-.88-.53-1.8-.95-2.64-.75-.78-1.42-1.67-1.99-2.6-1.29-2.42-3.07-4.59-4.63-6.76,0,0,0,0,0,0l.02.03c-1.89-2.56-3.54-5.3-5.59-7.75-.6-.77-1.68-1.57-1.35-2.64.19-2.18,3.53-1.83,3.28.33,2.7,3.31,5.05,6.91,8,10.02,2.03,2.05,5.78,5.82,4.7,8.93.12,1.28,1.93,2.91.25,3.83-.68.32-1.5-.04-1.75-.77Z"/>
      <path class="cls-7" d="M122.49,47.35c-2.12-2.95-4.82-5.67-6.32-8.99-.6-2.66,3.45-3.11,3.47-.41.25.45.52.88.8,1.31.27.04.53.16.74.35.03-.02.06-.05.1-.07.08-.05.16-.09.25-.13,0-2.35,1.92-4.54,4.3-3.06,1.97-1.26,3.94,1.08,3.54,3.05.11.79.42,1.63.11,2.41,1.15,2.2.03,5.22-2.75,4-.11.15-.23.29-.37.4-.42.35-.91.48-1.42.45-.12,1.15-1.74,1.61-2.45.68Z"/>
      <path class="cls-7" d="M116.91,47.73c-1.82-2.39-3.64-4.77-5.28-7.29-.38-.56-.93-1.24-.64-1.95.28-.8,1.38-.87,1.85-.2.41.03.72.43.67.84,1.91,2.38,3.58,4.77,5.24,7.26.32.46.19,1.14-.23,1.48-.46.38-1.23.35-1.61-.14Z"/>
      <path class="cls-7" d="M136.96,71.96c-1.78-3.04-3.54-6.07-5.07-9.21-.4-1.23.78-2.68,2.07-2.15.68.21,1.19.8,1.88,1,.51-.08,1.04.04,1.49.34.23.15.43.33.61.52,2.89-1.22,4.09,2.93,5.67,4.58,1.53,2.55-2.35,4.7-3.78,2.08-.12.04-.24.07-.36.08.42.92.81,1.94.11,2.83-.71.89-1.95.85-2.63-.07Z"/>
      <path class="cls-7" d="M157.91,50.19c-.02-.06-.03-.11-.05-.17-1.47,1.14-3.47.91-4.22-.93-1.17-1.93-3.42-6.52.49-6.64.93-1.13,3.04-1.63,4.25-.72,2.1.21,2.72,2.41,3.3,4.12.37,1.53,1.45,3.19.71,4.75-.88,1.87-3.95,1.63-4.48-.39Z"/>
      <path class="cls-7" d="M142.32,26.62c-2.52-.74-6.57-4.4-3.32-6.64.24-.52.76-.76,1.32-.68.1.02.2.03.3.05.28-1.55,2.14-2.45,3.56-1.83.42-.33.82-.7,1.23-1.05,0-.03,0-.05,0-.08-.03-.22.22-.32.39-.25.05-.04.09-.07.14-.11.83-.65,1.87-1.04,2.91-.83,1.89-1.17,3.79-2.32,5.68-3.48,1.06-.71,2.4-1.72,3.71-1.07.54-.86,1.63-1.36,2.63-1.28,4.25.57,2.73,7.32,3.36,10.34.65,3.81-5.24,4.48-6.68,1.56-2.18.85-3.83-1.44-3.69-3.44-.58.38-1.17.76-1.76,1.14-.33.22-.68.43-1.02.63-.22.67-.61,1.3-1.07,1.82-.73.82-1.66,1.46-2.7,1.8-.05.37-.22.73-.48,1.02-.16.17-.35.31-.55.41-.26,1.82-2.37,2.58-3.95,1.97Z"/>
      <path class="cls-7" d="M125.67,97.98c-1.67-.43-1.4-2.57.08-3.09,2.08-1.03,4.15-2.06,6.09-3.34,2.45-1.45,5.03-2.62,7.58-3.88,1.3-.82,3.32-1.28,4.11.45.45.97.09,2.1-.79,2.69-2.69,1.54-5.63,2.6-8.37,4.06-2.64,1.56-5.6,3.03-8.71,3.11Z"/>
      <path class="cls-3" d="M55.78,89.75c-.69-.66-1.3-1.62-1.84-2.36-1.32-1.96-3.27-3.64-4.13-5.84-2.3-3.17-4.48-6.1-6.63-9.31-.64-.96.72-2.11,1.56-1.3,4.55,5.36,8.43,11.04,12.46,16.72.31.38.64.77.68,1.27.1,1.09-1.41,1.69-2.09.82Z"/>
      <path d="M45.67,93.9c-2.28-2.88-4.89-5.48-6.8-8.62-1.65-2.73-3.39-5.39-4.96-8.17-.11-.23-.27-.46-.2-.73.69-1.15,1.52.87,1.96,1.36,1.54,2.26,3.05,4.57,4.55,6.84,0,0,0,0,0,0,1.93,3.04,4.68,5.41,6.65,8.42.34.54-.17,1.13-.69,1.13-.18,0-.36-.07-.5-.23Z"/>
      <path d="M40.22,84.58s0,0,0,.01c0,0,0,0,0-.01Z"/>
      <path d="M40.24,84.6s.02.04.04.05c-.01-.02-.02-.04-.04-.05Z"/>
      <path d="M40.23,84.59s0,0,0,.01c0,0,0,0,0-.01Z"/>
      <path d="M33.54,76.72c-.21-.53.02-1.34.71-1.24,2.45-2.27,4.67-4.84,7.43-6.75.41-.25.97-.11,1.25.26,1.02,1.34-2.51,2.87-3.25,3.79-.97.56-4,4.37-5.5,4.37-.27,0-.5-.13-.64-.43Z"/>
      <path d="M57.31,88.18c-2.02-1.01-2.95-3.23-4.25-4.96-3.3-4.38-6.53-8.81-10-13.06-1-.11-.91-1.71.12-1.64.3-.09.63.04.86.25,1.36,1.43,2.63,2.97,3.87,4.51,2.12,2.87,4.21,5.76,6.16,8.75,1.27,1.72,1.87,4.12,3.72,5.3.18.13.32.27.39.48.1.33-.2.59-.49.59-.15,0-.3-.07-.38-.23Z"/>
      <path d="M47.26,94.98c-.05-.06-.11-.12-.15-.19-.18.06-.36-.07-.39-.25-.01-.46-.34-.86-.25-1.33,0,0,0,0,0,.01.05-.46.67-.57.96-.24.24.3.37.67.63.95.55.38.43,1.3-.31,1.3-.21,0-.38-.11-.51-.26Z"/>
      <path d="M47.44,95.43c.61-.93,1.85-1.31,2.71-1.99,2.38-1.77,5.11-3.05,7.18-5.11.21-.43.69-.7,1.15-.5,1.75,1.29-1.5,2.94-2.5,3.51-2.5,1.51-4.94,3.12-7.49,4.54-.14.13-.32.19-.5.19-.34,0-.64-.22-.55-.64Z"/>
      <path d="M38.77,135.24c-.27-.11-.48-.34-.52-.54-.59-1.18-1.2-2.35-1.82-3.52-3.15-4.84-5.71-10.02-8.38-15.14-3.18-5.04-6.19-10.17-8.88-15.48-2.79-5.54-6.13-10.76-9.01-16.24-2.05-3.82-4.55-7.38-6.89-11-1.05-1.68-2.04-3.39-2.82-5.2-.18-.5-.47-1.16,0-1.57.26-.21.68-.15.87.12t0,0c2.4,4.46,5.52,8.47,8.23,12.73,2.17,3.73,4.3,7.46,6.48,11.18,3.45,5.51,6.25,11.38,9.34,17.1,1.71,3.02,3.73,5.89,5.29,9,1.68,3.48,3.36,6.92,5.37,10.23,1.47,2.28,2.86,4.62,4,7.09.29.62-.27,1.32-.9,1.32-.12,0-.24-.02-.36-.08Z"/>
      <path d="M.25,68.02c-.62-.36.05-1.43.64-1.22,4.57-3.12,9.76-5.33,14.66-7.83,3.48-1.89,6.9-3.93,10.41-5.76,4.73-2.39,9.52-4.27,14.18-6.73,4.85-2.62,9.64-5.38,14.62-7.75,9.29-4.85,18.55-9.75,28.29-13.62,3.98-1.57,8.25-2.61,11.87-4.96.34-.31.79-.33,1.17-.55.33-.44.96-.61,1.47-.49.66-.25,1.57-.43,1.89.39.21.52-.05,1.08-.55,1.3-.69.32-1.42.51-2.12.8-6.94,3.93-14.93,5.52-22.1,9.04-16.15,7.69-31.59,16.79-47.9,24.12-6.75,3.78-13.66,7.3-20.7,10.5-1.67.86-3.3,1.82-4.96,2.7-.16.08-.36.15-.55.15-.12,0-.23-.02-.33-.09Z"/>
      <path d="M138.06,86.16c-1.02-1.8-1.81-3.7-2.75-5.53-2.98-4.21-5.06-8.95-7.77-13.34-1.68-3.53-4.17-6.48-6.04-9.86-2.3-4.78-5.77-8.77-8.74-13.12-4.29-7.74-9.85-14.68-14.31-22.31-.46-.19-.6-.8-.6-1.26.1-.71,1.03-.9,1.53-.46,2.76,3.41,4.74,7.43,7.22,11.06,3.33,4.35,5.59,9.37,8.64,13.89,7.3,9.75,13.36,20.4,19.19,31.07,1.91,2.37,3.55,4.92,4.82,7.69.45.99,1.7,3-.22,3.04-.46-.08-.76-.46-.96-.86Z"/>
      <path d="M40.24,135.02c0-.14.12-.26.27-.26s.26.12.26.27c0,.14-.12.26-.27.26s-.26-.12-.26-.27Z"/>
      <path d="M40.01,135.76c-1.61-1,1.05-2,1.86-2.38,2.46-1.12,4.91-2.24,7.38-3.34,4.03-1.6,7.68-3.93,11.54-5.88,4.36-2.07,9.11-3.33,13.39-5.55,7.59-3.62,14.89-7.65,22.72-10.71,5.87-2.8,11.39-6.35,17.53-8.59,5.35-1.86,10.59-4.28,15.48-7.06,3.3-1.85,6.35-4.38,9.98-5.53.84-.15,1.38.98.67,1.5-1.09.78-2.29,1.36-3.45,2.03-3.96,2.2-7.8,4.67-11.96,6.45-6.79,3.41-14.22,5.31-20.77,9.23-4.59,2.56-9.38,4.66-14.26,6.57-4.43,1.98-8.69,4.55-13.12,6.47-4.51,2.44-9.36,4.02-14.09,5.96-2.96,1.28-5.69,3.02-8.51,4.56-4.53,2.3-9.28,4.25-13.95,6.21,0,0,0,0,0,0-.09.04-.18.06-.27.06-.06,0-.12-.01-.18-.03Z"/>
      <path d="M83.65,125.06c-.44-.12-.69-.5-.96-.85-1.33-1.71-2.5-3.55-3.74-5.33-.37-.13-.33-.63-.57-.91-.44-.5,0-1.36.69-1.09,1.91,1.86,3.23,4.46,5.14,6.36,1.09.33.66,1.85-.3,1.85-.09,0-.17-.01-.27-.04Z"/>
      <path d="M91.33,121.51c-1.03-.76-7.09-8.2-4.75-8.8.5-.14,1.04.3.98.81.2.39.41.78.62,1.09,1.36,1.9,2.75,3.83,4.44,5.45.68.65.04,1.66-.71,1.66-.19,0-.39-.07-.57-.21Z"/>
      <path d="M45.25,146.04c-1.87-1.14-3.1-3.35-4.13-5.23-.16-.59.66-.99,1.02-.49,1.06,1.33,2.03,2.97,3.31,4.05.19.12.39.23.59.33.73.42.28,1.45-.4,1.45-.12,0-.26-.04-.39-.11Z"/>
      <path d="M41.01,141.05c-2.14-.81,2.78-3.02,3.36-3.78.29-.22.6-.5.98-.54.81-.18,1.36.97.6,1.4-1.43.97-2.87,1.79-4.33,2.7-.11.14-.3.23-.48.23-.04,0-.09,0-.13-.01Z"/>
      <path d="M50.12,143.47c-1.89-1.51-3.48-3.42-4.95-5.34-.47-.59.36-1.41.93-.92,1.39,1.39,2.71,3,4.22,4.21.68.02,1.29.89,1.08,1.55-.11.38-.48.64-.85.64-.15,0-.3-.04-.43-.13Z"/>
      <path d="M45.49,146.22c-.66-1.37,1.21-1.83,2.07-2.4.98-.35,2.42-1.79,3.25-.54.81,1.66-2.65,2.32-3.64,3.16-.2.21-.48.3-.75.3-.37,0-.74-.18-.94-.53Z"/>
      <path d="M62.49,136.38c-1-.43-6.62-5.54-3.83-5.92.37.03.75.24.86.59.61.73,1.04,1.31,1.66,1.96.7.78,1.53,1.41,2.25,2.16.26.29.3.71.06,1.02-.14.19-.39.3-.62.3-.13,0-.27-.04-.38-.11Z"/>
      <path d="M57.66,131.47c-.91-1.28,4.52-3.2,5.49-3.38.51-.01.91.54.75,1.02-.45.96-1.74,1.07-2.59,1.53-.99.34-1.89.98-2.91,1.2-.02,0-.04,0-.06,0-.28,0-.54-.12-.68-.38Z"/>
      <path d="M67.7,133.49c-1.68-1.06-2.96-2.64-4.43-3.96-.55-.3-.73-1.21.04-1.36,1.25.1,2.19,1.5,3.11,2.18.72.61,1.44,1.23,2.21,1.79.33.24.4.73.2,1.07-.15.26-.43.4-.71.4-.14,0-.29-.04-.42-.12Z"/>
      <path d="M62.92,136.8c.05-.72.61-1.27,1.22-1.56,1.65-.77,2.75-1.99,3.85-3.36.33-.41.93-.5,1.35-.17,1.63,1.44-3.33,4.66-4.55,5.09,0,.62-.47.93-.95.93s-.93-.3-.93-.93Z"/>
      <path d="M101.18,114.12c-.36-.33-.76-.59-1.11-.93-.48-.5.02-1.37.69-1.15t0,0c1.79.78,3.05,2.41,4.41,3.75.7.51.66,1.68-.35,1.72-1.47-.49-2.38-2.44-3.64-3.39Z"/>
      <path d="M99.87,112.96c-.61-.39-.14-1.09.36-1.32,1.25-.77,2.34-1.78,3.56-2.59.29-.17.67-.11.9.12,1.09,1.16-2.68,2.92-3.5,3.46-.1.21-.34.34-.58.28-.06.03-.12.05-.19.07,0,0,0,0-.01,0-.07.02-.16.04-.24.04-.1,0-.2-.02-.29-.08Z"/>
      <path d="M109.61,113.94c-1.88-.77-3.36-2.31-4.98-3.51-.82-.09-.87-1.33-.07-1.5.2-.05.39-.02.58.05,1.76.97,3.29,2.36,4.98,3.46.83.35.5,1.54-.29,1.54-.07,0-.15,0-.23-.03Z"/>
      <path d="M104.71,117.32c-.12-.48.18-1.02.68-1.14.96-.39,1.71-1.14,2.53-1.77.77-.51,1.81-1.89,2.7-.87.32.41.23,1.02-.18,1.34-.97.5-3.34,3.11-4.79,3.11-.39,0-.72-.2-.93-.68Z"/>
      <path d="M120.89,109.98c-2.04-.74-3.19-2.98-4.81-4.34-.53-.23-.51-1.04.03-1.24.51-.22.99.2,1.34.52.73.68,1.54,1.54,2.21,2.2.52.43,1,.94,1.57,1.27.39.11.65.52.59.91-.06.4-.43.7-.82.7-.04,0-.08,0-.12,0Z"/>
      <path d="M116.93,105.34c-1.65-1.34,2.76-2.27,3.54-2.78,1.02-.26,2.17-2.16,3.17-1.15.28.36.18.84-.15,1.13-1.62,1.57-3.89,1.88-5.89,2.72-.13.07-.28.13-.43.13-.07,0-.15-.01-.23-.05Z"/>
      <path d="M127.85,107.28c-1.97-1.52-3.69-3.36-5.61-4.93-.69-.88.55-1.85,1.3-1.28.16.11.34.21.5.34,1.31.99,2.49,2.05,3.62,3.17.56.7,2,1.46,1.34,2.49-.18.22-.44.34-.71.34-.15,0-.3-.04-.44-.12Z"/>
      <path d="M121.77,110.79c-.58-.09-.94-.71-.74-1.24.16-.54.79-.76,1.21-1.06,1.23-.64,5.69-3.73,6.59-2,.42,1.5-1.84,1.45-2.69,2.05-1.25.57-2.43,1.27-3.58,2-.18.17-.42.27-.66.27-.05,0-.09,0-.13,0Z"/>
      <path d="M25.27,153.96c-1.05-.83.63-1.61,1.18-2.14,3.4-2.75,7.28-4.8,11.19-6.72,1.35-.64,2.62-1.43,3.92-2.16.27-.15.61-.09.8.16.88,1.18-4.16,3.09-4.98,3.62-3.88,1.8-7.6,3.86-10.97,6.5.05.41-.44.82-.86.82-.1,0-.2-.02-.29-.07Z"/>
      <path d="M47.35,140.05c-.55-.29-.44-1.05.23-.9,2.05-.23,11.96-6.32,12.5-4.79.12.29-.03.62-.32.75-.95.4-1.91.79-2.84,1.21-2.39,1.08-4.75,2.24-7.17,3.23-.6.18-1.28.59-1.93.59-.16,0-.32-.02-.47-.08Z"/>
      <path d="M65.42,130.63c.18-.54,1-.73,1.48-.96,7.71-3.05,15.47-5.93,23.11-9.17,4.63-1.45,8.93-3.75,13.18-6,.39-.03.74.23.79.62.04.26-.09.53-.31.67-.8.48-1.62.92-2.43,1.39-4.68,2.79-9.9,4.32-14.89,6.43-6.62,2.81-13.78,5.61-20.61,7.78-.35-.06-.47-.47-.31-.75Z"/>
      <path d="M107.72,112.99c-.58-.7.36-1.12.93-1.31,2.57-1.12,5.13-2.27,7.71-3.36.87-.42,1.85-.7,2.66-1.21.52-.4,1.3.08,1.27.71,0,.43-.32.73-.7.87-3.72,1.27-7.35,2.78-11.02,4.18-.05.22-.25.34-.46.34-.16,0-.31-.07-.39-.23Z"/>
      <path d="M125.57,104.94c-.38-.89.98-1.1,1.5-1.5,2.3-1.21,4.64-2.32,7.01-3.39.44.21.94.3,1.4.45.25.1.5.21.73.33-2.38.92-4.77,1.85-7.07,2.97-.98.46-1.85.92-2.8,1.38-.08.04-.17.06-.25.06-.21,0-.41-.11-.52-.3Z"/>
      <path d="M33.99,159.01c-2.9-.35-5.43-1.87-7.65-3.63-.39-.39-1.11-.44-1.34-.94-.11-.25.01-.56.25-.68.23-.13.45-.1.68-.02,1.52.68,2.78,1.84,4.27,2.58,1.27.68,2.67.79,4.05.99.46.07.8.52.73.98-.06.4-.44.74-.84.74-.05,0-.09,0-.14-.02Z"/>
      <path d="M36.08,158.63c-.57-.02-.84-.77-.5-1.2.68-.65,1.68-.89,2.51-1.29,6.55-2.52,12.27-6.7,18.65-9.59,4.96-2.33,10.2-3.93,15.25-6.04,4.66-2.02,9.31-4.04,14.08-5.79,6.5-2.69,12.98-5.42,19.43-8.23,5.41-2.82,10.71-5.83,16.38-8.11,5.52-2.35,10.52-5.44,15.75-8.34,1.98-1.09,4.06-1.99,6.12-2.9.01.03.02.05.03.08.08.64.14,1.29.2,1.94-6.34,2.98-12.3,6.7-18.61,9.75-3.14,1.45-6.54,2.83-9.59,4.37-3.36,1.68-6.54,3.64-9.95,5.23-11.26,4.94-22.65,9.58-33.94,14.44-6.04,2.37-12.26,4.34-18.04,7.32.04-.02.08-.04.12-.06-5.13,2.6-10.04,5.71-15.53,7.49-.21.78-1.39.46-1.97.77v-.02c-.11.11-.23.18-.4.18h-.01Z"/>
      <path d="M36.24,168.44c-.29-.17-.45-.45-.5-.78-.47-2.88-.91-5.77-1.62-8.57-.23-.8.95-1.32,1.41-.65.18.42.63.98.54,1.42.66,2.45,1.11,4.96,1.71,7.43.2.68-.4,1.3-1.03,1.3-.17,0-.35-.05-.51-.15Z"/>
      <path d="M53.26,165.11c-.37-1.19-.64-2.41-.94-3.62s-.58-2.42-.91-3.62c-.97-.31-.61-1.58.13-1.94,1.16-.42,1.54.98,1.78,1.82.52,1.76.97,3.53,1.46,5.3.59.42.49,1.31.46,1.95-.08.55-.54.84-1,.84-.43,0-.85-.24-.97-.74Z"/>
      <path d="M58.68,161.84c-.75-1.85-1.2-3.87-1.8-5.76-.02,0-.05.02-.07.02-.16.04-.34.02-.48-.06-1.26.64-2.47,1.36-3.74,1.97-.31.14-.69,0-.85-.29-.29-.53.27-1.27.82-1.3,1.17-.46,3.71-3.09,4.68-1.62.57.12.72.77.93,1.23.63,1.75,1.22,3.52,1.89,5.25.23.57-.25,1-.72,1-.26,0-.51-.13-.64-.45Z"/>
      <path d="M53.47,164.81c-.11-.4.16-.82.56-.9,1.66-1.03,3.36-1.99,5.11-2.86.35-.17.77-.08.97.27.19.33.08.79-.26.97-.91.5-1.83.99-2.74,1.48-.73.21-2.08,1.57-2.97,1.57-.29,0-.53-.15-.68-.53Z"/>
      <path d="M70.5,155.12c-.46-1.71-.7-3.53-1.28-5.2-1.3-.05-.89-2.12.22-2.12,1.95.36,2.18,5.19,2.84,6.87.16.69-.38,1.13-.91,1.13-.36,0-.73-.2-.87-.68Z"/>
      <path d="M76.13,152.15c-.65-1.56-1.13-3.18-1.62-4.79-1.29.59-2.58,1.19-3.88,1.78-.62.88-2.08-.15-1.28-.98,1.67-1.07,3.53-1.94,5.35-2.72.73-.18,1.21.52,1.36,1.14.55,1.69,1.11,3.36,1.59,5.07.16.59-.34.99-.82.99-.29,0-.58-.14-.71-.49Z"/>
      <path d="M71.91,154.12c0-.12.06-.23.18-.26.12-.03.27.04.3.16,1.85-.7,3.45-1.95,5.21-2.84.34-.18.77-.07.97.27.38.69-.4,1.08-.93,1.29-1.8.7-3.44,2.07-5.38,2.17-.34-.06-.62-.49-.35-.78Z"/>
      <path d="M91.09,145.53c-1.2-1.65-1.31-3.88-2.05-5.73-.66-.84.54-2.07,1.35-1.27,1,1.71,1.13,4.07,2.12,5.77.54.67-.11,1.51-.79,1.51-.21,0-.43-.09-.62-.29Z"/>
      <path d="M90.3,139.51c-3.09-1.57,4.06-3.93,5.24-4.39.33-.11.66-.21,1.02-.21.9-.02,1.15,1.33.3,1.64-1.82.68-3.68,1.27-5.37,2.24-.02.46-.43.8-.86.8-.11,0-.22-.02-.32-.07Z"/>
      <path d="M97.65,141.49c-.84-1.52-1.39-3.18-2.02-4.79-.2-.43-.3-1,.07-1.38.32-.26.54-.23.85-.36.8-.23,1.36.88.72,1.39.61,1.48,1.27,2.93,1.9,4.39.16.39,0,.84-.36,1.05-.13.07-.27.11-.41.11-.29,0-.59-.15-.74-.42Z"/>
      <path d="M93.33,144.31c1.69-.66,3.34-1.4,4.91-2.29.43-.23.96-.1,1.21.33.57,1.14-1,1.49-1.72,1.92-1.34.61-2.79,1.34-4.23,1.53-.81-.06-.93-1.21-.18-1.5Z"/>
      <path d="M110.56,137.4c-.71-1.35-1.16-2.82-1.72-4.24-2.14-.12-1.25-3.54.62-2.88.43.18.62.59.73,1,.63,1.83,1.31,3.54,2,5.33.29.68-.31,1.25-.89,1.25-.28,0-.56-.13-.74-.45Z"/>
      <path d="M108.76,131.57c-.69-.53-.22-1.73.65-1.65,1.02-.56,2.73-2.75,3.87-1.64.29.37.23.98-.17,1.25-.79.54-1.57,1.07-2.35,1.61-.38.3-.9.68-1.39.68-.21,0-.42-.07-.61-.25Z"/>
      <path d="M116.03,134.4c-1.06-.46-1.19-1.91-1.67-2.85-3-5.98,2.55-5.05,1.09-2.71.49,1.38,1.07,2.72,1.62,4.08.41.69,0,1.53-.73,1.53-.1,0-.2-.02-.31-.05Z"/>
      <path d="M112.07,137.98c-.37-.01-.71-.23-.85-.58-.38-1.4,1.66-1.74,2.52-2.38,1.02-.36,2.46-1.93,3.36-.67.65,1.42-1.41,1.79-2.29,2.36-.59.29-1.19.57-1.78.87-.19.28-.54.39-.87.39h-.09Z"/>
      <path d="M127.36,128.67c-.64-1.97-.96-4.06-1.48-6.06h0c-.24-.8.9-1.37,1.39-.68.99,1.72,1.31,3.92,2.01,5.76.46.89-.26,1.64-.98,1.64-.37,0-.74-.2-.95-.66Z"/>
      <path d="M132.4,126.67c-.67-2.01-.91-4.14-1.52-6.17-1.16.57-2.35,1.07-3.52,1.62-.31.68-1.34.14-1.08-.51.7-.91,1.99-1.21,2.97-1.76.64-.25,2.33-1.18,2.35.08,1.07,1.89,1.34,4.23,2.19,6.18.24.58-.26,1.03-.75,1.03-.27,0-.53-.14-.65-.46Z"/>
      <path d="M128.23,128.74c-.14-.36,0-.79.34-.98,1.21-.34,2.38-.88,3.54-1.39,1.07-.47,1.78,1.27.68,1.68-1.19.46-2.45.75-3.64,1.16-.06.02-.13.02-.19.02-.31,0-.61-.19-.73-.49Z"/>
      <path d="M37.04,168.36c0-.22.19-.39.41-.39s.39.19.39.41c0,.22-.19.39-.41.39s-.39-.19-.39-.41Z"/>
      <path d="M37.11,169.67c-.57-.31-.44-1.22.11-1.47.29-.12.64.11.62.43,5.23-1.04,9.79-4.26,14.93-5.57.71-.02,1.04.98.46,1.39-1.78.98-3.79,1.49-5.65,2.31-2.49,1.01-4.95,2.13-7.57,2.79-.62.11-1.31.31-1.96.31-.32,0-.63-.05-.93-.18Z"/>
      <path d="M58.84,161.41c-.37-.16-.57-.58-.46-.96.21-.64,1.02-.64,1.52-.94,2.97-1.25,5.88-2.63,8.56-4.42.95-.42,2.36-2.06,3.26-.88.23.41.09.97-.32,1.2-3.4,2.05-6.83,4.02-10.55,5.44-.57.14-1.13.62-1.71.62-.1,0-.2-.02-.3-.05Z"/>
      <path d="M76.58,151.27c.27-.68,1.23-.66,1.82-.91,2.67-.74,5.07-1.79,7.41-3.2.91-.41,6.77-4.62,5.89-1.56-4.5,2.78-9.45,5.77-14.76,6.39-.29-.11-.43-.43-.36-.73Z"/>
      <path d="M97.45,142.16c-.22-.09-.31-.38-.19-.59.05-.08.12-.14.2-.17h0c4.32-1.34,8.37-3.51,12.48-5.35.82-.45,1.5.72.63,1.15-2.72,1.48-5.64,2.53-8.52,3.7-1.43.43-2.91,1.27-4.41,1.27-.06,0-.12,0-.19,0Z"/>
      <path d="M115.56,133.9c-.28-.47-.06-1.03.36-1.32.38-.36.93-.23,1.36-.52,2.65-1.33,5.22-2.86,7.99-3.97.93-.12,1.71-.52,2.54-.96.63-.28,1.17.65.6,1.05-1.93,1.34-3.92,2.62-6.04,3.62-1.2.39-4.17,2.52-5.86,2.52-.41,0-.74-.12-.95-.43Z"/>
      <path d="M132.88,125.98l.04.02c-.51-.09-.54-.77-.06-.94,2.75-1.46,5.47-3.02,8.31-4.3.4-.18.8-.36,1.2-.54.11.46.22.93.33,1.39-.71.3-1.43.6-2.14.91-2.45,1.05-4.7,2.36-7.16,3.38-.08.09-.2.13-.31.13-.07,0-.14-.02-.21-.05Z"/>
      <path d="M28.68,164.12c-.37,0-.73-.34-.7-.73.08-1.11.13-2.22.12-3.33.16-.82-.64-3.85.66-3.66.2.06.36.25.38.46.22.1.33.37.23.6-.03.07-.08.13-.13.18-.03,1.09.92,6.48-.5,6.48-.01,0-.02,0-.04,0Z"/>
      <path d="M37.78,179.21c-1.52-1.6-2.26-3.81-3.46-5.65-1.8-3.01-3.87-5.91-4.97-9.27-.39.14-.53-.2-.14-.64,0-.06,0-.11.01-.17,0,0,0,0,0,0,.78-1.55,2.41,3.03,2.88,3.59,2.29,3.61,4.36,7.35,6.18,11.21.54.25.21,1.01-.26,1.01-.08,0-.16-.02-.25-.07Z"/>
      <path d="M39.46,178.57c-.37-2.85-.34-5.75-.17-8.61.07-.64,0-1.71.89-1.71.45,0,.83.34.82.81-.03,1.31-.09,2.62-.04,3.93-.22,1.36,1.09,6.04-.71,6.19-.36,0-.71-.21-.79-.6Z"/>
      <path d="M39.24,181.08c-.41,0-.66-.41-.71-.81-.05-.42.12-.84.6-.8.34-.66.14-2.11,1.18-2.05.34.05.64.41.56.76-.3.98-.31,2.75-1.6,2.91h-.02Z"/>
      <path d="M38.1,179.68c-.17-.3-.57-.44-.55-.84-.04-.41.36-.74.75-.68.38.05.64.42.88.71.39.5-.09,1.09-.58,1.09-.18,0-.36-.08-.5-.27Z"/>
      <path d="M39.76,179.91c3.91-2.14,8.2-3.44,12.18-5.45,4.84-2.13,9.44-4.72,14.21-6.98,6.64-3.2,13.59-5.72,20.06-9.25.77-.18,1.14.95.39,1.25-3.65,2.09-7.41,4.01-11.37,5.45-7.57,3.01-14.7,6.91-22.08,10.31-4.45,2.11-9.11,3.85-13.51,5.97-1.03-.04-.98-1.65.11-1.3Z"/>
      <path d="M86.21,158.21c-.11-1.04-.56-2.27-.02-3.23.61-.78,1.88.04,1.39.91-.09.95.97,2.49-.31,2.95-.07.02-.14.02-.21.02-.39,0-.77-.26-.85-.65Z"/>
      <path d="M86.3,155.69c-.65-.47-.27-1.59.55-1.48,5.25-3.06,10.77-5.58,16.43-7.79.29-.1.6-.04.79.22,1.04,1.51-5.44,3.23-6.52,3.92-3.05,1.25-5.94,2.84-8.8,4.45-.59.24-1.25.84-1.91.84-.18,0-.36-.05-.54-.16Z"/>
      <path d="M104.52,148.92c-.6-.26-.54-1.12-.86-1.57-.46-.51.03-1.44.73-1.17.66.3.93,1.05,1.21,1.67.25.54-.24,1.14-.78,1.14-.11,0-.21-.02-.32-.07Z"/>
      <path d="M105.01,150.94c-.31-.13-.63-.48-.39-.82-.07-.54.61-.92,1.03-.57.5.4.25,1.44-.38,1.44-.08,0-.16-.02-.25-.05Z"/>
      <path d="M105,150.8c-.55-.31-.96-1.86-.12-2.06.68-.16.86.57.93,1.09.31.43-.07,1.03-.55,1.03-.08,0-.17-.02-.25-.06Z"/>
      <path d="M104.8,151.2c-.35-.39.06-.77.44-.93,4.22-2.73,8.61-5.31,13.35-7.02,3.76-2.05,7.4-4.33,11.09-6.51,3.45-1.71,7.05-3.18,10.04-5.7,1.46-1.06,2.8-2.33,4.34-3.29.12.6.4,1.13.79,1.54-2.34,1.65-4.61,3.43-7.04,4.96-3.35,2.16-7.27,3.2-10.51,5.58-4.1,2.45-8.19,5-12.71,6.57-2.87,1.41-5.63,3.03-8.43,4.56-.3.13-.64.4-.97.4-.13,0-.25-.04-.38-.15Z"/>
      <path d="M144.29,106.48c-1.52-.05-2.54-1.4-3.74-2.16-1.84-1.22-3.95-1.98-5.82-3.14-.41.13-1.01-.6-.77-.98.63-.73,1.87.43,2.6.63,2.43,1.06,4.88,2.07,6.89,3.84.32.19.56.36.91.44.31-.07.68-.02.87.26.41.5-.05,1.2-.6,1.2-.11,0-.23-.03-.34-.1Z"/>
      <path d="M143.03,108.36c-.73-.8.59-1.28.82-1.94.07-.46.31-1.01.87-.92.55.07.94.75.52,1.2-.12.68-.92,1.85-1.7,1.85-.17,0-.34-.06-.51-.19Z"/>
      <path d="M142.93,121.81c-.57-.06-.83-.73-.66-1.23.57-2.06.53-4.29.92-6.41.29-2.5.79-4.98,1.26-7.45.06-.52.54-1.39,1.06-.73.02,3.18-.88,6.45-1.05,9.68-.2,1.68-.31,3.38-.54,5.06,0,.52-.31,1.1-.86,1.1-.04,0-.08,0-.13,0Z"/>
      <path d="M143.38,128.89c-.5-.22-.63-.76-.68-1.25-.16-1.97-.42-3.93-.61-5.9-.15-.39.03-.9.45-1.07.53-.22,1.07.18,1.11.7.38,1.96.62,3.96.8,5.95.72.55.12,1.7-.64,1.7-.14,0-.29-.04-.43-.13Z"/>
      <path d="M21.64,121.07c-.64-.89.91-1.42,1.42-1.95,1.63-1.07,3.16-2.29,4.79-3.34,1.11-.64,2.21,1,1.17,1.77-.55.41-1.19.7-1.79,1.02-1.52.79-3.09,1.48-4.54,2.43-.13.16-.35.24-.57.24-.18,0-.36-.05-.48-.18Z"/>
      <path d="M28.73,132.17c-.37-.18-.75-.34-.95-.71-.63-1.3-1.65-2.36-2.27-3.68-1.15-2.36-3.05-4.3-4.01-6.72-.24-.84,1-1.34,1.42-.57.97,1.72,2.24,3.1,3.18,4.82.93,1.57,1.79,3.35,2.85,4.82.62.64,1.12,2.05.05,2.05-.08,0-.18,0-.28-.02Z"/>
      <path d="M28.6,132.26c0-.46.32-.92.97-.86,1.51-.67,2.94-1.52,4.46-2.14.75-.3,1.77-.96,2.41-.14.28.37.28.9,0,1.27-.94.79-2.34.89-3.44,1.48-1.11.41-2.17,1.12-3.37,1.25-.04,0-.07,0-.11,0-.61,0-.91-.43-.91-.87Z"/>
      <path d="M125.49,104.14c-.43-1.18-.55-2.46-.88-3.68-.21-1.32-.88-2.7-.55-4.04.26-.67,1.33-.51,1.39.2.52,2.28,1.23,4.64,1.69,6.98.09.58-.42.97-.92.97-.29,0-.57-.13-.73-.44Z"/>
      <path d="M133.01,101.01c-.54-.54-.4-1.42-.57-2.11-.22-1.66-.54-3.29-.85-4.92-.79-.03-.49-.72-.17-1.13.13-.36.58-.52.89-.27,1.08,1.79,1.23,4.17,1.74,6.19.06.6.3,1.19.24,1.79-.09.38-.45.63-.82.63-.17,0-.34-.05-.48-.17Z"/>
      <path d="M140.33,103.19c-.04-.36.21-.72.57-.8,1.73-.89,3.25-2.34,5.07-3.05.86-.12,1.41,1.01.77,1.6-.78.54-1.76.81-2.55,1.29-.72.25-2.16,1.6-3.09,1.6-.34,0-.61-.18-.75-.64Z"/>
      <path d="M147.02,106.47c-.65-1.71-1.03-3.6-1.46-5.39-.18-.82.98-1.31,1.25-.43,0,0,0,0,0,0,.36,1.58,1.09,3.03,1.43,4.61.09.42.15.89-.18,1.22-.13.14-.33.21-.53.21s-.38-.07-.51-.22Z"/>
      <path d="M144.9,110.27c-1.75-.92,1.62-2.17,2.32-2.62.3-1.09,1.98-.26,1.48.69-.5.84-1.7.83-2.5,1.3-.45.15-.79.62-1.27.62h-.03Z"/>
      <path d="M147.63,107.87c-.35-.11-.43-.73-.04-.83.29-.07.46.17.48.41.02.22-.08.43-.32.43-.04,0-.07,0-.12-.02Z"/>
      <path d="M147.67,108.51c-.31-.13-.49-.47-.44-.8.02-.15.09-.29.19-.4-.12-.48-.27-1.2.4-1.29.32-.04.61.2.65.52.05.41.1.81.24,1.2.06.45-.34.84-.76.84-.1,0-.2-.02-.29-.06Z"/>
      <path d="M146.06,100.44c-.79-.83,1.49-1.49,2.01-1.88,3.93-1.51,7.07-4.43,11-5.84.91-.23,4.83-1.46,5.02-.19.04.31-.17.6-.46.68-1.45.26-2.95.33-4.33.87-.84.51-2.07.62-3.09,1.38-2.47,1.61-5.14,2.96-7.85,4.1-.29.14-.54.26-.79.38-.4.13-.81.58-1.23.58-.1,0-.2-.02-.29-.09Z"/>
      <path d="M146.86,102.76c0-.25.21-.44.46-.44s.45.21.44.46c0,.25-.21.44-.46.44s-.45-.21-.44-.46Z"/>
      <path d="M146.93,103.51h0c-.09-.12-.12-.28-.09-.42-.12-.29.06-.65.37-.72.14-.04.28-.01.39.05,4.86-3.29,10.28-5.78,15.02-9.24.21-.81,1.67-.5,1.32.36-.44.64-1.27.95-1.84,1.49-4.38,2.91-9.1,5.3-13.58,8.05-.35.18-.79.63-1.19.63-.14,0-.28-.05-.4-.2Z"/>
      <path d="M110.34,39.65c-.61-.03-.52-.85-.36-1.23,1.45-1.18,3.3-1.83,4.9-2.82,4.98-2.53,9.41-6.41,14.82-7.98.7-.02.97,1.01.35,1.34-6.63,2.93-12.31,7.84-19.22,10.14.03.29-.18.56-.47.56h-.02Z"/>
      <path d="M133.97,28.33c-1.93-1.65-3.09-4.1-4.73-6.04-.42.27-1.05-.14-.94-.64.09-.46.09-1.06.66-1.2.32-.1.67.12.89.34,1.32,1.41,2.43,3.03,3.65,4.54.48.68,1.12,1.25,1.51,1.98.23.54-.23,1.09-.74,1.09-.1,0-.2-.02-.3-.07Z"/>
      <path d="M129.05,27.65c-.24-1.58-.27-3.34-.59-4.89-.83-.38-.02-1.48.66-1.02.96,1.6.7,3.73,1.28,5.5.12.5-.32.84-.73.84-.25,0-.5-.13-.61-.43Z"/>
      <path d="M134.58,34.04c-1.27-1.85-2.89-3.48-4.59-4.9-.27-.18-.56-.48-.41-.82.68-1.47,5.53,3.8,5.99,4.64.56.57.14,1.37-.42,1.37-.18,0-.38-.09-.57-.29Z"/>
      <path d="M135.21,29.16c-.7-.2-.76-1.25-.05-1.48,1.71-.62,3.09-1.91,4.79-2.53.67-.16,1.24.51.98,1.14-.64,1.06-1.92,1.56-2.96,2.16-.72.34-1.51.77-2.32.77-.14,0-.29-.02-.44-.05Z"/>
      <path d="M135.73,34.5c-.48-1.36-.61-2.82-.92-4.23-.08-.43-.39-1.66.43-1.32.75,1.61.8,3.61,1.66,5.16.06.41-.3.69-.65.69-.2,0-.4-.09-.52-.3Z"/>
      <path d="M138.65,32.53c.97-.43,2.12-2.49,3.2-1.41.69,1.06-.85,1.58-1.52,2.09-1.12.64-2.25,1.54-3.52,1.77-1.62-.8,1.26-1.93,1.84-2.45Z"/>
      <path d="M150.11,63.21c0-.33-.02-.66-.06-.98.16-.79.24-1.61.3-2.41.09-4.57.23-9.29-.96-13.72-2.57-6.84-7.02-12.8-9.9-19.5-.59-.71.22-1.66.95-.93,3.42,6.3,7.26,12.46,9.99,19.11,1.41,3.63,1.44,7.55,1.57,11.4.02.82.05,3.25-.21,5.36-.14.14-.29.27-.42.41l-1.21,1.24s-.04.04-.05.05v-.02Z"/>
      <path d="M150.64,61.26c.15-.66,1.14-.16.66.35,0,.14-.01.28-.02.41-.36.38-.73.75-1.09,1.13.11-.64.25-1.28.45-1.89Z"/>
      <path d="M144.1,80.26c-1.74-.69-3.24-1.98-4.96-2.73-1.88-1.11-3.89-1.27-5.8-2.16-.6-.3-.57-1.25.11-1.41,1.22.11,2.47.54,3.68.81,2.68.86,5.14,2.3,7.33,4.05,1.1.13.78,1.46-.13,1.46-.07,0-.15,0-.23-.03Z"/>
      <path d="M154.78,72.56h0,0s0,0,0,0h0s0,0,0,0h0,0s-.02-.02-.04-.03c.03.02.06.04.09.06l-.05-.02Z"/>
      <path d="M154.68,72.49s.04.02.06.04c-.02-.01-.04-.02-.06-.04Z"/>
      <path d="M154.62,72.46s.04.02.05.04c-.02-.01-.04-.02-.05-.04Z"/>
      <path d="M154.86,72.58h.01s0,0-.01,0Z"/>
      <path d="M154.97,72.71s-.02-.02-.03-.03c.02.02.03.04.05.05l-.02-.02Z"/>
      <path d="M155.01,72.74s0,0,0-.01c0,0,0,0,0,.01h0s0,0,0,0Z"/>
      <path d="M154.98,72.71l.02.02s-.01-.01-.02-.02Z"/>
      <path d="M155.02,72.75s0,0,0,0c0,0,0,0,0,0Z"/>
      <path d="M155.01,72.74h0s0,0,0,.01c0,0,0,0,0-.01Z"/>
      <path d="M155.02,72.76h-.01s0-.02,0-.02l.03.03h-.01Z"/>
      <path d="M155.03,72.76s0,0,0,0c0,0,0,0,0,0Z"/>
      <path d="M155.04,72.78h0,0Z"/>
      <path d="M155.07,72.81s.02.02.04.04h0l-.04-.04Z"/>
      <path d="M144.37,79.67c-.14-.56.48-.89.8-1.2,2.72-2.27,5.64-4.29,8.43-6.47.16.1.32.19.49.27.21.11.39.25.62.33.08.03.16.05.23.07.01,0,.02.02.03.03h-.01s.02.02.04.03l.02.02s0,.01.02.02c0,0,.01.01.02.02.02.02.03.04.04.05-.77.96-2.04,1.57-2.94,2.4-2.07,1.47-4.27,2.77-6.24,4.37-.24.24-.66.5-1.01.5-.24,0-.45-.12-.55-.45Z"/>
      <path d="M144.9,85.69c-2.44-.8-4.78-2.1-7-3.38-.44.41-1.2-.07-1.02-.66.11-.46.41-1.02.97-.91,2.42,1.19,4.9,2.29,7.39,3.33.92.26.68,1.63-.2,1.63-.05,0-.1,0-.15-.01Z"/>
      <path d="M146.37,84.82c-1.1-.28-1.28-1.68-1.71-2.56-.28-.95-.95-1.91-.81-2.92.26-.88,1.72-.45,1.38.44.54,1.23.98,2.55,1.78,3.62.57.48.2,1.43-.51,1.43-.04,0-.09,0-.13,0Z"/>
      <path d="M145.35,84.57c-.36-.27-.19-.89.26-.93,2.3-.79,4.03-2.76,6.09-4.02,1.5-.91,2.91-2.13,4.5-2.77.36-.05.73.15.9.46.77,1.48-2.7,2.29-3.6,3.1-2.16,1.25-4.09,2.82-6.31,3.95-.39.15-.85.38-1.29.38-.19,0-.38-.04-.55-.16Z"/>
      <path d="M154.78,72.56s.01,0,.02.01h-.02s0-.01,0-.01c0,0,0,0,0,0l-.18-.12c.08.05.16.1.23.14-.02,0-.04-.02-.05-.02Z"/>
      <path d="M154.99,72.72h0s0,0,0,0h0Z"/>
      <path d="M154.98,72.71h0,0Z"/>
      <path d="M154.97,72.69s.01.01.02.02c0,0,0-.01-.02-.02Z"/>
      <path d="M154.99,72.73s0,0,0,0c0,0,0,0,0,0Z"/>
      <path d="M154.98,72.72s0,0,0,0c0,0,0,0,0,0,0,0,0,0-.01,0Z"/>
      <path d="M154.98,72.71s0,0,0,0c0,0,0,0,0,0Z"/>
      <path d="M155,72.73h0,0Z"/>
      <path d="M155,72.73h0s0,0,0,0Z"/>
      <path d="M155,72.73h0s0,0,0,0Z"/>
      <path d="M155.02,72.76s0,0,0,0t0,0Z"/>
      <path d="M155.02,72.75s0,0,0,0c0,0,0,0,0,0Z"/>
      <path d="M155.06,72.8l-.02-.02h-.01s-.02-.03-.02-.04c.02.02.05.05.07.07h-.01Z"/>
      <path d="M156.62,78.36c-.43-.16-.64-.7-.84-1.09-.62-1.32-1.32-2.61-2.11-3.84-.54-.31-.35-1.05.1-1.32.1.06.2.11.31.16.21.11.39.25.62.32.08.03.16.05.23.07.01.01.02.02.03.04,0-.01-.02-.02-.03-.03l.02.02s.01.01.02.02h0s.01.01.02.02h0s0,0,0,0c0,0,0,.01.02.02,0,0,.01.02.02.02h0s0,0,0,0h0s0,.02.01.02c.02.02.04.05.07.07-.02-.02-.04-.04-.05-.05.04.04.07.07.11.11-.02-.02-.04-.04-.05-.06.05.06.11.12.16.17.93,1.18,1.57,2.64,2.33,3.91.52.59.04,1.49-.65,1.49-.11,0-.23-.02-.35-.08Z"/>
      <path d="M151.58,87.72c-.55-1.37-1.04-2.77-1.61-4.14-.79-.38-.36-1.88.55-1.61.61.2.78.89,1.03,1.43.51,1.3,1.21,2.54,1.63,3.86.04.54-.43.88-.89.88-.28,0-.55-.12-.71-.42Z"/>
      <path d="M148.24,92.12c-1.01-.06-.81-1.25-.07-1.6,1.51-1.02,2.76-2.37,4.2-3.46.39-.25.94-.07,1.16.32.23.41.08.93-.32,1.17-1.41,1.06-2.71,2.27-4.22,3.2-.11.23-.36.39-.61.39-.05,0-.1,0-.15-.02Z"/>
      <path d="M151.13,97.71c-.55-.27-.85-.94-1.19-1.4-.86-1.33-1.75-2.63-2.53-4.01-.45-.55.34-1.39.91-.9,1.32,1.5,2.3,3.29,3.73,4.7.7.54.23,1.7-.53,1.7-.12,0-.25-.03-.39-.09Z"/>
      <path d="M153.83,90.69c-.57-.61-.81-1.47-1.16-2.22-.81-.3-.08-1.77.61-1.12.57.84.96,1.8,1.68,2.5.22.5-.24.98-.71.98-.14,0-.29-.05-.42-.15Z"/>
      <path d="M148.92,94.3c-.05-.19.01-.36.13-.48.9-1.01,2.21-1.49,3.42-2.01,2.29-1.44,4.33-2.62,7.11-2.68.62-.23,1.1-.6,1.66-.93.71-.42,1.59.45,1.14,1.16-1.63,1.97-4.21,1.11-6.23,2.1-1.65.96-3.3,1.9-5.15,2.43-.46.14-1.1.8-1.6.8-.19,0-.36-.1-.49-.38Z"/>
      <path d="M163.17,92.31c-.24-.57-2.99-3.75-1.24-3.43,0,0,0,0,0,0,.16.18.46.23.52.48.64.68,1.25,1.39,1.84,2.12.41.52-.09,1.12-.6,1.12-.19,0-.37-.08-.51-.27Z"/>
      <path d="M153.23,71.1c-1.13-1.63-2.16-3.48-2.68-5.39-.4-1.85-.19-3.75-.12-5.63-.05-.35.2-.74.57-.78.48-.07.84.48.68.91.01,2.18.02,4.46,1.04,6.45.66,1.32,1.21,2.56,1.61,3.92.06.4-.3.71-.66.71-.16,0-.31-.05-.43-.18Z"/>
      <path d="M154.02,73.31c-.29-.09-.48-.38-.44-.68,0-.04.02-.08.03-.12-.13-.57-.91-1.35-.26-1.82.75-.35.92.7,1.19,1.17.36.51.41,1.46-.34,1.46-.05,0-.12,0-.18-.02Z"/>
      <path d="M157.81,73.26c-1.12-.37-2.08-.75-3.15-1.18-.39-.18-.85-.36-1.02-.79-.26-1.33,1.4-.65,2.09-.5,1.07.35,2.34.32,3.27.96.64.68.02,1.6-.76,1.6-.14,0-.29-.03-.43-.1Z"/>
      <path d="M161.8,80.65c-1.25-.51-1.3-2.52-1.92-3.58-.58-1.53-1.95-2.78-2.2-4.4,0-.57.75-.87,1.14-.45,1.46,1.89,2.9,3.86,3.5,6.21.1.61.74,1.12.49,1.75-.13.3-.45.52-.78.52-.08,0-.16-.01-.23-.04Z"/>
      <path d="M161.61,81.35c-1.47-.69-2.88-1.56-4.25-2.39-.69-.27-.39-1.34.35-1.23,1.59.46,2.95,1.57,4.52,2.2.81.35.43,1.5-.3,1.5-.1,0-.21-.02-.32-.07Z"/>
      <path d="M161.8,80.31c-.38-1,.72-.97,1.32-1.29,1.09-.38,4.61-3.25,4.54-.62-.32.82-1.41.91-2.11,1.31-.74.21-1.95,1.09-2.86,1.09-.36,0-.66-.13-.89-.5Z"/>
      <path d="M158.11,72.76c-1.04-.73-.11-2.35,1.02-1.75,1.81-.71,3.64-1.39,5.32-2.37.52-.3,1.29-.58,1.76-.09.43.02.73.5.49.91-.63.58-1.52.97-2.29,1.41-1.24.62-2.56,1.05-3.85,1.57-.54.17-1.18.52-1.78.52-.23,0-.46-.05-.68-.2Z"/>
      <path d="M170.01,76.69c-.3-.02-.52-.24-.66-.48-.64-1.04-.97-2.24-1.62-3.28-.24-.73-2.78-4.2-1.48-4.35.21.01.36.16.5.31.05,0,.09.02.14.05.07.05.11.15.09.24.52,1,5.64,7.5,3.06,7.5h-.02Z"/>
      <path d="M165.99,79.25c-.14-.09-.24-.24-.26-.4-.01-.09,0-.18.04-.27-.07-.32.15-.65.48-.69.06,0,.12,0,.17,0,1-.42,5.06-3.81,4.86-1.13-.25.72-1.24.71-1.82,1.1-1,.46-2.03.98-2.98,1.43-.07.03-.14.04-.21.04-.1,0-.19-.02-.28-.08Z"/>
      <path d="M168.56,70.89c-.79-.29-3.67-1.02-2.57-2.16.26-.2.57-.14.85-.02.68.33,1.38.61,2.1.82.8.23.54,1.39-.18,1.39-.07,0-.14,0-.21-.03Z"/>
      <path d="M173.66,79.02c-.43-.18-.57-.62-.71-1.03-1.05-1.59-2.04-3.34-2.95-4.99-.39-.58-.79-1.23-1.06-1.86-.17-.41-.52-.86-.35-1.31.29-.6.99-.28,1.16.23,1.29,2.05,2.46,4.26,3.71,6.32.35.74,1.51,1.56,1.03,2.43-.14.18-.35.27-.56.27-.09,0-.19-.02-.28-.06Z"/>
      <path d="M170.98,76.61c.2-.05.36,0,.54.09.81.54,1.66,1.05,2.6,1.33.85.22.67,1.54-.18,1.54h-.05s-.01,0-.02,0c-.81,0-4.34-2.28-2.88-2.96Z"/>
      <path d="M178.37,64.36c.73-.43,1.36-1.1,2.22-1.21.43-.26.79-.68,1.27-.85.91-.2,1.19,1.05.35,1.35-1.04.63-1.91,1.3-2.91,1.95-1.37.81-2.89,1.31-4.34,1.98-1.86.62-3.78,2.32-5.61,2.51-1.49-.65,8.24-5.09,9.02-5.72Z"/>
      <path d="M186.55,72.6c-1.28-1.14-1.72-3.03-2.46-4.55-.76-1.8-2.11-3.48-2.59-5.35.24-1.05,1.46-.8,1.83.04,1.3,2.07,2.67,4.14,3.38,6.5.23.96,1.12,1.8.97,2.83-.1.38-.45.6-.81.6-.11,0-.21-.02-.32-.06Z"/>
      <path d="M172.78,80.2c-1.53-1.44,2.68-2.33,3.52-2.96,3.3-1.82,6.68-3.57,9.95-5.37,1.32-.29,1.83,1.65.52,2.02-1.83.88-3.67,1.91-5.46,2.73-2.43,1.25-4.92,2.54-7.55,3.28-.1.25-.36.39-.62.39-.12,0-.24-.03-.35-.09Z"/>
      <path d="M128.46,21.54c-1.25-1.03,1.46-2.04,2.06-2.59,4.87-3.68,10.52-6.07,15.61-9.4,2.54-1.89,5.59-2.88,8.12-4.75,2.29-1.5,4.76-2.77,7.25-3.9,1.01-.6,3.77-1.84,3.49.36-.21.7-1.02.79-1.64.91-2.77.58-5,2.21-7.5,3.41-2.33,1.7-5.06,2.66-7.48,4.21-6.06,4.2-12.69,7.49-18.94,11.39.02.33-.27.55-.57.55-.15,0-.3-.06-.41-.2Z"/>
      <path d="M181.94,63.52c-.45-.2-.73-.69-.65-1.17.03-.71-.07-1.45.19-2.12.02-1.49.28-2.77.41-4.22.59-3.53.33-7.08.32-10.63-.16-3.21.11-6.45-.43-9.62-.57-2.43-1.39-4.75-2.32-7.04-1.19-2.02-2.61-3.93-3.48-6.13-1.58-3.34-3.12-6.79-4.71-10.09-1.47-2.25-2.8-4.58-4.34-6.78-.96-1.36-2.33-2.35-3.17-3.82-.81-.12-.5-1.3.19-1.38.88.06,1.32,1.11,1.9,1.66.72.78,1.55,1.28,2.18,2.12,4.73,6.14,8.04,13.15,11.18,20.19,1.15,1.97,2.35,4.14,2.9,6.31.6,1.76,1.45,3.45,1.76,5.3.65,3.82.11,7.81.2,11.63.64,4.2-.25,8.23-.3,12.38.08.29.03.61-.04.9,0,.54.16,1.09-.01,1.62-.18.58-.72,1-1.29,1-.16,0-.32-.03-.48-.1Z"/>
    </g>
  </g>
</svg>